<?xml version="1.0" encoding="utf-8" standalone="no"?>
<!DOCTYPE svg PUBLIC "-//W3C//DTD SVG 1.1//EN"
  "http://www.w3.org/Graphics/SVG/1.1/DTD/svg11.dtd">
<svg xmlns:xlink="http://www.w3.org/1999/xlink" width="476.41375pt" height="315.04925pt" viewBox="0 0 476.41375 315.04925" xmlns="http://www.w3.org/2000/svg" version="1.1">
 <metadata>
  <rdf:RDF xmlns:dc="http://purl.org/dc/elements/1.1/" xmlns:cc="http://creativecommons.org/ns#" xmlns:rdf="http://www.w3.org/1999/02/22-rdf-syntax-ns#">
   <cc:Work>
    <dc:type rdf:resource="http://purl.org/dc/dcmitype/StillImage"/>
    <dc:date>2026-05-26T21:14:11.611382</dc:date>
    <dc:format>image/svg+xml</dc:format>
    <dc:creator>
     <cc:Agent>
      <dc:title>Matplotlib v3.10.8, https://matplotlib.org/</dc:title>
     </cc:Agent>
    </dc:creator>
   </cc:Work>
  </rdf:RDF>
 </metadata>
 <defs>
  <style type="text/css">*{stroke-linejoin: round; stroke-linecap: butt}</style>
 </defs>
 <g id="figure_1">
  <g id="patch_1">
   <path d="M 0 315.04925 
L 476.41375 315.04925 
L 476.41375 0 
L 0 0 
z
" style="fill: #ffffff"/>
  </g>
  <g id="axes_1">
   <g id="patch_2">
    <path d="M 22.81375 273.62175 
L 469.21375 273.62175 
L 469.21375 24.14175 
L 22.81375 24.14175 
z
" style="fill: #fbfbfd"/>
   </g>
   <g id="FillBetweenPolyCollection_1">
    <defs>
     <path id="m7a5032a5d6" d="M 173.778114 -52.7675 
L 173.778114 -111.179934 
L 174.58975 -112.794545 
L 175.401386 -114.436713 
L 176.213023 -116.106271 
L 177.024659 -117.803023 
L 177.836295 -119.526745 
L 178.647932 -121.277187 
L 179.459568 -123.054066 
L 180.271205 -124.857072 
L 181.082841 -126.685865 
L 181.894477 -128.540073 
L 182.706114 -130.419295 
L 183.51775 -132.323097 
L 184.329386 -134.251017 
L 185.141023 -136.202557 
L 185.952659 -138.177191 
L 186.764295 -140.174359 
L 187.575932 -142.19347 
L 188.387568 -144.233899 
L 189.199205 -146.294992 
L 190.010841 -148.376059 
L 190.822477 -150.47638 
L 191.634114 -152.595203 
L 192.44575 -154.731744 
L 193.257386 -156.885186 
L 194.069023 -159.054682 
L 194.880659 -161.239353 
L 195.692295 -163.438288 
L 196.503932 -165.650548 
L 197.315568 -167.875162 
L 198.127205 -170.111129 
L 198.938841 -172.357422 
L 199.750477 -174.612981 
L 200.562114 -176.876722 
L 201.37375 -179.147531 
L 202.185386 -181.424269 
L 202.997023 -183.705773 
L 203.808659 -185.990851 
L 204.620295 -188.27829 
L 205.431932 -190.566855 
L 206.243568 -192.855285 
L 207.055205 -195.142303 
L 207.866841 -197.426607 
L 208.678477 -199.706881 
L 209.490114 -201.981789 
L 210.30175 -204.249977 
L 211.113386 -206.51008 
L 211.925023 -208.760716 
L 212.736659 -211.000491 
L 213.548295 -213.228001 
L 214.359932 -215.441831 
L 215.171568 -217.640559 
L 215.983205 -219.822755 
L 216.794841 -221.986985 
L 217.606477 -224.13181 
L 218.418114 -226.255788 
L 219.22975 -228.35748 
L 220.041386 -230.435444 
L 220.853023 -232.488242 
L 221.664659 -234.514441 
L 222.476295 -236.512613 
L 223.287932 -238.481337 
L 224.099568 -240.419203 
L 224.911205 -242.324811 
L 225.722841 -244.196771 
L 226.534477 -246.033711 
L 227.346114 -247.834274 
L 228.15775 -249.597117 
L 228.969386 -251.320922 
L 229.781023 -253.004386 
L 230.592659 -254.646233 
L 231.404295 -256.245209 
L 232.215932 -257.800085 
L 233.027568 -259.30966 
L 233.839205 -260.772763 
L 234.650841 -262.18825 
L 235.462477 -263.555013 
L 236.274114 -264.871973 
L 237.08575 -266.138089 
L 237.897386 -267.352354 
L 238.709023 -268.513799 
L 239.520659 -269.621492 
L 240.332295 -270.674545 
L 241.143932 -271.672106 
L 241.955568 -272.613369 
L 242.767205 -273.497568 
L 243.578841 -274.323985 
L 244.390477 -275.091944 
L 245.202114 -275.800818 
L 246.01375 -276.450024 
L 246.825386 -277.039029 
L 247.637023 -277.567348 
L 248.448659 -278.034545 
L 249.260295 -278.440235 
L 250.071932 -278.784081 
L 250.883568 -279.0658 
L 251.695205 -279.285157 
L 252.506841 -279.441971 
L 253.318477 -279.536111 
L 254.130114 -279.5675 
L 254.94175 -279.536111 
L 255.753386 -279.441971 
L 256.565023 -279.285157 
L 257.376659 -279.0658 
L 258.188295 -278.784081 
L 258.999932 -278.440235 
L 259.811568 -278.034545 
L 260.623205 -277.567348 
L 261.434841 -277.039029 
L 262.246477 -276.450024 
L 263.058114 -275.800818 
L 263.86975 -275.091944 
L 264.681386 -274.323985 
L 265.493023 -273.497568 
L 266.304659 -272.613369 
L 267.116295 -271.672106 
L 267.927932 -270.674545 
L 268.739568 -269.621492 
L 269.551205 -268.513799 
L 270.362841 -267.352354 
L 271.174477 -266.138089 
L 271.986114 -264.871973 
L 272.79775 -263.555013 
L 273.609386 -262.18825 
L 274.421023 -260.772763 
L 275.232659 -259.30966 
L 276.044295 -257.800085 
L 276.855932 -256.245209 
L 277.667568 -254.646233 
L 278.479205 -253.004386 
L 279.290841 -251.320922 
L 280.102477 -249.597117 
L 280.914114 -247.834274 
L 281.72575 -246.033711 
L 282.537386 -244.196771 
L 283.349023 -242.324811 
L 284.160659 -240.419203 
L 284.972295 -238.481337 
L 285.783932 -236.512613 
L 286.595568 -234.514441 
L 287.407205 -232.488242 
L 288.218841 -230.435444 
L 289.030477 -228.35748 
L 289.842114 -226.255788 
L 290.65375 -224.13181 
L 291.465386 -221.986985 
L 292.277023 -219.822755 
L 293.088659 -217.640559 
L 293.900295 -215.441831 
L 294.711932 -213.228001 
L 295.523568 -211.000491 
L 296.335205 -208.760716 
L 297.146841 -206.51008 
L 297.958477 -204.249977 
L 298.770114 -201.981789 
L 299.58175 -199.706881 
L 300.393386 -197.426607 
L 301.205023 -195.142303 
L 302.016659 -192.855285 
L 302.828295 -190.566855 
L 303.639932 -188.27829 
L 304.451568 -185.990851 
L 305.263205 -183.705773 
L 306.074841 -181.424269 
L 306.886477 -179.147531 
L 307.698114 -176.876722 
L 308.50975 -174.612981 
L 309.321386 -172.357422 
L 310.133023 -170.111129 
L 310.944659 -167.875162 
L 311.756295 -165.650548 
L 312.567932 -163.438288 
L 313.379568 -161.239353 
L 314.191205 -159.054682 
L 315.002841 -156.885186 
L 315.814477 -154.731744 
L 316.626114 -152.595203 
L 317.43775 -150.47638 
L 318.249386 -148.376059 
L 319.061023 -146.294992 
L 319.872659 -144.233899 
L 320.684295 -142.19347 
L 321.495932 -140.174359 
L 322.307568 -138.177191 
L 323.119205 -136.202557 
L 323.930841 -134.251017 
L 324.742477 -132.323097 
L 325.554114 -130.419295 
L 326.36575 -128.540073 
L 327.177386 -126.685865 
L 327.989023 -124.857072 
L 328.800659 -123.054066 
L 329.612295 -121.277187 
L 330.423932 -119.526745 
L 331.235568 -117.803023 
L 332.047205 -116.106271 
L 332.858841 -114.436713 
L 333.670477 -112.794545 
L 334.482114 -111.179934 
L 335.29375 -109.59302 
L 335.29375 -52.7675 
L 335.29375 -52.7675 
L 334.482114 -52.7675 
L 333.670477 -52.7675 
L 332.858841 -52.7675 
L 332.047205 -52.7675 
L 331.235568 -52.7675 
L 330.423932 -52.7675 
L 329.612295 -52.7675 
L 328.800659 -52.7675 
L 327.989023 -52.7675 
L 327.177386 -52.7675 
L 326.36575 -52.7675 
L 325.554114 -52.7675 
L 324.742477 -52.7675 
L 323.930841 -52.7675 
L 323.119205 -52.7675 
L 322.307568 -52.7675 
L 321.495932 -52.7675 
L 320.684295 -52.7675 
L 319.872659 -52.7675 
L 319.061023 -52.7675 
L 318.249386 -52.7675 
L 317.43775 -52.7675 
L 316.626114 -52.7675 
L 315.814477 -52.7675 
L 315.002841 -52.7675 
L 314.191205 -52.7675 
L 313.379568 -52.7675 
L 312.567932 -52.7675 
L 311.756295 -52.7675 
L 310.944659 -52.7675 
L 310.133023 -52.7675 
L 309.321386 -52.7675 
L 308.50975 -52.7675 
L 307.698114 -52.7675 
L 306.886477 -52.7675 
L 306.074841 -52.7675 
L 305.263205 -52.7675 
L 304.451568 -52.7675 
L 303.639932 -52.7675 
L 302.828295 -52.7675 
L 302.016659 -52.7675 
L 301.205023 -52.7675 
L 300.393386 -52.7675 
L 299.58175 -52.7675 
L 298.770114 -52.7675 
L 297.958477 -52.7675 
L 297.146841 -52.7675 
L 296.335205 -52.7675 
L 295.523568 -52.7675 
L 294.711932 -52.7675 
L 293.900295 -52.7675 
L 293.088659 -52.7675 
L 292.277023 -52.7675 
L 291.465386 -52.7675 
L 290.65375 -52.7675 
L 289.842114 -52.7675 
L 289.030477 -52.7675 
L 288.218841 -52.7675 
L 287.407205 -52.7675 
L 286.595568 -52.7675 
L 285.783932 -52.7675 
L 284.972295 -52.7675 
L 284.160659 -52.7675 
L 283.349023 -52.7675 
L 282.537386 -52.7675 
L 281.72575 -52.7675 
L 280.914114 -52.7675 
L 280.102477 -52.7675 
L 279.290841 -52.7675 
L 278.479205 -52.7675 
L 277.667568 -52.7675 
L 276.855932 -52.7675 
L 276.044295 -52.7675 
L 275.232659 -52.7675 
L 274.421023 -52.7675 
L 273.609386 -52.7675 
L 272.79775 -52.7675 
L 271.986114 -52.7675 
L 271.174477 -52.7675 
L 270.362841 -52.7675 
L 269.551205 -52.7675 
L 268.739568 -52.7675 
L 267.927932 -52.7675 
L 267.116295 -52.7675 
L 266.304659 -52.7675 
L 265.493023 -52.7675 
L 264.681386 -52.7675 
L 263.86975 -52.7675 
L 263.058114 -52.7675 
L 262.246477 -52.7675 
L 261.434841 -52.7675 
L 260.623205 -52.7675 
L 259.811568 -52.7675 
L 258.999932 -52.7675 
L 258.188295 -52.7675 
L 257.376659 -52.7675 
L 256.565023 -52.7675 
L 255.753386 -52.7675 
L 254.94175 -52.7675 
L 254.130114 -52.7675 
L 253.318477 -52.7675 
L 252.506841 -52.7675 
L 251.695205 -52.7675 
L 250.883568 -52.7675 
L 250.071932 -52.7675 
L 249.260295 -52.7675 
L 248.448659 -52.7675 
L 247.637023 -52.7675 
L 246.825386 -52.7675 
L 246.01375 -52.7675 
L 245.202114 -52.7675 
L 244.390477 -52.7675 
L 243.578841 -52.7675 
L 242.767205 -52.7675 
L 241.955568 -52.7675 
L 241.143932 -52.7675 
L 240.332295 -52.7675 
L 239.520659 -52.7675 
L 238.709023 -52.7675 
L 237.897386 -52.7675 
L 237.08575 -52.7675 
L 236.274114 -52.7675 
L 235.462477 -52.7675 
L 234.650841 -52.7675 
L 233.839205 -52.7675 
L 233.027568 -52.7675 
L 232.215932 -52.7675 
L 231.404295 -52.7675 
L 230.592659 -52.7675 
L 229.781023 -52.7675 
L 228.969386 -52.7675 
L 228.15775 -52.7675 
L 227.346114 -52.7675 
L 226.534477 -52.7675 
L 225.722841 -52.7675 
L 224.911205 -52.7675 
L 224.099568 -52.7675 
L 223.287932 -52.7675 
L 222.476295 -52.7675 
L 221.664659 -52.7675 
L 220.853023 -52.7675 
L 220.041386 -52.7675 
L 219.22975 -52.7675 
L 218.418114 -52.7675 
L 217.606477 -52.7675 
L 216.794841 -52.7675 
L 215.983205 -52.7675 
L 215.171568 -52.7675 
L 214.359932 -52.7675 
L 213.548295 -52.7675 
L 212.736659 -52.7675 
L 211.925023 -52.7675 
L 211.113386 -52.7675 
L 210.30175 -52.7675 
L 209.490114 -52.7675 
L 208.678477 -52.7675 
L 207.866841 -52.7675 
L 207.055205 -52.7675 
L 206.243568 -52.7675 
L 205.431932 -52.7675 
L 204.620295 -52.7675 
L 203.808659 -52.7675 
L 202.997023 -52.7675 
L 202.185386 -52.7675 
L 201.37375 -52.7675 
L 200.562114 -52.7675 
L 199.750477 -52.7675 
L 198.938841 -52.7675 
L 198.127205 -52.7675 
L 197.315568 -52.7675 
L 196.503932 -52.7675 
L 195.692295 -52.7675 
L 194.880659 -52.7675 
L 194.069023 -52.7675 
L 193.257386 -52.7675 
L 192.44575 -52.7675 
L 191.634114 -52.7675 
L 190.822477 -52.7675 
L 190.010841 -52.7675 
L 189.199205 -52.7675 
L 188.387568 -52.7675 
L 187.575932 -52.7675 
L 186.764295 -52.7675 
L 185.952659 -52.7675 
L 185.141023 -52.7675 
L 184.329386 -52.7675 
L 183.51775 -52.7675 
L 182.706114 -52.7675 
L 181.894477 -52.7675 
L 181.082841 -52.7675 
L 180.271205 -52.7675 
L 179.459568 -52.7675 
L 178.647932 -52.7675 
L 177.836295 -52.7675 
L 177.024659 -52.7675 
L 176.213023 -52.7675 
L 175.401386 -52.7675 
L 174.58975 -52.7675 
L 173.778114 -52.7675 
z
" style="stroke: #bbf7d0"/>
    </defs>
    <g clip-path="url(#p7f7e9ec6b1)">
     <use xlink:href="#m7a5032a5d6" x="0" y="315.04925" style="fill: #bbf7d0; stroke: #bbf7d0"/>
    </g>
   </g>
   <g id="FillBetweenPolyCollection_2">
    <defs>
     <path id="m6dcd66742d" d="M 43.104659 -52.7675 
L 43.104659 -52.787098 
L 43.916295 -52.788557 
L 44.727932 -52.79012 
L 45.539568 -52.791791 
L 46.351205 -52.793578 
L 47.162841 -52.795489 
L 47.974477 -52.797532 
L 48.786114 -52.799715 
L 49.59775 -52.802048 
L 50.409386 -52.804539 
L 51.221023 -52.807198 
L 52.032659 -52.810037 
L 52.844295 -52.813066 
L 53.655932 -52.816297 
L 54.467568 -52.819743 
L 55.279205 -52.823417 
L 56.090841 -52.827332 
L 56.902477 -52.831504 
L 57.714114 -52.835948 
L 58.52575 -52.840681 
L 59.337386 -52.845718 
L 60.149023 -52.85108 
L 60.960659 -52.856784 
L 61.772295 -52.862851 
L 62.583932 -52.869303 
L 63.395568 -52.87616 
L 64.207205 -52.883448 
L 65.018841 -52.89119 
L 65.830477 -52.899412 
L 66.642114 -52.908142 
L 67.45375 -52.917408 
L 68.265386 -52.927241 
L 69.077023 -52.937671 
L 69.888659 -52.948733 
L 70.700295 -52.96046 
L 71.511932 -52.972889 
L 72.323568 -52.986057 
L 73.135205 -53.000006 
L 73.946841 -53.014777 
L 74.758477 -53.030413 
L 75.570114 -53.046961 
L 76.38175 -53.064468 
L 77.193386 -53.082984 
L 78.005023 -53.102562 
L 78.816659 -53.123256 
L 79.628295 -53.145124 
L 80.439932 -53.168226 
L 81.251568 -53.192623 
L 82.063205 -53.21838 
L 82.874841 -53.245565 
L 83.686477 -53.27425 
L 84.498114 -53.304507 
L 85.30975 -53.336413 
L 86.121386 -53.370047 
L 86.933023 -53.405494 
L 87.744659 -53.442839 
L 88.556295 -53.482172 
L 89.367932 -53.523587 
L 90.179568 -53.56718 
L 90.991205 -53.613052 
L 91.802841 -53.661309 
L 92.614477 -53.712058 
L 93.426114 -53.765412 
L 94.23775 -53.821488 
L 95.049386 -53.880407 
L 95.861023 -53.942294 
L 96.672659 -54.00728 
L 97.484295 -54.075498 
L 98.295932 -54.147088 
L 99.107568 -54.222193 
L 99.919205 -54.300963 
L 100.730841 -54.383551 
L 101.542477 -54.470115 
L 102.354114 -54.56082 
L 103.16575 -54.655834 
L 103.977386 -54.755332 
L 104.789023 -54.859493 
L 105.600659 -54.968502 
L 106.412295 -55.082551 
L 107.223932 -55.201836 
L 108.035568 -55.326559 
L 108.847205 -55.456927 
L 109.658841 -55.593154 
L 110.470477 -55.73546 
L 111.282114 -55.88407 
L 112.09375 -56.039215 
L 112.905386 -56.201133 
L 113.717023 -56.370066 
L 114.528659 -56.546265 
L 115.340295 -56.729985 
L 116.151932 -56.921487 
L 116.963568 -57.121039 
L 117.775205 -57.328914 
L 118.586841 -57.545392 
L 119.398477 -57.770758 
L 120.210114 -58.005305 
L 121.02175 -58.249329 
L 121.833386 -58.503134 
L 122.645023 -58.767029 
L 123.456659 -59.041329 
L 124.268295 -59.326355 
L 125.079932 -59.622431 
L 125.891568 -59.92989 
L 126.703205 -60.249067 
L 127.514841 -60.580305 
L 128.326477 -60.92395 
L 129.138114 -61.280354 
L 129.94975 -61.649871 
L 130.761386 -62.032864 
L 131.573023 -62.429695 
L 132.384659 -62.840733 
L 133.196295 -63.266351 
L 134.007932 -63.706923 
L 134.819568 -64.162829 
L 135.631205 -64.634449 
L 136.442841 -65.122168 
L 137.254477 -65.626372 
L 138.066114 -66.147448 
L 138.87775 -66.685786 
L 139.689386 -67.241777 
L 140.501023 -67.815812 
L 141.312659 -68.408282 
L 142.124295 -69.019579 
L 142.935932 -69.650093 
L 143.747568 -70.300215 
L 144.559205 -70.970333 
L 145.370841 -71.660832 
L 146.182477 -72.372097 
L 146.994114 -73.104508 
L 147.80575 -73.858442 
L 148.617386 -74.634272 
L 149.429023 -75.432366 
L 150.240659 -76.253087 
L 151.052295 -77.096791 
L 151.863932 -77.96383 
L 152.675568 -78.854545 
L 153.487205 -79.769272 
L 154.298841 -80.708338 
L 155.110477 -81.67206 
L 155.922114 -82.660747 
L 156.73375 -83.674694 
L 157.545386 -84.71419 
L 158.357023 -85.779507 
L 159.168659 -86.870907 
L 159.980295 -87.988638 
L 160.791932 -89.132935 
L 161.603568 -90.304017 
L 162.415205 -91.502087 
L 163.226841 -92.727334 
L 164.038477 -93.979928 
L 164.850114 -95.260021 
L 165.66175 -96.567749 
L 166.473386 -97.903227 
L 167.285023 -99.266551 
L 168.096659 -100.657794 
L 168.908295 -102.077013 
L 169.719932 -103.524237 
L 170.531568 -104.999476 
L 171.343205 -106.502716 
L 172.154841 -108.033918 
L 172.966477 -109.59302 
L 336.105386 -108.033918 
L 336.917023 -106.502716 
L 337.728659 -104.999476 
L 338.540295 -103.524237 
L 339.351932 -102.077013 
L 340.163568 -100.657794 
L 340.975205 -99.266551 
L 341.786841 -97.903227 
L 342.598477 -96.567749 
L 343.410114 -95.260021 
L 344.22175 -93.979928 
L 345.033386 -92.727334 
L 345.845023 -91.502087 
L 346.656659 -90.304017 
L 347.468295 -89.132935 
L 348.279932 -87.988638 
L 349.091568 -86.870907 
L 349.903205 -85.779507 
L 350.714841 -84.71419 
L 351.526477 -83.674694 
L 352.338114 -82.660747 
L 353.14975 -81.67206 
L 353.961386 -80.708338 
L 354.773023 -79.769272 
L 355.584659 -78.854545 
L 356.396295 -77.96383 
L 357.207932 -77.096791 
L 358.019568 -76.253087 
L 358.831205 -75.432366 
L 359.642841 -74.634272 
L 360.454477 -73.858442 
L 361.266114 -73.104508 
L 362.07775 -72.372097 
L 362.889386 -71.660832 
L 363.701023 -70.970333 
L 364.512659 -70.300215 
L 365.324295 -69.650093 
L 366.135932 -69.019579 
L 366.947568 -68.408282 
L 367.759205 -67.815812 
L 368.570841 -67.241777 
L 369.382477 -66.685786 
L 370.194114 -66.147448 
L 371.00575 -65.626372 
L 371.817386 -65.122168 
L 372.629023 -64.634449 
L 373.440659 -64.162829 
L 374.252295 -63.706923 
L 375.063932 -63.266351 
L 375.875568 -62.840733 
L 376.687205 -62.429695 
L 377.498841 -62.032864 
L 378.310477 -61.649871 
L 379.122114 -61.280354 
L 379.93375 -60.92395 
L 380.745386 -60.580305 
L 381.557023 -60.249067 
L 382.368659 -59.92989 
L 383.180295 -59.622431 
L 383.991932 -59.326355 
L 384.803568 -59.041329 
L 385.615205 -58.767029 
L 386.426841 -58.503134 
L 387.238477 -58.249329 
L 388.050114 -58.005305 
L 388.86175 -57.770758 
L 389.673386 -57.545392 
L 390.485023 -57.328914 
L 391.296659 -57.121039 
L 392.108295 -56.921487 
L 392.919932 -56.729985 
L 393.731568 -56.546265 
L 394.543205 -56.370066 
L 395.354841 -56.201133 
L 396.166477 -56.039215 
L 396.978114 -55.88407 
L 397.78975 -55.73546 
L 398.601386 -55.593154 
L 399.413023 -55.456927 
L 400.224659 -55.326559 
L 401.036295 -55.201836 
L 401.847932 -55.082551 
L 402.659568 -54.968502 
L 403.471205 -54.859493 
L 404.282841 -54.755332 
L 405.094477 -54.655834 
L 405.906114 -54.56082 
L 406.71775 -54.470115 
L 407.529386 -54.383551 
L 408.341023 -54.300963 
L 409.152659 -54.222193 
L 409.964295 -54.147088 
L 410.775932 -54.075498 
L 411.587568 -54.00728 
L 412.399205 -53.942294 
L 413.210841 -53.880407 
L 414.022477 -53.821488 
L 414.834114 -53.765412 
L 415.64575 -53.712058 
L 416.457386 -53.661309 
L 417.269023 -53.613052 
L 418.080659 -53.56718 
L 418.892295 -53.523587 
L 419.703932 -53.482172 
L 420.515568 -53.442839 
L 421.327205 -53.405494 
L 422.138841 -53.370047 
L 422.950477 -53.336413 
L 423.762114 -53.304507 
L 424.57375 -53.27425 
L 425.385386 -53.245565 
L 426.197023 -53.21838 
L 427.008659 -53.192623 
L 427.820295 -53.168226 
L 428.631932 -53.145124 
L 429.443568 -53.123256 
L 430.255205 -53.102562 
L 431.066841 -53.082984 
L 431.878477 -53.064468 
L 432.690114 -53.046961 
L 433.50175 -53.030413 
L 434.313386 -53.014777 
L 435.125023 -53.000006 
L 435.936659 -52.986057 
L 436.748295 -52.972889 
L 437.559932 -52.96046 
L 438.371568 -52.948733 
L 439.183205 -52.937671 
L 439.994841 -52.927241 
L 440.806477 -52.917408 
L 441.618114 -52.908142 
L 442.42975 -52.899412 
L 443.241386 -52.89119 
L 444.053023 -52.883448 
L 444.864659 -52.87616 
L 445.676295 -52.869303 
L 446.487932 -52.862851 
L 447.299568 -52.856784 
L 448.111205 -52.85108 
L 448.922841 -52.845718 
L 448.922841 -52.7675 
L 448.922841 -52.7675 
L 448.111205 -52.7675 
L 447.299568 -52.7675 
L 446.487932 -52.7675 
L 445.676295 -52.7675 
L 444.864659 -52.7675 
L 444.053023 -52.7675 
L 443.241386 -52.7675 
L 442.42975 -52.7675 
L 441.618114 -52.7675 
L 440.806477 -52.7675 
L 439.994841 -52.7675 
L 439.183205 -52.7675 
L 438.371568 -52.7675 
L 437.559932 -52.7675 
L 436.748295 -52.7675 
L 435.936659 -52.7675 
L 435.125023 -52.7675 
L 434.313386 -52.7675 
L 433.50175 -52.7675 
L 432.690114 -52.7675 
L 431.878477 -52.7675 
L 431.066841 -52.7675 
L 430.255205 -52.7675 
L 429.443568 -52.7675 
L 428.631932 -52.7675 
L 427.820295 -52.7675 
L 427.008659 -52.7675 
L 426.197023 -52.7675 
L 425.385386 -52.7675 
L 424.57375 -52.7675 
L 423.762114 -52.7675 
L 422.950477 -52.7675 
L 422.138841 -52.7675 
L 421.327205 -52.7675 
L 420.515568 -52.7675 
L 419.703932 -52.7675 
L 418.892295 -52.7675 
L 418.080659 -52.7675 
L 417.269023 -52.7675 
L 416.457386 -52.7675 
L 415.64575 -52.7675 
L 414.834114 -52.7675 
L 414.022477 -52.7675 
L 413.210841 -52.7675 
L 412.399205 -52.7675 
L 411.587568 -52.7675 
L 410.775932 -52.7675 
L 409.964295 -52.7675 
L 409.152659 -52.7675 
L 408.341023 -52.7675 
L 407.529386 -52.7675 
L 406.71775 -52.7675 
L 405.906114 -52.7675 
L 405.094477 -52.7675 
L 404.282841 -52.7675 
L 403.471205 -52.7675 
L 402.659568 -52.7675 
L 401.847932 -52.7675 
L 401.036295 -52.7675 
L 400.224659 -52.7675 
L 399.413023 -52.7675 
L 398.601386 -52.7675 
L 397.78975 -52.7675 
L 396.978114 -52.7675 
L 396.166477 -52.7675 
L 395.354841 -52.7675 
L 394.543205 -52.7675 
L 393.731568 -52.7675 
L 392.919932 -52.7675 
L 392.108295 -52.7675 
L 391.296659 -52.7675 
L 390.485023 -52.7675 
L 389.673386 -52.7675 
L 388.86175 -52.7675 
L 388.050114 -52.7675 
L 387.238477 -52.7675 
L 386.426841 -52.7675 
L 385.615205 -52.7675 
L 384.803568 -52.7675 
L 383.991932 -52.7675 
L 383.180295 -52.7675 
L 382.368659 -52.7675 
L 381.557023 -52.7675 
L 380.745386 -52.7675 
L 379.93375 -52.7675 
L 379.122114 -52.7675 
L 378.310477 -52.7675 
L 377.498841 -52.7675 
L 376.687205 -52.7675 
L 375.875568 -52.7675 
L 375.063932 -52.7675 
L 374.252295 -52.7675 
L 373.440659 -52.7675 
L 372.629023 -52.7675 
L 371.817386 -52.7675 
L 371.00575 -52.7675 
L 370.194114 -52.7675 
L 369.382477 -52.7675 
L 368.570841 -52.7675 
L 367.759205 -52.7675 
L 366.947568 -52.7675 
L 366.135932 -52.7675 
L 365.324295 -52.7675 
L 364.512659 -52.7675 
L 363.701023 -52.7675 
L 362.889386 -52.7675 
L 362.07775 -52.7675 
L 361.266114 -52.7675 
L 360.454477 -52.7675 
L 359.642841 -52.7675 
L 358.831205 -52.7675 
L 358.019568 -52.7675 
L 357.207932 -52.7675 
L 356.396295 -52.7675 
L 355.584659 -52.7675 
L 354.773023 -52.7675 
L 353.961386 -52.7675 
L 353.14975 -52.7675 
L 352.338114 -52.7675 
L 351.526477 -52.7675 
L 350.714841 -52.7675 
L 349.903205 -52.7675 
L 349.091568 -52.7675 
L 348.279932 -52.7675 
L 347.468295 -52.7675 
L 346.656659 -52.7675 
L 345.845023 -52.7675 
L 345.033386 -52.7675 
L 344.22175 -52.7675 
L 343.410114 -52.7675 
L 342.598477 -52.7675 
L 341.786841 -52.7675 
L 340.975205 -52.7675 
L 340.163568 -52.7675 
L 339.351932 -52.7675 
L 338.540295 -52.7675 
L 337.728659 -52.7675 
L 336.917023 -52.7675 
L 336.105386 -52.7675 
L 172.966477 -52.7675 
L 172.154841 -52.7675 
L 171.343205 -52.7675 
L 170.531568 -52.7675 
L 169.719932 -52.7675 
L 168.908295 -52.7675 
L 168.096659 -52.7675 
L 167.285023 -52.7675 
L 166.473386 -52.7675 
L 165.66175 -52.7675 
L 164.850114 -52.7675 
L 164.038477 -52.7675 
L 163.226841 -52.7675 
L 162.415205 -52.7675 
L 161.603568 -52.7675 
L 160.791932 -52.7675 
L 159.980295 -52.7675 
L 159.168659 -52.7675 
L 158.357023 -52.7675 
L 157.545386 -52.7675 
L 156.73375 -52.7675 
L 155.922114 -52.7675 
L 155.110477 -52.7675 
L 154.298841 -52.7675 
L 153.487205 -52.7675 
L 152.675568 -52.7675 
L 151.863932 -52.7675 
L 151.052295 -52.7675 
L 150.240659 -52.7675 
L 149.429023 -52.7675 
L 148.617386 -52.7675 
L 147.80575 -52.7675 
L 146.994114 -52.7675 
L 146.182477 -52.7675 
L 145.370841 -52.7675 
L 144.559205 -52.7675 
L 143.747568 -52.7675 
L 142.935932 -52.7675 
L 142.124295 -52.7675 
L 141.312659 -52.7675 
L 140.501023 -52.7675 
L 139.689386 -52.7675 
L 138.87775 -52.7675 
L 138.066114 -52.7675 
L 137.254477 -52.7675 
L 136.442841 -52.7675 
L 135.631205 -52.7675 
L 134.819568 -52.7675 
L 134.007932 -52.7675 
L 133.196295 -52.7675 
L 132.384659 -52.7675 
L 131.573023 -52.7675 
L 130.761386 -52.7675 
L 129.94975 -52.7675 
L 129.138114 -52.7675 
L 128.326477 -52.7675 
L 127.514841 -52.7675 
L 126.703205 -52.7675 
L 125.891568 -52.7675 
L 125.079932 -52.7675 
L 124.268295 -52.7675 
L 123.456659 -52.7675 
L 122.645023 -52.7675 
L 121.833386 -52.7675 
L 121.02175 -52.7675 
L 120.210114 -52.7675 
L 119.398477 -52.7675 
L 118.586841 -52.7675 
L 117.775205 -52.7675 
L 116.963568 -52.7675 
L 116.151932 -52.7675 
L 115.340295 -52.7675 
L 114.528659 -52.7675 
L 113.717023 -52.7675 
L 112.905386 -52.7675 
L 112.09375 -52.7675 
L 111.282114 -52.7675 
L 110.470477 -52.7675 
L 109.658841 -52.7675 
L 108.847205 -52.7675 
L 108.035568 -52.7675 
L 107.223932 -52.7675 
L 106.412295 -52.7675 
L 105.600659 -52.7675 
L 104.789023 -52.7675 
L 103.977386 -52.7675 
L 103.16575 -52.7675 
L 102.354114 -52.7675 
L 101.542477 -52.7675 
L 100.730841 -52.7675 
L 99.919205 -52.7675 
L 99.107568 -52.7675 
L 98.295932 -52.7675 
L 97.484295 -52.7675 
L 96.672659 -52.7675 
L 95.861023 -52.7675 
L 95.049386 -52.7675 
L 94.23775 -52.7675 
L 93.426114 -52.7675 
L 92.614477 -52.7675 
L 91.802841 -52.7675 
L 90.991205 -52.7675 
L 90.179568 -52.7675 
L 89.367932 -52.7675 
L 88.556295 -52.7675 
L 87.744659 -52.7675 
L 86.933023 -52.7675 
L 86.121386 -52.7675 
L 85.30975 -52.7675 
L 84.498114 -52.7675 
L 83.686477 -52.7675 
L 82.874841 -52.7675 
L 82.063205 -52.7675 
L 81.251568 -52.7675 
L 80.439932 -52.7675 
L 79.628295 -52.7675 
L 78.816659 -52.7675 
L 78.005023 -52.7675 
L 77.193386 -52.7675 
L 76.38175 -52.7675 
L 75.570114 -52.7675 
L 74.758477 -52.7675 
L 73.946841 -52.7675 
L 73.135205 -52.7675 
L 72.323568 -52.7675 
L 71.511932 -52.7675 
L 70.700295 -52.7675 
L 69.888659 -52.7675 
L 69.077023 -52.7675 
L 68.265386 -52.7675 
L 67.45375 -52.7675 
L 66.642114 -52.7675 
L 65.830477 -52.7675 
L 65.018841 -52.7675 
L 64.207205 -52.7675 
L 63.395568 -52.7675 
L 62.583932 -52.7675 
L 61.772295 -52.7675 
L 60.960659 -52.7675 
L 60.149023 -52.7675 
L 59.337386 -52.7675 
L 58.52575 -52.7675 
L 57.714114 -52.7675 
L 56.902477 -52.7675 
L 56.090841 -52.7675 
L 55.279205 -52.7675 
L 54.467568 -52.7675 
L 53.655932 -52.7675 
L 52.844295 -52.7675 
L 52.032659 -52.7675 
L 51.221023 -52.7675 
L 50.409386 -52.7675 
L 49.59775 -52.7675 
L 48.786114 -52.7675 
L 47.974477 -52.7675 
L 47.162841 -52.7675 
L 46.351205 -52.7675 
L 45.539568 -52.7675 
L 44.727932 -52.7675 
L 43.916295 -52.7675 
L 43.104659 -52.7675 
z
" style="stroke: #fee2e2"/>
    </defs>
    <g clip-path="url(#p7f7e9ec6b1)">
     <use xlink:href="#m6dcd66742d" x="0" y="315.04925" style="fill: #fee2e2; stroke: #fee2e2"/>
    </g>
   </g>
   <g id="matplotlib.axis_1">
    <g id="xtick_1">
     <g id="line2d_1">
      <defs>
       <path id="mb0822ffbd1" d="M 0 0 
L 0 3.5 
" style="stroke: #374151; stroke-width: 0.8"/>
      </defs>
      <g>
       <use xlink:href="#mb0822ffbd1" x="43.104659" y="273.62175" style="fill: #374151; stroke: #374151; stroke-width: 0.8"/>
      </g>
     </g>
     <g id="text_1">
      <!-- 0.3 -->
      <g style="fill: #374151" transform="translate(33.562784 289.739875) scale(0.12 -0.12)">
       <defs>
        <path id="DejaVuSans-30" d="M 2034 4250 
Q 1547 4250 1301 3770 
Q 1056 3291 1056 2328 
Q 1056 1369 1301 889 
Q 1547 409 2034 409 
Q 2525 409 2770 889 
Q 3016 1369 3016 2328 
Q 3016 3291 2770 3770 
Q 2525 4250 2034 4250 
z
M 2034 4750 
Q 2819 4750 3233 4129 
Q 3647 3509 3647 2328 
Q 3647 1150 3233 529 
Q 2819 -91 2034 -91 
Q 1250 -91 836 529 
Q 422 1150 422 2328 
Q 422 3509 836 4129 
Q 1250 4750 2034 4750 
z
" transform="scale(0.015625)"/>
        <path id="DejaVuSans-2e" d="M 684 794 
L 1344 794 
L 1344 0 
L 684 0 
L 684 794 
z
" transform="scale(0.015625)"/>
        <path id="DejaVuSans-33" d="M 2597 2516 
Q 3050 2419 3304 2112 
Q 3559 1806 3559 1356 
Q 3559 666 3084 287 
Q 2609 -91 1734 -91 
Q 1441 -91 1130 -33 
Q 819 25 488 141 
L 488 750 
Q 750 597 1062 519 
Q 1375 441 1716 441 
Q 2309 441 2620 675 
Q 2931 909 2931 1356 
Q 2931 1769 2642 2001 
Q 2353 2234 1838 2234 
L 1294 2234 
L 1294 2753 
L 1863 2753 
Q 2328 2753 2575 2939 
Q 2822 3125 2822 3475 
Q 2822 3834 2567 4026 
Q 2313 4219 1838 4219 
Q 1578 4219 1281 4162 
Q 984 4106 628 3988 
L 628 4550 
Q 988 4650 1302 4700 
Q 1616 4750 1894 4750 
Q 2613 4750 3031 4423 
Q 3450 4097 3450 3541 
Q 3450 3153 3228 2886 
Q 3006 2619 2597 2516 
z
" transform="scale(0.015625)"/>
       </defs>
       <use xlink:href="#DejaVuSans-30"/>
       <use xlink:href="#DejaVuSans-2e" transform="translate(63.623047 0)"/>
       <use xlink:href="#DejaVuSans-33" transform="translate(95.410156 0)"/>
      </g>
     </g>
    </g>
    <g id="xtick_2">
     <g id="line2d_2">
      <g>
       <use xlink:href="#mb0822ffbd1" x="124.268295" y="273.62175" style="fill: #374151; stroke: #374151; stroke-width: 0.8"/>
      </g>
     </g>
     <g id="text_2">
      <!-- 0.4 -->
      <g style="fill: #374151" transform="translate(114.72642 289.739875) scale(0.12 -0.12)">
       <defs>
        <path id="DejaVuSans-34" d="M 2419 4116 
L 825 1625 
L 2419 1625 
L 2419 4116 
z
M 2253 4666 
L 3047 4666 
L 3047 1625 
L 3713 1625 
L 3713 1100 
L 3047 1100 
L 3047 0 
L 2419 0 
L 2419 1100 
L 313 1100 
L 313 1709 
L 2253 4666 
z
" transform="scale(0.015625)"/>
       </defs>
       <use xlink:href="#DejaVuSans-30"/>
       <use xlink:href="#DejaVuSans-2e" transform="translate(63.623047 0)"/>
       <use xlink:href="#DejaVuSans-34" transform="translate(95.410156 0)"/>
      </g>
     </g>
    </g>
    <g id="xtick_3">
     <g id="line2d_3">
      <g>
       <use xlink:href="#mb0822ffbd1" x="205.431932" y="273.62175" style="fill: #374151; stroke: #374151; stroke-width: 0.8"/>
      </g>
     </g>
     <g id="text_3">
      <!-- 0.5 -->
      <g style="fill: #374151" transform="translate(195.890057 289.739875) scale(0.12 -0.12)">
       <defs>
        <path id="DejaVuSans-35" d="M 691 4666 
L 3169 4666 
L 3169 4134 
L 1269 4134 
L 1269 2991 
Q 1406 3038 1543 3061 
Q 1681 3084 1819 3084 
Q 2600 3084 3056 2656 
Q 3513 2228 3513 1497 
Q 3513 744 3044 326 
Q 2575 -91 1722 -91 
Q 1428 -91 1123 -41 
Q 819 9 494 109 
L 494 744 
Q 775 591 1075 516 
Q 1375 441 1709 441 
Q 2250 441 2565 725 
Q 2881 1009 2881 1497 
Q 2881 1984 2565 2268 
Q 2250 2553 1709 2553 
Q 1456 2553 1204 2497 
Q 953 2441 691 2322 
L 691 4666 
z
" transform="scale(0.015625)"/>
       </defs>
       <use xlink:href="#DejaVuSans-30"/>
       <use xlink:href="#DejaVuSans-2e" transform="translate(63.623047 0)"/>
       <use xlink:href="#DejaVuSans-35" transform="translate(95.410156 0)"/>
      </g>
     </g>
    </g>
    <g id="xtick_4">
     <g id="line2d_4">
      <g>
       <use xlink:href="#mb0822ffbd1" x="286.595568" y="273.62175" style="fill: #374151; stroke: #374151; stroke-width: 0.8"/>
      </g>
     </g>
     <g id="text_4">
      <!-- 0.6 -->
      <g style="fill: #374151" transform="translate(277.053693 289.739875) scale(0.12 -0.12)">
       <defs>
        <path id="DejaVuSans-36" d="M 2113 2584 
Q 1688 2584 1439 2293 
Q 1191 2003 1191 1497 
Q 1191 994 1439 701 
Q 1688 409 2113 409 
Q 2538 409 2786 701 
Q 3034 994 3034 1497 
Q 3034 2003 2786 2293 
Q 2538 2584 2113 2584 
z
M 3366 4563 
L 3366 3988 
Q 3128 4100 2886 4159 
Q 2644 4219 2406 4219 
Q 1781 4219 1451 3797 
Q 1122 3375 1075 2522 
Q 1259 2794 1537 2939 
Q 1816 3084 2150 3084 
Q 2853 3084 3261 2657 
Q 3669 2231 3669 1497 
Q 3669 778 3244 343 
Q 2819 -91 2113 -91 
Q 1303 -91 875 529 
Q 447 1150 447 2328 
Q 447 3434 972 4092 
Q 1497 4750 2381 4750 
Q 2619 4750 2861 4703 
Q 3103 4656 3366 4563 
z
" transform="scale(0.015625)"/>
       </defs>
       <use xlink:href="#DejaVuSans-30"/>
       <use xlink:href="#DejaVuSans-2e" transform="translate(63.623047 0)"/>
       <use xlink:href="#DejaVuSans-36" transform="translate(95.410156 0)"/>
      </g>
     </g>
    </g>
    <g id="xtick_5">
     <g id="line2d_5">
      <g>
       <use xlink:href="#mb0822ffbd1" x="367.759205" y="273.62175" style="fill: #374151; stroke: #374151; stroke-width: 0.8"/>
      </g>
     </g>
     <g id="text_5">
      <!-- 0.7 -->
      <g style="fill: #374151" transform="translate(358.21733 289.739875) scale(0.12 -0.12)">
       <defs>
        <path id="DejaVuSans-37" d="M 525 4666 
L 3525 4666 
L 3525 4397 
L 1831 0 
L 1172 0 
L 2766 4134 
L 525 4134 
L 525 4666 
z
" transform="scale(0.015625)"/>
       </defs>
       <use xlink:href="#DejaVuSans-30"/>
       <use xlink:href="#DejaVuSans-2e" transform="translate(63.623047 0)"/>
       <use xlink:href="#DejaVuSans-37" transform="translate(95.410156 0)"/>
      </g>
     </g>
    </g>
    <g id="xtick_6">
     <g id="line2d_6">
      <g>
       <use xlink:href="#mb0822ffbd1" x="448.922841" y="273.62175" style="fill: #374151; stroke: #374151; stroke-width: 0.8"/>
      </g>
     </g>
     <g id="text_6">
      <!-- 0.8 -->
      <g style="fill: #374151" transform="translate(439.380966 289.739875) scale(0.12 -0.12)">
       <defs>
        <path id="DejaVuSans-38" d="M 2034 2216 
Q 1584 2216 1326 1975 
Q 1069 1734 1069 1313 
Q 1069 891 1326 650 
Q 1584 409 2034 409 
Q 2484 409 2743 651 
Q 3003 894 3003 1313 
Q 3003 1734 2745 1975 
Q 2488 2216 2034 2216 
z
M 1403 2484 
Q 997 2584 770 2862 
Q 544 3141 544 3541 
Q 544 4100 942 4425 
Q 1341 4750 2034 4750 
Q 2731 4750 3128 4425 
Q 3525 4100 3525 3541 
Q 3525 3141 3298 2862 
Q 3072 2584 2669 2484 
Q 3125 2378 3379 2068 
Q 3634 1759 3634 1313 
Q 3634 634 3220 271 
Q 2806 -91 2034 -91 
Q 1263 -91 848 271 
Q 434 634 434 1313 
Q 434 1759 690 2068 
Q 947 2378 1403 2484 
z
M 1172 3481 
Q 1172 3119 1398 2916 
Q 1625 2713 2034 2713 
Q 2441 2713 2670 2916 
Q 2900 3119 2900 3481 
Q 2900 3844 2670 4047 
Q 2441 4250 2034 4250 
Q 1625 4250 1398 4047 
Q 1172 3844 1172 3481 
z
" transform="scale(0.015625)"/>
       </defs>
       <use xlink:href="#DejaVuSans-30"/>
       <use xlink:href="#DejaVuSans-2e" transform="translate(63.623047 0)"/>
       <use xlink:href="#DejaVuSans-38" transform="translate(95.410156 0)"/>
      </g>
     </g>
    </g>
    <g id="text_7">
     <!-- Candidate parameter value -->
     <g style="fill: #1f2937" transform="translate(163.459375 305.353625) scale(0.12 -0.12)">
      <defs>
       <path id="DejaVuSans-43" d="M 4122 4306 
L 4122 3641 
Q 3803 3938 3442 4084 
Q 3081 4231 2675 4231 
Q 1875 4231 1450 3742 
Q 1025 3253 1025 2328 
Q 1025 1406 1450 917 
Q 1875 428 2675 428 
Q 3081 428 3442 575 
Q 3803 722 4122 1019 
L 4122 359 
Q 3791 134 3420 21 
Q 3050 -91 2638 -91 
Q 1578 -91 968 557 
Q 359 1206 359 2328 
Q 359 3453 968 4101 
Q 1578 4750 2638 4750 
Q 3056 4750 3426 4639 
Q 3797 4528 4122 4306 
z
" transform="scale(0.015625)"/>
       <path id="DejaVuSans-61" d="M 2194 1759 
Q 1497 1759 1228 1600 
Q 959 1441 959 1056 
Q 959 750 1161 570 
Q 1363 391 1709 391 
Q 2188 391 2477 730 
Q 2766 1069 2766 1631 
L 2766 1759 
L 2194 1759 
z
M 3341 1997 
L 3341 0 
L 2766 0 
L 2766 531 
Q 2569 213 2275 61 
Q 1981 -91 1556 -91 
Q 1019 -91 701 211 
Q 384 513 384 1019 
Q 384 1609 779 1909 
Q 1175 2209 1959 2209 
L 2766 2209 
L 2766 2266 
Q 2766 2663 2505 2880 
Q 2244 3097 1772 3097 
Q 1472 3097 1187 3025 
Q 903 2953 641 2809 
L 641 3341 
Q 956 3463 1253 3523 
Q 1550 3584 1831 3584 
Q 2591 3584 2966 3190 
Q 3341 2797 3341 1997 
z
" transform="scale(0.015625)"/>
       <path id="DejaVuSans-6e" d="M 3513 2113 
L 3513 0 
L 2938 0 
L 2938 2094 
Q 2938 2591 2744 2837 
Q 2550 3084 2163 3084 
Q 1697 3084 1428 2787 
Q 1159 2491 1159 1978 
L 1159 0 
L 581 0 
L 581 3500 
L 1159 3500 
L 1159 2956 
Q 1366 3272 1645 3428 
Q 1925 3584 2291 3584 
Q 2894 3584 3203 3211 
Q 3513 2838 3513 2113 
z
" transform="scale(0.015625)"/>
       <path id="DejaVuSans-64" d="M 2906 2969 
L 2906 4863 
L 3481 4863 
L 3481 0 
L 2906 0 
L 2906 525 
Q 2725 213 2448 61 
Q 2172 -91 1784 -91 
Q 1150 -91 751 415 
Q 353 922 353 1747 
Q 353 2572 751 3078 
Q 1150 3584 1784 3584 
Q 2172 3584 2448 3432 
Q 2725 3281 2906 2969 
z
M 947 1747 
Q 947 1113 1208 752 
Q 1469 391 1925 391 
Q 2381 391 2643 752 
Q 2906 1113 2906 1747 
Q 2906 2381 2643 2742 
Q 2381 3103 1925 3103 
Q 1469 3103 1208 2742 
Q 947 2381 947 1747 
z
" transform="scale(0.015625)"/>
       <path id="DejaVuSans-69" d="M 603 3500 
L 1178 3500 
L 1178 0 
L 603 0 
L 603 3500 
z
M 603 4863 
L 1178 4863 
L 1178 4134 
L 603 4134 
L 603 4863 
z
" transform="scale(0.015625)"/>
       <path id="DejaVuSans-74" d="M 1172 4494 
L 1172 3500 
L 2356 3500 
L 2356 3053 
L 1172 3053 
L 1172 1153 
Q 1172 725 1289 603 
Q 1406 481 1766 481 
L 2356 481 
L 2356 0 
L 1766 0 
Q 1100 0 847 248 
Q 594 497 594 1153 
L 594 3053 
L 172 3053 
L 172 3500 
L 594 3500 
L 594 4494 
L 1172 4494 
z
" transform="scale(0.015625)"/>
       <path id="DejaVuSans-65" d="M 3597 1894 
L 3597 1613 
L 953 1613 
Q 991 1019 1311 708 
Q 1631 397 2203 397 
Q 2534 397 2845 478 
Q 3156 559 3463 722 
L 3463 178 
Q 3153 47 2828 -22 
Q 2503 -91 2169 -91 
Q 1331 -91 842 396 
Q 353 884 353 1716 
Q 353 2575 817 3079 
Q 1281 3584 2069 3584 
Q 2775 3584 3186 3129 
Q 3597 2675 3597 1894 
z
M 3022 2063 
Q 3016 2534 2758 2815 
Q 2500 3097 2075 3097 
Q 1594 3097 1305 2825 
Q 1016 2553 972 2059 
L 3022 2063 
z
" transform="scale(0.015625)"/>
       <path id="DejaVuSans-20" transform="scale(0.015625)"/>
       <path id="DejaVuSans-70" d="M 1159 525 
L 1159 -1331 
L 581 -1331 
L 581 3500 
L 1159 3500 
L 1159 2969 
Q 1341 3281 1617 3432 
Q 1894 3584 2278 3584 
Q 2916 3584 3314 3078 
Q 3713 2572 3713 1747 
Q 3713 922 3314 415 
Q 2916 -91 2278 -91 
Q 1894 -91 1617 61 
Q 1341 213 1159 525 
z
M 3116 1747 
Q 3116 2381 2855 2742 
Q 2594 3103 2138 3103 
Q 1681 3103 1420 2742 
Q 1159 2381 1159 1747 
Q 1159 1113 1420 752 
Q 1681 391 2138 391 
Q 2594 391 2855 752 
Q 3116 1113 3116 1747 
z
" transform="scale(0.015625)"/>
       <path id="DejaVuSans-72" d="M 2631 2963 
Q 2534 3019 2420 3045 
Q 2306 3072 2169 3072 
Q 1681 3072 1420 2755 
Q 1159 2438 1159 1844 
L 1159 0 
L 581 0 
L 581 3500 
L 1159 3500 
L 1159 2956 
Q 1341 3275 1631 3429 
Q 1922 3584 2338 3584 
Q 2397 3584 2469 3576 
Q 2541 3569 2628 3553 
L 2631 2963 
z
" transform="scale(0.015625)"/>
       <path id="DejaVuSans-6d" d="M 3328 2828 
Q 3544 3216 3844 3400 
Q 4144 3584 4550 3584 
Q 5097 3584 5394 3201 
Q 5691 2819 5691 2113 
L 5691 0 
L 5113 0 
L 5113 2094 
Q 5113 2597 4934 2840 
Q 4756 3084 4391 3084 
Q 3944 3084 3684 2787 
Q 3425 2491 3425 1978 
L 3425 0 
L 2847 0 
L 2847 2094 
Q 2847 2600 2669 2842 
Q 2491 3084 2119 3084 
Q 1678 3084 1418 2786 
Q 1159 2488 1159 1978 
L 1159 0 
L 581 0 
L 581 3500 
L 1159 3500 
L 1159 2956 
Q 1356 3278 1631 3431 
Q 1906 3584 2284 3584 
Q 2666 3584 2933 3390 
Q 3200 3197 3328 2828 
z
" transform="scale(0.015625)"/>
       <path id="DejaVuSans-76" d="M 191 3500 
L 800 3500 
L 1894 563 
L 2988 3500 
L 3597 3500 
L 2284 0 
L 1503 0 
L 191 3500 
z
" transform="scale(0.015625)"/>
       <path id="DejaVuSans-6c" d="M 603 4863 
L 1178 4863 
L 1178 0 
L 603 0 
L 603 4863 
z
" transform="scale(0.015625)"/>
       <path id="DejaVuSans-75" d="M 544 1381 
L 544 3500 
L 1119 3500 
L 1119 1403 
Q 1119 906 1312 657 
Q 1506 409 1894 409 
Q 2359 409 2629 706 
Q 2900 1003 2900 1516 
L 2900 3500 
L 3475 3500 
L 3475 0 
L 2900 0 
L 2900 538 
Q 2691 219 2414 64 
Q 2138 -91 1772 -91 
Q 1169 -91 856 284 
Q 544 659 544 1381 
z
M 1991 3584 
L 1991 3584 
z
" transform="scale(0.015625)"/>
      </defs>
      <use xlink:href="#DejaVuSans-43"/>
      <use xlink:href="#DejaVuSans-61" transform="translate(69.824219 0)"/>
      <use xlink:href="#DejaVuSans-6e" transform="translate(131.103516 0)"/>
      <use xlink:href="#DejaVuSans-64" transform="translate(194.482422 0)"/>
      <use xlink:href="#DejaVuSans-69" transform="translate(257.958984 0)"/>
      <use xlink:href="#DejaVuSans-64" transform="translate(285.742188 0)"/>
      <use xlink:href="#DejaVuSans-61" transform="translate(349.21875 0)"/>
      <use xlink:href="#DejaVuSans-74" transform="translate(410.498047 0)"/>
      <use xlink:href="#DejaVuSans-65" transform="translate(449.707031 0)"/>
      <use xlink:href="#DejaVuSans-20" transform="translate(511.230469 0)"/>
      <use xlink:href="#DejaVuSans-70" transform="translate(543.017578 0)"/>
      <use xlink:href="#DejaVuSans-61" transform="translate(606.494141 0)"/>
      <use xlink:href="#DejaVuSans-72" transform="translate(667.773438 0)"/>
      <use xlink:href="#DejaVuSans-61" transform="translate(708.886719 0)"/>
      <use xlink:href="#DejaVuSans-6d" transform="translate(770.166016 0)"/>
      <use xlink:href="#DejaVuSans-65" transform="translate(867.578125 0)"/>
      <use xlink:href="#DejaVuSans-74" transform="translate(929.101562 0)"/>
      <use xlink:href="#DejaVuSans-65" transform="translate(968.310547 0)"/>
      <use xlink:href="#DejaVuSans-72" transform="translate(1029.833984 0)"/>
      <use xlink:href="#DejaVuSans-20" transform="translate(1070.947266 0)"/>
      <use xlink:href="#DejaVuSans-76" transform="translate(1102.734375 0)"/>
      <use xlink:href="#DejaVuSans-61" transform="translate(1161.914062 0)"/>
      <use xlink:href="#DejaVuSans-6c" transform="translate(1223.193359 0)"/>
      <use xlink:href="#DejaVuSans-75" transform="translate(1250.976562 0)"/>
      <use xlink:href="#DejaVuSans-65" transform="translate(1314.355469 0)"/>
     </g>
    </g>
   </g>
   <g id="matplotlib.axis_2">
    <g id="text_8">
     <!-- Consistency with the observed data -->
     <g style="fill: #1f2937" transform="translate(16.318125 256.69425) rotate(-90) scale(0.12 -0.12)">
      <defs>
       <path id="DejaVuSans-6f" d="M 1959 3097 
Q 1497 3097 1228 2736 
Q 959 2375 959 1747 
Q 959 1119 1226 758 
Q 1494 397 1959 397 
Q 2419 397 2687 759 
Q 2956 1122 2956 1747 
Q 2956 2369 2687 2733 
Q 2419 3097 1959 3097 
z
M 1959 3584 
Q 2709 3584 3137 3096 
Q 3566 2609 3566 1747 
Q 3566 888 3137 398 
Q 2709 -91 1959 -91 
Q 1206 -91 779 398 
Q 353 888 353 1747 
Q 353 2609 779 3096 
Q 1206 3584 1959 3584 
z
" transform="scale(0.015625)"/>
       <path id="DejaVuSans-73" d="M 2834 3397 
L 2834 2853 
Q 2591 2978 2328 3040 
Q 2066 3103 1784 3103 
Q 1356 3103 1142 2972 
Q 928 2841 928 2578 
Q 928 2378 1081 2264 
Q 1234 2150 1697 2047 
L 1894 2003 
Q 2506 1872 2764 1633 
Q 3022 1394 3022 966 
Q 3022 478 2636 193 
Q 2250 -91 1575 -91 
Q 1294 -91 989 -36 
Q 684 19 347 128 
L 347 722 
Q 666 556 975 473 
Q 1284 391 1588 391 
Q 1994 391 2212 530 
Q 2431 669 2431 922 
Q 2431 1156 2273 1281 
Q 2116 1406 1581 1522 
L 1381 1569 
Q 847 1681 609 1914 
Q 372 2147 372 2553 
Q 372 3047 722 3315 
Q 1072 3584 1716 3584 
Q 2034 3584 2315 3537 
Q 2597 3491 2834 3397 
z
" transform="scale(0.015625)"/>
       <path id="DejaVuSans-63" d="M 3122 3366 
L 3122 2828 
Q 2878 2963 2633 3030 
Q 2388 3097 2138 3097 
Q 1578 3097 1268 2742 
Q 959 2388 959 1747 
Q 959 1106 1268 751 
Q 1578 397 2138 397 
Q 2388 397 2633 464 
Q 2878 531 3122 666 
L 3122 134 
Q 2881 22 2623 -34 
Q 2366 -91 2075 -91 
Q 1284 -91 818 406 
Q 353 903 353 1747 
Q 353 2603 823 3093 
Q 1294 3584 2113 3584 
Q 2378 3584 2631 3529 
Q 2884 3475 3122 3366 
z
" transform="scale(0.015625)"/>
       <path id="DejaVuSans-79" d="M 2059 -325 
Q 1816 -950 1584 -1140 
Q 1353 -1331 966 -1331 
L 506 -1331 
L 506 -850 
L 844 -850 
Q 1081 -850 1212 -737 
Q 1344 -625 1503 -206 
L 1606 56 
L 191 3500 
L 800 3500 
L 1894 763 
L 2988 3500 
L 3597 3500 
L 2059 -325 
z
" transform="scale(0.015625)"/>
       <path id="DejaVuSans-77" d="M 269 3500 
L 844 3500 
L 1563 769 
L 2278 3500 
L 2956 3500 
L 3675 769 
L 4391 3500 
L 4966 3500 
L 4050 0 
L 3372 0 
L 2619 2869 
L 1863 0 
L 1184 0 
L 269 3500 
z
" transform="scale(0.015625)"/>
       <path id="DejaVuSans-68" d="M 3513 2113 
L 3513 0 
L 2938 0 
L 2938 2094 
Q 2938 2591 2744 2837 
Q 2550 3084 2163 3084 
Q 1697 3084 1428 2787 
Q 1159 2491 1159 1978 
L 1159 0 
L 581 0 
L 581 4863 
L 1159 4863 
L 1159 2956 
Q 1366 3272 1645 3428 
Q 1925 3584 2291 3584 
Q 2894 3584 3203 3211 
Q 3513 2838 3513 2113 
z
" transform="scale(0.015625)"/>
       <path id="DejaVuSans-62" d="M 3116 1747 
Q 3116 2381 2855 2742 
Q 2594 3103 2138 3103 
Q 1681 3103 1420 2742 
Q 1159 2381 1159 1747 
Q 1159 1113 1420 752 
Q 1681 391 2138 391 
Q 2594 391 2855 752 
Q 3116 1113 3116 1747 
z
M 1159 2969 
Q 1341 3281 1617 3432 
Q 1894 3584 2278 3584 
Q 2916 3584 3314 3078 
Q 3713 2572 3713 1747 
Q 3713 922 3314 415 
Q 2916 -91 2278 -91 
Q 1894 -91 1617 61 
Q 1341 213 1159 525 
L 1159 0 
L 581 0 
L 581 4863 
L 1159 4863 
L 1159 2969 
z
" transform="scale(0.015625)"/>
      </defs>
      <use xlink:href="#DejaVuSans-43"/>
      <use xlink:href="#DejaVuSans-6f" transform="translate(69.824219 0)"/>
      <use xlink:href="#DejaVuSans-6e" transform="translate(131.005859 0)"/>
      <use xlink:href="#DejaVuSans-73" transform="translate(194.384766 0)"/>
      <use xlink:href="#DejaVuSans-69" transform="translate(246.484375 0)"/>
      <use xlink:href="#DejaVuSans-73" transform="translate(274.267578 0)"/>
      <use xlink:href="#DejaVuSans-74" transform="translate(326.367188 0)"/>
      <use xlink:href="#DejaVuSans-65" transform="translate(365.576172 0)"/>
      <use xlink:href="#DejaVuSans-6e" transform="translate(427.099609 0)"/>
      <use xlink:href="#DejaVuSans-63" transform="translate(490.478516 0)"/>
      <use xlink:href="#DejaVuSans-79" transform="translate(545.458984 0)"/>
      <use xlink:href="#DejaVuSans-20" transform="translate(604.638672 0)"/>
      <use xlink:href="#DejaVuSans-77" transform="translate(636.425781 0)"/>
      <use xlink:href="#DejaVuSans-69" transform="translate(718.212891 0)"/>
      <use xlink:href="#DejaVuSans-74" transform="translate(745.996094 0)"/>
      <use xlink:href="#DejaVuSans-68" transform="translate(785.205078 0)"/>
      <use xlink:href="#DejaVuSans-20" transform="translate(848.583984 0)"/>
      <use xlink:href="#DejaVuSans-74" transform="translate(880.371094 0)"/>
      <use xlink:href="#DejaVuSans-68" transform="translate(919.580078 0)"/>
      <use xlink:href="#DejaVuSans-65" transform="translate(982.958984 0)"/>
      <use xlink:href="#DejaVuSans-20" transform="translate(1044.482422 0)"/>
      <use xlink:href="#DejaVuSans-6f" transform="translate(1076.269531 0)"/>
      <use xlink:href="#DejaVuSans-62" transform="translate(1137.451172 0)"/>
      <use xlink:href="#DejaVuSans-73" transform="translate(1200.927734 0)"/>
      <use xlink:href="#DejaVuSans-65" transform="translate(1253.027344 0)"/>
      <use xlink:href="#DejaVuSans-72" transform="translate(1314.550781 0)"/>
      <use xlink:href="#DejaVuSans-76" transform="translate(1355.664062 0)"/>
      <use xlink:href="#DejaVuSans-65" transform="translate(1414.84375 0)"/>
      <use xlink:href="#DejaVuSans-64" transform="translate(1476.367188 0)"/>
      <use xlink:href="#DejaVuSans-20" transform="translate(1539.84375 0)"/>
      <use xlink:href="#DejaVuSans-64" transform="translate(1571.630859 0)"/>
      <use xlink:href="#DejaVuSans-61" transform="translate(1635.107422 0)"/>
      <use xlink:href="#DejaVuSans-74" transform="translate(1696.386719 0)"/>
      <use xlink:href="#DejaVuSans-61" transform="translate(1735.595703 0)"/>
     </g>
    </g>
   </g>
   <g id="line2d_7">
    <path d="M 43.104659 262.262152 
L 69.077023 262.111579 
L 82.063205 261.83087 
L 90.991205 261.436198 
L 98.295932 260.902162 
L 104.789023 260.189757 
L 109.658841 259.456096 
L 114.528659 258.502985 
L 118.586841 257.503858 
L 122.645023 256.282221 
L 126.703205 254.800183 
L 129.94975 253.399379 
L 133.196295 251.782899 
L 136.442841 249.927082 
L 139.689386 247.807473 
L 142.935932 245.399157 
L 146.182477 242.677153 
L 149.429023 239.616884 
L 152.675568 236.194705 
L 155.922114 232.388503 
L 159.168659 228.178343 
L 162.415205 223.547163 
L 165.66175 218.481501 
L 168.908295 212.972237 
L 172.154841 207.015332 
L 175.401386 200.612537 
L 178.647932 193.772063 
L 182.706114 184.629955 
L 186.764295 174.874891 
L 190.822477 164.57287 
L 195.692295 151.610962 
L 202.185386 133.624981 
L 215.171568 97.408691 
L 220.041386 84.613806 
L 224.099568 74.630047 
L 227.346114 67.214976 
L 230.592659 60.403017 
L 233.027568 55.73959 
L 235.462477 51.494237 
L 237.897386 47.696896 
L 240.332295 44.374705 
L 242.767205 41.551682 
L 244.390477 39.957306 
L 246.01375 38.599226 
L 247.637023 37.481902 
L 249.260295 36.609015 
L 250.883568 35.98345 
L 252.506841 35.607279 
L 254.130114 35.48175 
L 255.753386 35.607279 
L 257.376659 35.98345 
L 258.999932 36.609015 
L 260.623205 37.481902 
L 262.246477 38.599226 
L 263.86975 39.957306 
L 265.493023 41.551682 
L 267.116295 43.377144 
L 269.551205 46.535451 
L 271.986114 50.177277 
L 274.421023 54.276487 
L 276.855932 58.804041 
L 279.290841 63.728328 
L 282.537386 70.852479 
L 285.783932 78.536637 
L 289.842114 88.793462 
L 294.711932 101.821249 
L 301.205023 119.906947 
L 312.567932 151.610962 
L 317.43775 164.57287 
L 322.307568 176.872059 
L 326.36575 186.509177 
L 330.423932 195.522505 
L 333.670477 202.254705 
L 336.917023 208.546534 
L 340.163568 214.391456 
L 343.410114 219.789229 
L 346.656659 224.745233 
L 349.903205 229.269743 
L 353.14975 233.37719 
L 356.396295 237.08542 
L 359.642841 240.414978 
L 362.889386 243.388418 
L 366.135932 246.029671 
L 369.382477 248.363464 
L 372.629023 250.414801 
L 375.875568 252.208517 
L 379.122114 253.768896 
L 382.368659 255.11936 
L 386.426841 256.546116 
L 390.485023 257.720336 
L 394.543205 258.679184 
L 399.413023 259.592323 
L 405.094477 260.393416 
L 411.587568 261.04197 
L 418.892295 261.525663 
L 427.820295 261.881024 
L 439.994841 262.122009 
L 448.922841 262.203532 
L 448.922841 262.203532 
" clip-path="url(#p7f7e9ec6b1)" style="fill: none; stroke: #2563eb; stroke-width: 3; stroke-linecap: square"/>
   </g>
   <g id="line2d_8">
    <path d="M 172.966477 273.62175 
L 172.966477 24.14175 
" clip-path="url(#p7f7e9ec6b1)" style="fill: none; stroke: #16a34a; stroke-width: 2; stroke-linecap: square"/>
   </g>
   <g id="line2d_9">
    <path d="M 335.29375 273.62175 
L 335.29375 24.14175 
" clip-path="url(#p7f7e9ec6b1)" style="fill: none; stroke: #16a34a; stroke-width: 2; stroke-linecap: square"/>
   </g>
   <g id="patch_3">
    <path d="M 22.81375 273.62175 
L 22.81375 24.14175 
" style="fill: none; stroke: #9aa4b2; stroke-width: 0.8; stroke-linejoin: miter; stroke-linecap: square"/>
   </g>
   <g id="patch_4">
    <path d="M 22.81375 273.62175 
L 469.21375 273.62175 
" style="fill: none; stroke: #9aa4b2; stroke-width: 0.8; stroke-linejoin: miter; stroke-linecap: square"/>
   </g>
   <g id="text_9">
    <!-- values not rejected -->
    <g style="fill: #166534" transform="translate(196.441051 124.104375) scale(0.12 -0.12)">
     <defs>
      <path id="DejaVuSans-6a" d="M 603 3500 
L 1178 3500 
L 1178 -63 
Q 1178 -731 923 -1031 
Q 669 -1331 103 -1331 
L -116 -1331 
L -116 -844 
L 38 -844 
Q 366 -844 484 -692 
Q 603 -541 603 -63 
L 603 3500 
z
M 603 4863 
L 1178 4863 
L 1178 4134 
L 603 4134 
L 603 4863 
z
" transform="scale(0.015625)"/>
     </defs>
     <use xlink:href="#DejaVuSans-76"/>
     <use xlink:href="#DejaVuSans-61" transform="translate(59.179688 0)"/>
     <use xlink:href="#DejaVuSans-6c" transform="translate(120.458984 0)"/>
     <use xlink:href="#DejaVuSans-75" transform="translate(148.242188 0)"/>
     <use xlink:href="#DejaVuSans-65" transform="translate(211.621094 0)"/>
     <use xlink:href="#DejaVuSans-73" transform="translate(273.144531 0)"/>
     <use xlink:href="#DejaVuSans-20" transform="translate(325.244141 0)"/>
     <use xlink:href="#DejaVuSans-6e" transform="translate(357.03125 0)"/>
     <use xlink:href="#DejaVuSans-6f" transform="translate(420.410156 0)"/>
     <use xlink:href="#DejaVuSans-74" transform="translate(481.591797 0)"/>
     <use xlink:href="#DejaVuSans-20" transform="translate(520.800781 0)"/>
     <use xlink:href="#DejaVuSans-72" transform="translate(552.587891 0)"/>
     <use xlink:href="#DejaVuSans-65" transform="translate(591.451172 0)"/>
     <use xlink:href="#DejaVuSans-6a" transform="translate(652.974609 0)"/>
     <use xlink:href="#DejaVuSans-65" transform="translate(680.757812 0)"/>
     <use xlink:href="#DejaVuSans-63" transform="translate(742.28125 0)"/>
     <use xlink:href="#DejaVuSans-74" transform="translate(797.261719 0)"/>
     <use xlink:href="#DejaVuSans-65" transform="translate(836.470703 0)"/>
     <use xlink:href="#DejaVuSans-64" transform="translate(897.994141 0)"/>
    </g>
    <!-- form the confidence interval -->
    <g style="fill: #166534" transform="translate(168.852301 137.54175) scale(0.12 -0.12)">
     <defs>
      <path id="DejaVuSans-66" d="M 2375 4863 
L 2375 4384 
L 1825 4384 
Q 1516 4384 1395 4259 
Q 1275 4134 1275 3809 
L 1275 3500 
L 2222 3500 
L 2222 3053 
L 1275 3053 
L 1275 0 
L 697 0 
L 697 3053 
L 147 3053 
L 147 3500 
L 697 3500 
L 697 3744 
Q 697 4328 969 4595 
Q 1241 4863 1831 4863 
L 2375 4863 
z
" transform="scale(0.015625)"/>
     </defs>
     <use xlink:href="#DejaVuSans-66"/>
     <use xlink:href="#DejaVuSans-6f" transform="translate(35.205078 0)"/>
     <use xlink:href="#DejaVuSans-72" transform="translate(96.386719 0)"/>
     <use xlink:href="#DejaVuSans-6d" transform="translate(135.75 0)"/>
     <use xlink:href="#DejaVuSans-20" transform="translate(233.162109 0)"/>
     <use xlink:href="#DejaVuSans-74" transform="translate(264.949219 0)"/>
     <use xlink:href="#DejaVuSans-68" transform="translate(304.158203 0)"/>
     <use xlink:href="#DejaVuSans-65" transform="translate(367.537109 0)"/>
     <use xlink:href="#DejaVuSans-20" transform="translate(429.060547 0)"/>
     <use xlink:href="#DejaVuSans-63" transform="translate(460.847656 0)"/>
     <use xlink:href="#DejaVuSans-6f" transform="translate(515.828125 0)"/>
     <use xlink:href="#DejaVuSans-6e" transform="translate(577.009766 0)"/>
     <use xlink:href="#DejaVuSans-66" transform="translate(640.388672 0)"/>
     <use xlink:href="#DejaVuSans-69" transform="translate(675.59375 0)"/>
     <use xlink:href="#DejaVuSans-64" transform="translate(703.376953 0)"/>
     <use xlink:href="#DejaVuSans-65" transform="translate(766.853516 0)"/>
     <use xlink:href="#DejaVuSans-6e" transform="translate(828.376953 0)"/>
     <use xlink:href="#DejaVuSans-63" transform="translate(891.755859 0)"/>
     <use xlink:href="#DejaVuSans-65" transform="translate(946.736328 0)"/>
     <use xlink:href="#DejaVuSans-20" transform="translate(1008.259766 0)"/>
     <use xlink:href="#DejaVuSans-69" transform="translate(1040.046875 0)"/>
     <use xlink:href="#DejaVuSans-6e" transform="translate(1067.830078 0)"/>
     <use xlink:href="#DejaVuSans-74" transform="translate(1131.208984 0)"/>
     <use xlink:href="#DejaVuSans-65" transform="translate(1170.417969 0)"/>
     <use xlink:href="#DejaVuSans-72" transform="translate(1231.941406 0)"/>
     <use xlink:href="#DejaVuSans-76" transform="translate(1273.054688 0)"/>
     <use xlink:href="#DejaVuSans-61" transform="translate(1332.234375 0)"/>
     <use xlink:href="#DejaVuSans-6c" transform="translate(1393.513672 0)"/>
    </g>
   </g>
   <g id="text_10">
    <!-- rejected -->
    <g style="fill: #991b1b" transform="translate(67.268466 225.99375) scale(0.12 -0.12)">
     <use xlink:href="#DejaVuSans-72"/>
     <use xlink:href="#DejaVuSans-65" transform="translate(38.863281 0)"/>
     <use xlink:href="#DejaVuSans-6a" transform="translate(100.386719 0)"/>
     <use xlink:href="#DejaVuSans-65" transform="translate(128.169922 0)"/>
     <use xlink:href="#DejaVuSans-63" transform="translate(189.693359 0)"/>
     <use xlink:href="#DejaVuSans-74" transform="translate(244.673828 0)"/>
     <use xlink:href="#DejaVuSans-65" transform="translate(283.882812 0)"/>
     <use xlink:href="#DejaVuSans-64" transform="translate(345.40625 0)"/>
    </g>
   </g>
   <g id="text_11">
    <!-- rejected -->
    <g style="fill: #991b1b" transform="translate(375.690284 225.99375) scale(0.12 -0.12)">
     <use xlink:href="#DejaVuSans-72"/>
     <use xlink:href="#DejaVuSans-65" transform="translate(38.863281 0)"/>
     <use xlink:href="#DejaVuSans-6a" transform="translate(100.386719 0)"/>
     <use xlink:href="#DejaVuSans-65" transform="translate(128.169922 0)"/>
     <use xlink:href="#DejaVuSans-63" transform="translate(189.693359 0)"/>
     <use xlink:href="#DejaVuSans-74" transform="translate(244.673828 0)"/>
     <use xlink:href="#DejaVuSans-65" transform="translate(283.882812 0)"/>
     <use xlink:href="#DejaVuSans-64" transform="translate(345.40625 0)"/>
    </g>
   </g>
   <g id="text_12">
    <!-- Inverting Tests to Get a Confidence Interval -->
    <g transform="translate(89.53075 18.14175) scale(0.144 -0.144)">
     <defs>
      <path id="DejaVuSans-49" d="M 628 4666 
L 1259 4666 
L 1259 0 
L 628 0 
L 628 4666 
z
" transform="scale(0.015625)"/>
      <path id="DejaVuSans-67" d="M 2906 1791 
Q 2906 2416 2648 2759 
Q 2391 3103 1925 3103 
Q 1463 3103 1205 2759 
Q 947 2416 947 1791 
Q 947 1169 1205 825 
Q 1463 481 1925 481 
Q 2391 481 2648 825 
Q 2906 1169 2906 1791 
z
M 3481 434 
Q 3481 -459 3084 -895 
Q 2688 -1331 1869 -1331 
Q 1566 -1331 1297 -1286 
Q 1028 -1241 775 -1147 
L 775 -588 
Q 1028 -725 1275 -790 
Q 1522 -856 1778 -856 
Q 2344 -856 2625 -561 
Q 2906 -266 2906 331 
L 2906 616 
Q 2728 306 2450 153 
Q 2172 0 1784 0 
Q 1141 0 747 490 
Q 353 981 353 1791 
Q 353 2603 747 3093 
Q 1141 3584 1784 3584 
Q 2172 3584 2450 3431 
Q 2728 3278 2906 2969 
L 2906 3500 
L 3481 3500 
L 3481 434 
z
" transform="scale(0.015625)"/>
      <path id="DejaVuSans-54" d="M -19 4666 
L 3928 4666 
L 3928 4134 
L 2272 4134 
L 2272 0 
L 1638 0 
L 1638 4134 
L -19 4134 
L -19 4666 
z
" transform="scale(0.015625)"/>
      <path id="DejaVuSans-47" d="M 3809 666 
L 3809 1919 
L 2778 1919 
L 2778 2438 
L 4434 2438 
L 4434 434 
Q 4069 175 3628 42 
Q 3188 -91 2688 -91 
Q 1594 -91 976 548 
Q 359 1188 359 2328 
Q 359 3472 976 4111 
Q 1594 4750 2688 4750 
Q 3144 4750 3555 4637 
Q 3966 4525 4313 4306 
L 4313 3634 
Q 3963 3931 3569 4081 
Q 3175 4231 2741 4231 
Q 1884 4231 1454 3753 
Q 1025 3275 1025 2328 
Q 1025 1384 1454 906 
Q 1884 428 2741 428 
Q 3075 428 3337 486 
Q 3600 544 3809 666 
z
" transform="scale(0.015625)"/>
     </defs>
     <use xlink:href="#DejaVuSans-49"/>
     <use xlink:href="#DejaVuSans-6e" transform="translate(29.492188 0)"/>
     <use xlink:href="#DejaVuSans-76" transform="translate(92.871094 0)"/>
     <use xlink:href="#DejaVuSans-65" transform="translate(152.050781 0)"/>
     <use xlink:href="#DejaVuSans-72" transform="translate(213.574219 0)"/>
     <use xlink:href="#DejaVuSans-74" transform="translate(254.6875 0)"/>
     <use xlink:href="#DejaVuSans-69" transform="translate(293.896484 0)"/>
     <use xlink:href="#DejaVuSans-6e" transform="translate(321.679688 0)"/>
     <use xlink:href="#DejaVuSans-67" transform="translate(385.058594 0)"/>
     <use xlink:href="#DejaVuSans-20" transform="translate(448.535156 0)"/>
     <use xlink:href="#DejaVuSans-54" transform="translate(480.322266 0)"/>
     <use xlink:href="#DejaVuSans-65" transform="translate(524.40625 0)"/>
     <use xlink:href="#DejaVuSans-73" transform="translate(585.929688 0)"/>
     <use xlink:href="#DejaVuSans-74" transform="translate(638.029297 0)"/>
     <use xlink:href="#DejaVuSans-73" transform="translate(677.238281 0)"/>
     <use xlink:href="#DejaVuSans-20" transform="translate(729.337891 0)"/>
     <use xlink:href="#DejaVuSans-74" transform="translate(761.125 0)"/>
     <use xlink:href="#DejaVuSans-6f" transform="translate(800.333984 0)"/>
     <use xlink:href="#DejaVuSans-20" transform="translate(861.515625 0)"/>
     <use xlink:href="#DejaVuSans-47" transform="translate(893.302734 0)"/>
     <use xlink:href="#DejaVuSans-65" transform="translate(970.792969 0)"/>
     <use xlink:href="#DejaVuSans-74" transform="translate(1032.316406 0)"/>
     <use xlink:href="#DejaVuSans-20" transform="translate(1071.525391 0)"/>
     <use xlink:href="#DejaVuSans-61" transform="translate(1103.3125 0)"/>
     <use xlink:href="#DejaVuSans-20" transform="translate(1164.591797 0)"/>
     <use xlink:href="#DejaVuSans-43" transform="translate(1196.378906 0)"/>
     <use xlink:href="#DejaVuSans-6f" transform="translate(1266.203125 0)"/>
     <use xlink:href="#DejaVuSans-6e" transform="translate(1327.384766 0)"/>
     <use xlink:href="#DejaVuSans-66" transform="translate(1390.763672 0)"/>
     <use xlink:href="#DejaVuSans-69" transform="translate(1425.96875 0)"/>
     <use xlink:href="#DejaVuSans-64" transform="translate(1453.751953 0)"/>
     <use xlink:href="#DejaVuSans-65" transform="translate(1517.228516 0)"/>
     <use xlink:href="#DejaVuSans-6e" transform="translate(1578.751953 0)"/>
     <use xlink:href="#DejaVuSans-63" transform="translate(1642.130859 0)"/>
     <use xlink:href="#DejaVuSans-65" transform="translate(1697.111328 0)"/>
     <use xlink:href="#DejaVuSans-20" transform="translate(1758.634766 0)"/>
     <use xlink:href="#DejaVuSans-49" transform="translate(1790.421875 0)"/>
     <use xlink:href="#DejaVuSans-6e" transform="translate(1819.914062 0)"/>
     <use xlink:href="#DejaVuSans-74" transform="translate(1883.292969 0)"/>
     <use xlink:href="#DejaVuSans-65" transform="translate(1922.501953 0)"/>
     <use xlink:href="#DejaVuSans-72" transform="translate(1984.025391 0)"/>
     <use xlink:href="#DejaVuSans-76" transform="translate(2025.138672 0)"/>
     <use xlink:href="#DejaVuSans-61" transform="translate(2084.318359 0)"/>
     <use xlink:href="#DejaVuSans-6c" transform="translate(2145.597656 0)"/>
    </g>
   </g>
  </g>
 </g>
 <defs>
  <clipPath id="p7f7e9ec6b1">
   <rect x="22.81375" y="24.14175" width="446.4" height="249.48"/>
  </clipPath>
 </defs>
</svg>
