<?xml version="1.0" encoding="utf-8" standalone="no"?>
<!DOCTYPE svg PUBLIC "-//W3C//DTD SVG 1.1//EN"
  "http://www.w3.org/Graphics/SVG/1.1/DTD/svg11.dtd">
<svg xmlns:xlink="http://www.w3.org/1999/xlink" width="527.76pt" height="214.737891pt" viewBox="0 0 527.76 214.737891" xmlns="http://www.w3.org/2000/svg" version="1.1">
 <metadata>
  <rdf:RDF xmlns:dc="http://purl.org/dc/elements/1.1/" xmlns:cc="http://creativecommons.org/ns#" xmlns:rdf="http://www.w3.org/1999/02/22-rdf-syntax-ns#">
   <cc:Work>
    <dc:type rdf:resource="http://purl.org/dc/dcmitype/StillImage"/>
    <dc:date>2026-05-27T00:47:16.055895</dc:date>
    <dc:format>image/svg+xml</dc:format>
    <dc:creator>
     <cc:Agent>
      <dc:title>Matplotlib v3.10.8, https://matplotlib.org/</dc:title>
     </cc:Agent>
    </dc:creator>
   </cc:Work>
  </rdf:RDF>
 </metadata>
 <defs>
  <style type="text/css">*{stroke-linejoin: round; stroke-linecap: butt}</style>
 </defs>
 <g id="figure_1">
  <g id="patch_1">
   <path d="M 0 214.737891 
L 527.76 214.737891 
L 527.76 0 
L 0 0 
z
" style="fill: #ffffff"/>
  </g>
  <g id="axes_1">
   <g id="patch_2">
    <path d="M 25.68096 134.357091 
L 122.19264 134.357091 
Q 133.48656 134.357091 133.48656 123.902691 
L 133.48656 91.589091 
Q 133.48656 81.134691 122.19264 81.134691 
L 25.68096 81.134691 
Q 14.38704 81.134691 14.38704 91.589091 
L 14.38704 123.902691 
Q 14.38704 134.357091 25.68096 134.357091 
z
" clip-path="url(#p958888090e)" style="fill: #d8e2f0; stroke: #3b6ea5; stroke-width: 1.6; stroke-linejoin: miter"/>
   </g>
   <g id="patch_3">
    <path d="M 134.973343 107.745891 
Q 154.791099 107.745891 172.372787 107.745891 
" clip-path="url(#p958888090e)" style="fill: none; stroke: #3b6ea5; stroke-width: 2; stroke-linecap: round"/>
    <path d="M 165.172787 104.145891 
L 172.372787 107.745891 
L 165.172787 111.345891 
z
" clip-path="url(#p958888090e)" style="fill: #3b6ea5; stroke: #3b6ea5; stroke-width: 2; stroke-linecap: round"/>
   </g>
   <g id="patch_4">
    <path d="M 187.38936 141.485091 
L 283.90104 141.485091 
Q 295.19496 141.485091 295.19496 131.030691 
L 295.19496 84.461091 
Q 295.19496 74.006691 283.90104 74.006691 
L 187.38936 74.006691 
Q 176.09544 74.006691 176.09544 84.461091 
L 176.09544 131.030691 
Q 176.09544 141.485091 187.38936 141.485091 
z
" clip-path="url(#p958888090e)" style="fill: #fcf3e3; stroke: #e0a92e; stroke-width: 1.6; stroke-linejoin: miter"/>
   </g>
   <g id="patch_5">
    <path d="M 295.474638 92.659509 
Q 330.104463 76.857424 362.700003 61.983612 
" clip-path="url(#p958888090e)" style="fill: none; stroke: #3b6ea5; stroke-width: 2; stroke-linecap: round"/>
    <path d="M 354.655246 61.697459 
L 362.700003 61.983612 
L 357.644227 68.247726 
z
" clip-path="url(#p958888090e)" style="fill: #3b6ea5; stroke: #3b6ea5; stroke-width: 2; stroke-linecap: round"/>
   </g>
   <g id="patch_6">
    <path d="M 374.76576 82.085091 
L 496.94544 82.085091 
Q 508.23936 82.085091 508.23936 71.630691 
L 508.23936 44.069091 
Q 508.23936 33.614691 496.94544 33.614691 
L 374.76576 33.614691 
Q 363.47184 33.614691 363.47184 44.069091 
L 363.47184 71.630691 
Q 363.47184 82.085091 374.76576 82.085091 
z
" clip-path="url(#p958888090e)" style="fill: #fbe3df; stroke: #b5462f; stroke-width: 1.6; stroke-linejoin: miter"/>
   </g>
   <g id="patch_7">
    <path d="M 295.474638 122.832272 
Q 330.104463 138.634357 362.700003 153.508169 
" clip-path="url(#p958888090e)" style="fill: none; stroke: #3b6ea5; stroke-width: 2; stroke-linecap: round"/>
    <path d="M 357.644227 147.244055 
L 362.700003 153.508169 
L 354.655246 153.794322 
z
" clip-path="url(#p958888090e)" style="fill: #3b6ea5; stroke: #3b6ea5; stroke-width: 2; stroke-linecap: round"/>
   </g>
   <g id="patch_8">
    <path d="M 374.76576 181.877091 
L 496.94544 181.877091 
Q 508.23936 181.877091 508.23936 171.422691 
L 508.23936 143.861091 
Q 508.23936 133.406691 496.94544 133.406691 
L 374.76576 133.406691 
Q 363.47184 133.406691 363.47184 143.861091 
L 363.47184 171.422691 
Q 363.47184 181.877091 374.76576 181.877091 
z
" clip-path="url(#p958888090e)" style="fill: #dceadd; stroke: #4a7c59; stroke-width: 1.6; stroke-linejoin: miter"/>
   </g>
   <g id="text_1">
    <!-- Compute the -->
    <g style="fill: #374151" transform="translate(33.989612 98.463609) scale(0.11 -0.11)">
     <defs>
      <path id="DejaVuSans-Bold-43" d="M 4288 256 
Q 3956 84 3597 -3 
Q 3238 -91 2847 -91 
Q 1681 -91 1000 561 
Q 319 1213 319 2328 
Q 319 3447 1000 4098 
Q 1681 4750 2847 4750 
Q 3238 4750 3597 4662 
Q 3956 4575 4288 4403 
L 4288 3438 
Q 3953 3666 3628 3772 
Q 3303 3878 2944 3878 
Q 2300 3878 1931 3465 
Q 1563 3053 1563 2328 
Q 1563 1606 1931 1193 
Q 2300 781 2944 781 
Q 3303 781 3628 887 
Q 3953 994 4288 1222 
L 4288 256 
z
" transform="scale(0.015625)"/>
      <path id="DejaVuSans-Bold-6f" d="M 2203 2784 
Q 1831 2784 1636 2517 
Q 1441 2250 1441 1747 
Q 1441 1244 1636 976 
Q 1831 709 2203 709 
Q 2569 709 2762 976 
Q 2956 1244 2956 1747 
Q 2956 2250 2762 2517 
Q 2569 2784 2203 2784 
z
M 2203 3584 
Q 3106 3584 3614 3096 
Q 4122 2609 4122 1747 
Q 4122 884 3614 396 
Q 3106 -91 2203 -91 
Q 1297 -91 786 396 
Q 275 884 275 1747 
Q 275 2609 786 3096 
Q 1297 3584 2203 3584 
z
" transform="scale(0.015625)"/>
      <path id="DejaVuSans-Bold-6d" d="M 3781 2919 
Q 3994 3244 4286 3414 
Q 4578 3584 4928 3584 
Q 5531 3584 5847 3212 
Q 6163 2841 6163 2131 
L 6163 0 
L 5038 0 
L 5038 1825 
Q 5041 1866 5042 1909 
Q 5044 1953 5044 2034 
Q 5044 2406 4934 2573 
Q 4825 2741 4581 2741 
Q 4263 2741 4089 2478 
Q 3916 2216 3909 1719 
L 3909 0 
L 2784 0 
L 2784 1825 
Q 2784 2406 2684 2573 
Q 2584 2741 2328 2741 
Q 2006 2741 1831 2477 
Q 1656 2213 1656 1722 
L 1656 0 
L 531 0 
L 531 3500 
L 1656 3500 
L 1656 2988 
Q 1863 3284 2130 3434 
Q 2397 3584 2719 3584 
Q 3081 3584 3359 3409 
Q 3638 3234 3781 2919 
z
" transform="scale(0.015625)"/>
      <path id="DejaVuSans-Bold-70" d="M 1656 506 
L 1656 -1331 
L 538 -1331 
L 538 3500 
L 1656 3500 
L 1656 2988 
Q 1888 3294 2169 3439 
Q 2450 3584 2816 3584 
Q 3463 3584 3878 3070 
Q 4294 2556 4294 1747 
Q 4294 938 3878 423 
Q 3463 -91 2816 -91 
Q 2450 -91 2169 54 
Q 1888 200 1656 506 
z
M 2400 2772 
Q 2041 2772 1848 2508 
Q 1656 2244 1656 1747 
Q 1656 1250 1848 986 
Q 2041 722 2400 722 
Q 2759 722 2948 984 
Q 3138 1247 3138 1747 
Q 3138 2247 2948 2509 
Q 2759 2772 2400 2772 
z
" transform="scale(0.015625)"/>
      <path id="DejaVuSans-Bold-75" d="M 500 1363 
L 500 3500 
L 1625 3500 
L 1625 3150 
Q 1625 2866 1622 2436 
Q 1619 2006 1619 1863 
Q 1619 1441 1641 1255 
Q 1663 1069 1716 984 
Q 1784 875 1895 815 
Q 2006 756 2150 756 
Q 2500 756 2700 1025 
Q 2900 1294 2900 1772 
L 2900 3500 
L 4019 3500 
L 4019 0 
L 2900 0 
L 2900 506 
Q 2647 200 2364 54 
Q 2081 -91 1741 -91 
Q 1134 -91 817 281 
Q 500 653 500 1363 
z
" transform="scale(0.015625)"/>
      <path id="DejaVuSans-Bold-74" d="M 1759 4494 
L 1759 3500 
L 2913 3500 
L 2913 2700 
L 1759 2700 
L 1759 1216 
Q 1759 972 1856 886 
Q 1953 800 2241 800 
L 2816 800 
L 2816 0 
L 1856 0 
Q 1194 0 917 276 
Q 641 553 641 1216 
L 641 2700 
L 84 2700 
L 84 3500 
L 641 3500 
L 641 4494 
L 1759 4494 
z
" transform="scale(0.015625)"/>
      <path id="DejaVuSans-Bold-65" d="M 4031 1759 
L 4031 1441 
L 1416 1441 
Q 1456 1047 1700 850 
Q 1944 653 2381 653 
Q 2734 653 3104 758 
Q 3475 863 3866 1075 
L 3866 213 
Q 3469 63 3072 -14 
Q 2675 -91 2278 -91 
Q 1328 -91 801 392 
Q 275 875 275 1747 
Q 275 2603 792 3093 
Q 1309 3584 2216 3584 
Q 3041 3584 3536 3087 
Q 4031 2591 4031 1759 
z
M 2881 2131 
Q 2881 2450 2695 2645 
Q 2509 2841 2209 2841 
Q 1884 2841 1681 2658 
Q 1478 2475 1428 2131 
L 2881 2131 
z
" transform="scale(0.015625)"/>
      <path id="DejaVuSans-Bold-20" transform="scale(0.015625)"/>
      <path id="DejaVuSans-Bold-68" d="M 4056 2131 
L 4056 0 
L 2931 0 
L 2931 347 
L 2931 1625 
Q 2931 2084 2911 2256 
Q 2891 2428 2841 2509 
Q 2775 2619 2662 2680 
Q 2550 2741 2406 2741 
Q 2056 2741 1856 2470 
Q 1656 2200 1656 1722 
L 1656 0 
L 538 0 
L 538 4863 
L 1656 4863 
L 1656 2988 
Q 1909 3294 2193 3439 
Q 2478 3584 2822 3584 
Q 3428 3584 3742 3212 
Q 4056 2841 4056 2131 
z
" transform="scale(0.015625)"/>
     </defs>
     <use xlink:href="#DejaVuSans-Bold-43"/>
     <use xlink:href="#DejaVuSans-Bold-6f" transform="translate(73.388672 0)"/>
     <use xlink:href="#DejaVuSans-Bold-6d" transform="translate(142.089844 0)"/>
     <use xlink:href="#DejaVuSans-Bold-70" transform="translate(246.289062 0)"/>
     <use xlink:href="#DejaVuSans-Bold-75" transform="translate(317.871094 0)"/>
     <use xlink:href="#DejaVuSans-Bold-74" transform="translate(389.0625 0)"/>
     <use xlink:href="#DejaVuSans-Bold-65" transform="translate(436.865234 0)"/>
     <use xlink:href="#DejaVuSans-Bold-20" transform="translate(504.6875 0)"/>
     <use xlink:href="#DejaVuSans-Bold-74" transform="translate(539.501953 0)"/>
     <use xlink:href="#DejaVuSans-Bold-68" transform="translate(587.304688 0)"/>
     <use xlink:href="#DejaVuSans-Bold-65" transform="translate(658.496094 0)"/>
    </g>
    <!-- p-value -->
    <g style="fill: #374151" transform="translate(50.889222 110.781203) scale(0.11 -0.11)">
     <defs>
      <path id="DejaVuSans-Bold-2d" d="M 347 2297 
L 2309 2297 
L 2309 1388 
L 347 1388 
L 347 2297 
z
" transform="scale(0.015625)"/>
      <path id="DejaVuSans-Bold-76" d="M 97 3500 
L 1216 3500 
L 2088 1081 
L 2956 3500 
L 4078 3500 
L 2700 0 
L 1472 0 
L 97 3500 
z
" transform="scale(0.015625)"/>
      <path id="DejaVuSans-Bold-61" d="M 2106 1575 
Q 1756 1575 1579 1456 
Q 1403 1338 1403 1106 
Q 1403 894 1545 773 
Q 1688 653 1941 653 
Q 2256 653 2472 879 
Q 2688 1106 2688 1447 
L 2688 1575 
L 2106 1575 
z
M 3816 1997 
L 3816 0 
L 2688 0 
L 2688 519 
Q 2463 200 2181 54 
Q 1900 -91 1497 -91 
Q 953 -91 614 226 
Q 275 544 275 1050 
Q 275 1666 698 1953 
Q 1122 2241 2028 2241 
L 2688 2241 
L 2688 2328 
Q 2688 2594 2478 2717 
Q 2269 2841 1825 2841 
Q 1466 2841 1156 2769 
Q 847 2697 581 2553 
L 581 3406 
Q 941 3494 1303 3539 
Q 1666 3584 2028 3584 
Q 2975 3584 3395 3211 
Q 3816 2838 3816 1997 
z
" transform="scale(0.015625)"/>
      <path id="DejaVuSans-Bold-6c" d="M 538 4863 
L 1656 4863 
L 1656 0 
L 538 0 
L 538 4863 
z
" transform="scale(0.015625)"/>
     </defs>
     <use xlink:href="#DejaVuSans-Bold-70"/>
     <use xlink:href="#DejaVuSans-Bold-2d" transform="translate(71.582031 0)"/>
     <use xlink:href="#DejaVuSans-Bold-76" transform="translate(113.085938 0)"/>
     <use xlink:href="#DejaVuSans-Bold-61" transform="translate(178.271484 0)"/>
     <use xlink:href="#DejaVuSans-Bold-6c" transform="translate(245.751953 0)"/>
     <use xlink:href="#DejaVuSans-Bold-75" transform="translate(280.029297 0)"/>
     <use xlink:href="#DejaVuSans-Bold-65" transform="translate(351.220703 0)"/>
    </g>
    <!-- under $H_0$ -->
    <g style="fill: #374151" transform="translate(47.0418 123.098797) scale(0.11 -0.11)">
     <defs>
      <path id="DejaVuSans-Bold-6e" d="M 4056 2131 
L 4056 0 
L 2931 0 
L 2931 347 
L 2931 1631 
Q 2931 2084 2911 2256 
Q 2891 2428 2841 2509 
Q 2775 2619 2662 2680 
Q 2550 2741 2406 2741 
Q 2056 2741 1856 2470 
Q 1656 2200 1656 1722 
L 1656 0 
L 538 0 
L 538 3500 
L 1656 3500 
L 1656 2988 
Q 1909 3294 2193 3439 
Q 2478 3584 2822 3584 
Q 3428 3584 3742 3212 
Q 4056 2841 4056 2131 
z
" transform="scale(0.015625)"/>
      <path id="DejaVuSans-Bold-64" d="M 2919 2988 
L 2919 4863 
L 4044 4863 
L 4044 0 
L 2919 0 
L 2919 506 
Q 2688 197 2409 53 
Q 2131 -91 1766 -91 
Q 1119 -91 703 423 
Q 288 938 288 1747 
Q 288 2556 703 3070 
Q 1119 3584 1766 3584 
Q 2128 3584 2408 3439 
Q 2688 3294 2919 2988 
z
M 2181 722 
Q 2541 722 2730 984 
Q 2919 1247 2919 1747 
Q 2919 2247 2730 2509 
Q 2541 2772 2181 2772 
Q 1825 2772 1636 2509 
Q 1447 2247 1447 1747 
Q 1447 1247 1636 984 
Q 1825 722 2181 722 
z
" transform="scale(0.015625)"/>
      <path id="DejaVuSans-Bold-72" d="M 3138 2547 
Q 2991 2616 2845 2648 
Q 2700 2681 2553 2681 
Q 2122 2681 1889 2404 
Q 1656 2128 1656 1613 
L 1656 0 
L 538 0 
L 538 3500 
L 1656 3500 
L 1656 2925 
Q 1872 3269 2151 3426 
Q 2431 3584 2822 3584 
Q 2878 3584 2943 3579 
Q 3009 3575 3134 3559 
L 3138 2547 
z
" transform="scale(0.015625)"/>
      <path id="DejaVuSans-Oblique-48" d="M 1081 4666 
L 1716 4666 
L 1344 2753 
L 3634 2753 
L 4006 4666 
L 4641 4666 
L 3731 0 
L 3097 0 
L 3531 2222 
L 1241 2222 
L 806 0 
L 172 0 
L 1081 4666 
z
" transform="scale(0.015625)"/>
      <path id="DejaVuSans-30" d="M 2034 4250 
Q 1547 4250 1301 3770 
Q 1056 3291 1056 2328 
Q 1056 1369 1301 889 
Q 1547 409 2034 409 
Q 2525 409 2770 889 
Q 3016 1369 3016 2328 
Q 3016 3291 2770 3770 
Q 2525 4250 2034 4250 
z
M 2034 4750 
Q 2819 4750 3233 4129 
Q 3647 3509 3647 2328 
Q 3647 1150 3233 529 
Q 2819 -91 2034 -91 
Q 1250 -91 836 529 
Q 422 1150 422 2328 
Q 422 3509 836 4129 
Q 1250 4750 2034 4750 
z
" transform="scale(0.015625)"/>
     </defs>
     <use xlink:href="#DejaVuSans-Bold-75" transform="translate(0 0.015625)"/>
     <use xlink:href="#DejaVuSans-Bold-6e" transform="translate(71.191406 0.015625)"/>
     <use xlink:href="#DejaVuSans-Bold-64" transform="translate(142.382812 0.015625)"/>
     <use xlink:href="#DejaVuSans-Bold-65" transform="translate(213.964844 0.015625)"/>
     <use xlink:href="#DejaVuSans-Bold-72" transform="translate(281.787109 0.015625)"/>
     <use xlink:href="#DejaVuSans-Bold-20" transform="translate(331.103516 0.015625)"/>
     <use xlink:href="#DejaVuSans-Oblique-48" transform="translate(365.917969 0.015625)"/>
     <use xlink:href="#DejaVuSans-30" transform="translate(441.113281 -16.390625) scale(0.7)"/>
    </g>
   </g>
   <g id="text_2">
    <!-- Is -->
    <g style="fill: #374151" transform="translate(230.325669 104.610203) scale(0.11 -0.11)">
     <defs>
      <path id="DejaVuSans-Bold-49" d="M 588 4666 
L 1791 4666 
L 1791 0 
L 588 0 
L 588 4666 
z
" transform="scale(0.015625)"/>
      <path id="DejaVuSans-Bold-73" d="M 3272 3391 
L 3272 2541 
Q 2913 2691 2578 2766 
Q 2244 2841 1947 2841 
Q 1628 2841 1473 2761 
Q 1319 2681 1319 2516 
Q 1319 2381 1436 2309 
Q 1553 2238 1856 2203 
L 2053 2175 
Q 2913 2066 3209 1816 
Q 3506 1566 3506 1031 
Q 3506 472 3093 190 
Q 2681 -91 1863 -91 
Q 1516 -91 1145 -36 
Q 775 19 384 128 
L 384 978 
Q 719 816 1070 734 
Q 1422 653 1784 653 
Q 2113 653 2278 743 
Q 2444 834 2444 1013 
Q 2444 1163 2330 1236 
Q 2216 1309 1875 1350 
L 1678 1375 
Q 931 1469 631 1722 
Q 331 1975 331 2491 
Q 331 3047 712 3315 
Q 1094 3584 1881 3584 
Q 2191 3584 2531 3537 
Q 2872 3491 3272 3391 
z
" transform="scale(0.015625)"/>
     </defs>
     <use xlink:href="#DejaVuSans-Bold-49"/>
     <use xlink:href="#DejaVuSans-Bold-73" transform="translate(37.207031 0)"/>
    </g>
    <!-- p-value $\leq \alpha$ ? -->
    <g style="fill: #374151" transform="translate(195.1652 116.929859) scale(0.11 -0.11)">
     <defs>
      <path id="DejaVuSans-2264" d="M 4684 3175 
L 1684 2309 
L 4684 1453 
L 4684 897 
L 678 2047 
L 678 2578 
L 4684 3725 
L 4684 3175 
z
M 678 531 
L 4684 531 
L 4684 0 
L 678 0 
L 678 531 
z
" transform="scale(0.015625)"/>
      <path id="DejaVuSans-Oblique-3b1" d="M 2619 1628 
L 2622 2350 
Q 2625 3088 2069 3091 
Q 1653 3094 1394 2747 
Q 1069 2319 959 1747 
Q 825 1059 994 731 
Q 1169 397 1547 397 
Q 1966 397 2319 1063 
L 2619 1628 
z
M 2166 3578 
Q 3141 3594 3128 2584 
Q 3128 2584 3616 3500 
L 4128 3500 
L 3119 1603 
L 3109 919 
Q 3109 766 3194 638 
Q 3291 488 3391 488 
L 3669 488 
L 3575 0 
L 3228 0 
Q 2934 0 2722 263 
Q 2622 394 2619 669 
Q 2416 334 2066 50 
Q 1900 -81 1453 -78 
Q 722 -72 456 397 
Q 184 884 353 1747 
Q 534 2675 1009 3097 
Q 1544 3569 2166 3578 
z
" transform="scale(0.015625)"/>
      <path id="DejaVuSans-Bold-3f" d="M 2216 1575 
L 1088 1575 
L 1088 1728 
Q 1088 1984 1191 2182 
Q 1294 2381 1625 2688 
L 1825 2869 
Q 2003 3031 2086 3175 
Q 2169 3319 2169 3463 
Q 2169 3681 2019 3804 
Q 1869 3928 1600 3928 
Q 1347 3928 1053 3823 
Q 759 3719 441 3513 
L 441 4494 
Q 819 4625 1131 4687 
Q 1444 4750 1734 4750 
Q 2497 4750 2897 4439 
Q 3297 4128 3297 3531 
Q 3297 3225 3175 2983 
Q 3053 2741 2759 2463 
L 2559 2284 
Q 2347 2091 2281 1973 
Q 2216 1856 2216 1716 
L 2216 1575 
z
M 1088 1113 
L 2216 1113 
L 2216 0 
L 1088 0 
L 1088 1113 
z
" transform="scale(0.015625)"/>
     </defs>
     <use xlink:href="#DejaVuSans-Bold-70" transform="translate(0 0.015625)"/>
     <use xlink:href="#DejaVuSans-Bold-2d" transform="translate(71.582031 0.015625)"/>
     <use xlink:href="#DejaVuSans-Bold-76" transform="translate(113.085938 0.015625)"/>
     <use xlink:href="#DejaVuSans-Bold-61" transform="translate(178.271484 0.015625)"/>
     <use xlink:href="#DejaVuSans-Bold-6c" transform="translate(245.751953 0.015625)"/>
     <use xlink:href="#DejaVuSans-Bold-75" transform="translate(280.029297 0.015625)"/>
     <use xlink:href="#DejaVuSans-Bold-65" transform="translate(351.220703 0.015625)"/>
     <use xlink:href="#DejaVuSans-Bold-20" transform="translate(419.042969 0.015625)"/>
     <use xlink:href="#DejaVuSans-2264" transform="translate(473.339844 0.015625)"/>
     <use xlink:href="#DejaVuSans-Oblique-3b1" transform="translate(576.611328 0.015625)"/>
     <use xlink:href="#DejaVuSans-Bold-20" transform="translate(642.529297 0.015625)"/>
     <use xlink:href="#DejaVuSans-Bold-3f" transform="translate(677.34375 0.015625)"/>
    </g>
   </g>
   <g id="text_3">
    <!-- Yes -->
    <g style="fill: #991b1b" transform="translate(320.3496 62.601891) scale(0.1 -0.1)">
     <defs>
      <path id="DejaVuSans-Bold-59" d="M -63 4666 
L 1253 4666 
L 2316 3003 
L 3378 4666 
L 4697 4666 
L 2919 1966 
L 2919 0 
L 1716 0 
L 1716 1966 
L -63 4666 
z
" transform="scale(0.015625)"/>
     </defs>
     <use xlink:href="#DejaVuSans-Bold-59"/>
     <use xlink:href="#DejaVuSans-Bold-65" transform="translate(63.287109 0)"/>
     <use xlink:href="#DejaVuSans-Bold-73" transform="translate(131.109375 0)"/>
    </g>
   </g>
   <g id="text_4">
    <!-- Reject $H_0$ -->
    <g style="fill: #9a2f1c" transform="translate(407.6956 54.661094) scale(0.11 -0.11)">
     <defs>
      <path id="DejaVuSans-Bold-52" d="M 2297 2597 
Q 2675 2597 2839 2737 
Q 3003 2878 3003 3200 
Q 3003 3519 2839 3656 
Q 2675 3794 2297 3794 
L 1791 3794 
L 1791 2597 
L 2297 2597 
z
M 1791 1766 
L 1791 0 
L 588 0 
L 588 4666 
L 2425 4666 
Q 3347 4666 3776 4356 
Q 4206 4047 4206 3378 
Q 4206 2916 3982 2619 
Q 3759 2322 3309 2181 
Q 3556 2125 3751 1926 
Q 3947 1728 4147 1325 
L 4800 0 
L 3519 0 
L 2950 1159 
Q 2778 1509 2601 1637 
Q 2425 1766 2131 1766 
L 1791 1766 
z
" transform="scale(0.015625)"/>
      <path id="DejaVuSans-Bold-6a" d="M 538 3500 
L 1656 3500 
L 1656 63 
Q 1656 -641 1318 -1011 
Q 981 -1381 341 -1381 
L -213 -1381 
L -213 -647 
L -19 -647 
Q 300 -647 419 -503 
Q 538 -359 538 63 
L 538 3500 
z
M 538 4863 
L 1656 4863 
L 1656 3950 
L 538 3950 
L 538 4863 
z
" transform="scale(0.015625)"/>
      <path id="DejaVuSans-Bold-63" d="M 3366 3391 
L 3366 2478 
Q 3138 2634 2908 2709 
Q 2678 2784 2431 2784 
Q 1963 2784 1702 2511 
Q 1441 2238 1441 1747 
Q 1441 1256 1702 982 
Q 1963 709 2431 709 
Q 2694 709 2930 787 
Q 3166 866 3366 1019 
L 3366 103 
Q 3103 6 2833 -42 
Q 2563 -91 2291 -91 
Q 1344 -91 809 395 
Q 275 881 275 1747 
Q 275 2613 809 3098 
Q 1344 3584 2291 3584 
Q 2566 3584 2833 3536 
Q 3100 3488 3366 3391 
z
" transform="scale(0.015625)"/>
     </defs>
     <use xlink:href="#DejaVuSans-Bold-52" transform="translate(0 0.015625)"/>
     <use xlink:href="#DejaVuSans-Bold-65" transform="translate(77.001953 0.015625)"/>
     <use xlink:href="#DejaVuSans-Bold-6a" transform="translate(144.824219 0.015625)"/>
     <use xlink:href="#DejaVuSans-Bold-65" transform="translate(179.101562 0.015625)"/>
     <use xlink:href="#DejaVuSans-Bold-63" transform="translate(246.923828 0.015625)"/>
     <use xlink:href="#DejaVuSans-Bold-74" transform="translate(306.201172 0.015625)"/>
     <use xlink:href="#DejaVuSans-Bold-20" transform="translate(354.003906 0.015625)"/>
     <use xlink:href="#DejaVuSans-Oblique-48" transform="translate(388.818359 0.015625)"/>
     <use xlink:href="#DejaVuSans-30" transform="translate(464.013672 -16.390625) scale(0.7)"/>
    </g>
    <!-- (evidence for $H_a$) -->
    <g style="fill: #9a2f1c" transform="translate(383.6606 67.111031) scale(0.11 -0.11)">
     <defs>
      <path id="DejaVuSans-Bold-28" d="M 2413 -844 
L 1484 -844 
Q 1006 -72 778 623 
Q 550 1319 550 2003 
Q 550 2688 779 3389 
Q 1009 4091 1484 4856 
L 2413 4856 
Q 2013 4116 1813 3408 
Q 1613 2700 1613 2009 
Q 1613 1319 1811 609 
Q 2009 -100 2413 -844 
z
" transform="scale(0.015625)"/>
      <path id="DejaVuSans-Bold-69" d="M 538 3500 
L 1656 3500 
L 1656 0 
L 538 0 
L 538 3500 
z
M 538 4863 
L 1656 4863 
L 1656 3950 
L 538 3950 
L 538 4863 
z
" transform="scale(0.015625)"/>
      <path id="DejaVuSans-Bold-66" d="M 2841 4863 
L 2841 4128 
L 2222 4128 
Q 1984 4128 1890 4042 
Q 1797 3956 1797 3744 
L 1797 3500 
L 2753 3500 
L 2753 2700 
L 1797 2700 
L 1797 0 
L 678 0 
L 678 2700 
L 122 2700 
L 122 3500 
L 678 3500 
L 678 3744 
Q 678 4316 997 4589 
Q 1316 4863 1984 4863 
L 2841 4863 
z
" transform="scale(0.015625)"/>
      <path id="DejaVuSans-Oblique-61" d="M 3438 1997 
L 3047 0 
L 2472 0 
L 2578 531 
Q 2325 219 2001 64 
Q 1678 -91 1281 -91 
Q 834 -91 548 182 
Q 263 456 263 884 
Q 263 1497 752 1853 
Q 1241 2209 2100 2209 
L 2900 2209 
L 2931 2363 
Q 2938 2388 2941 2417 
Q 2944 2447 2944 2509 
Q 2944 2788 2717 2942 
Q 2491 3097 2081 3097 
Q 1800 3097 1504 3025 
Q 1209 2953 897 2809 
L 997 3341 
Q 1322 3463 1633 3523 
Q 1944 3584 2234 3584 
Q 2853 3584 3176 3315 
Q 3500 3047 3500 2534 
Q 3500 2431 3484 2292 
Q 3469 2153 3438 1997 
z
M 2816 1759 
L 2241 1759 
Q 1534 1759 1195 1570 
Q 856 1381 856 984 
Q 856 709 1029 553 
Q 1203 397 1509 397 
Q 1978 397 2328 733 
Q 2678 1069 2791 1631 
L 2816 1759 
z
" transform="scale(0.015625)"/>
      <path id="DejaVuSans-Bold-29" d="M 513 -844 
Q 913 -100 1113 609 
Q 1313 1319 1313 2009 
Q 1313 2700 1113 3408 
Q 913 4116 513 4856 
L 1441 4856 
Q 1916 4091 2145 3389 
Q 2375 2688 2375 2003 
Q 2375 1319 2147 623 
Q 1919 -72 1441 -844 
L 513 -844 
z
" transform="scale(0.015625)"/>
     </defs>
     <use xlink:href="#DejaVuSans-Bold-28" transform="translate(0 0.015625)"/>
     <use xlink:href="#DejaVuSans-Bold-65" transform="translate(45.703125 0.015625)"/>
     <use xlink:href="#DejaVuSans-Bold-76" transform="translate(113.525391 0.015625)"/>
     <use xlink:href="#DejaVuSans-Bold-69" transform="translate(178.710938 0.015625)"/>
     <use xlink:href="#DejaVuSans-Bold-64" transform="translate(212.988281 0.015625)"/>
     <use xlink:href="#DejaVuSans-Bold-65" transform="translate(284.570312 0.015625)"/>
     <use xlink:href="#DejaVuSans-Bold-6e" transform="translate(352.392578 0.015625)"/>
     <use xlink:href="#DejaVuSans-Bold-63" transform="translate(423.583984 0.015625)"/>
     <use xlink:href="#DejaVuSans-Bold-65" transform="translate(482.861328 0.015625)"/>
     <use xlink:href="#DejaVuSans-Bold-20" transform="translate(550.683594 0.015625)"/>
     <use xlink:href="#DejaVuSans-Bold-66" transform="translate(585.498047 0.015625)"/>
     <use xlink:href="#DejaVuSans-Bold-6f" transform="translate(629.003906 0.015625)"/>
     <use xlink:href="#DejaVuSans-Bold-72" transform="translate(697.705078 0.015625)"/>
     <use xlink:href="#DejaVuSans-Bold-20" transform="translate(747.021484 0.015625)"/>
     <use xlink:href="#DejaVuSans-Oblique-48" transform="translate(781.835938 0.015625)"/>
     <use xlink:href="#DejaVuSans-Oblique-61" transform="translate(857.03125 -16.390625) scale(0.7)"/>
     <use xlink:href="#DejaVuSans-Bold-29" transform="translate(902.661133 0.015625)"/>
    </g>
   </g>
   <g id="text_5">
    <!-- No -->
    <g style="fill: #4a7c59" transform="translate(320.3496 150.513891) scale(0.1 -0.1)">
     <defs>
      <path id="DejaVuSans-Bold-4e" d="M 588 4666 
L 1931 4666 
L 3628 1466 
L 3628 4666 
L 4769 4666 
L 4769 0 
L 3425 0 
L 1728 3200 
L 1728 0 
L 588 0 
L 588 4666 
z
" transform="scale(0.015625)"/>
     </defs>
     <use xlink:href="#DejaVuSans-Bold-4e"/>
     <use xlink:href="#DejaVuSans-Bold-6f" transform="translate(83.691406 0)"/>
    </g>
   </g>
   <g id="text_6">
    <!-- Fail to reject $H_0$ -->
    <g style="fill: #2f5d3a" transform="translate(387.7306 160.611891) scale(0.11 -0.11)">
     <defs>
      <path id="DejaVuSans-Bold-46" d="M 588 4666 
L 3834 4666 
L 3834 3756 
L 1791 3756 
L 1791 2888 
L 3713 2888 
L 3713 1978 
L 1791 1978 
L 1791 0 
L 588 0 
L 588 4666 
z
" transform="scale(0.015625)"/>
     </defs>
     <use xlink:href="#DejaVuSans-Bold-46" transform="translate(0 0.015625)"/>
     <use xlink:href="#DejaVuSans-Bold-61" transform="translate(68.310547 0.015625)"/>
     <use xlink:href="#DejaVuSans-Bold-69" transform="translate(135.791016 0.015625)"/>
     <use xlink:href="#DejaVuSans-Bold-6c" transform="translate(170.068359 0.015625)"/>
     <use xlink:href="#DejaVuSans-Bold-20" transform="translate(204.345703 0.015625)"/>
     <use xlink:href="#DejaVuSans-Bold-74" transform="translate(239.160156 0.015625)"/>
     <use xlink:href="#DejaVuSans-Bold-6f" transform="translate(286.962891 0.015625)"/>
     <use xlink:href="#DejaVuSans-Bold-20" transform="translate(355.664062 0.015625)"/>
     <use xlink:href="#DejaVuSans-Bold-72" transform="translate(390.478516 0.015625)"/>
     <use xlink:href="#DejaVuSans-Bold-65" transform="translate(439.794922 0.015625)"/>
     <use xlink:href="#DejaVuSans-Bold-6a" transform="translate(507.617188 0.015625)"/>
     <use xlink:href="#DejaVuSans-Bold-65" transform="translate(541.894531 0.015625)"/>
     <use xlink:href="#DejaVuSans-Bold-63" transform="translate(609.716797 0.015625)"/>
     <use xlink:href="#DejaVuSans-Bold-74" transform="translate(668.994141 0.015625)"/>
     <use xlink:href="#DejaVuSans-Bold-20" transform="translate(716.796875 0.015625)"/>
     <use xlink:href="#DejaVuSans-Oblique-48" transform="translate(751.611328 0.015625)"/>
     <use xlink:href="#DejaVuSans-30" transform="translate(826.806641 -16.390625) scale(0.7)"/>
    </g>
   </g>
   <g id="text_7">
    <!-- The p-value decision rule -->
    <g style="fill: #374151" transform="translate(168.031055 17.457891) scale(0.135 -0.135)">
     <defs>
      <path id="DejaVuSans-Bold-54" d="M 31 4666 
L 4331 4666 
L 4331 3756 
L 2784 3756 
L 2784 0 
L 1581 0 
L 1581 3756 
L 31 3756 
L 31 4666 
z
" transform="scale(0.015625)"/>
     </defs>
     <use xlink:href="#DejaVuSans-Bold-54"/>
     <use xlink:href="#DejaVuSans-Bold-68" transform="translate(68.212891 0)"/>
     <use xlink:href="#DejaVuSans-Bold-65" transform="translate(139.404297 0)"/>
     <use xlink:href="#DejaVuSans-Bold-20" transform="translate(207.226562 0)"/>
     <use xlink:href="#DejaVuSans-Bold-70" transform="translate(242.041016 0)"/>
     <use xlink:href="#DejaVuSans-Bold-2d" transform="translate(313.623047 0)"/>
     <use xlink:href="#DejaVuSans-Bold-76" transform="translate(355.126953 0)"/>
     <use xlink:href="#DejaVuSans-Bold-61" transform="translate(420.3125 0)"/>
     <use xlink:href="#DejaVuSans-Bold-6c" transform="translate(487.792969 0)"/>
     <use xlink:href="#DejaVuSans-Bold-75" transform="translate(522.070312 0)"/>
     <use xlink:href="#DejaVuSans-Bold-65" transform="translate(593.261719 0)"/>
     <use xlink:href="#DejaVuSans-Bold-20" transform="translate(661.083984 0)"/>
     <use xlink:href="#DejaVuSans-Bold-64" transform="translate(695.898438 0)"/>
     <use xlink:href="#DejaVuSans-Bold-65" transform="translate(767.480469 0)"/>
     <use xlink:href="#DejaVuSans-Bold-63" transform="translate(835.302734 0)"/>
     <use xlink:href="#DejaVuSans-Bold-69" transform="translate(894.580078 0)"/>
     <use xlink:href="#DejaVuSans-Bold-73" transform="translate(928.857422 0)"/>
     <use xlink:href="#DejaVuSans-Bold-69" transform="translate(988.378906 0)"/>
     <use xlink:href="#DejaVuSans-Bold-6f" transform="translate(1022.65625 0)"/>
     <use xlink:href="#DejaVuSans-Bold-6e" transform="translate(1091.357422 0)"/>
     <use xlink:href="#DejaVuSans-Bold-20" transform="translate(1162.548828 0)"/>
     <use xlink:href="#DejaVuSans-Bold-72" transform="translate(1197.363281 0)"/>
     <use xlink:href="#DejaVuSans-Bold-75" transform="translate(1246.679688 0)"/>
     <use xlink:href="#DejaVuSans-Bold-6c" transform="translate(1317.871094 0)"/>
     <use xlink:href="#DejaVuSans-Bold-65" transform="translate(1352.148438 0)"/>
    </g>
   </g>
  </g>
 </g>
 <defs>
  <clipPath id="p958888090e">
   <rect x="7.2" y="7.953891" width="513.36" height="199.584"/>
  </clipPath>
 </defs>
</svg>
