<svg id="Layer_1" data-name="Layer 1" xmlns="http://www.w3.org/2000/svg" viewBox="0 0 396.02 396.02"><defs><style>.cls-1{fill:#fdbe16;}.cls-2{fill:#2b378a;}</style></defs><circle class="cls-1" cx="392.9" cy="294.01" r="198.01" transform="translate(-141.34 552.48) rotate(-83.06)"/><path class="cls-2" d="M529.29,252.92A103.92,103.92,0,0,0,425.38,149l-115.12.09a24.25,24.25,0,0,0,0,48.5c.46,0,114.66,0,115.12,0a55.32,55.32,0,0,1,0,110.64l-61.35,0a24.26,24.26,0,0,0-24.21,24.27,25.63,25.63,0,0,0,6.78,16.75h0c.48.52-.53-.48,0,0l98.86,98c4.84,4.46,11.11,8.43,18.49,8.43a24.51,24.51,0,0,0,24.51-24.52,25.9,25.9,0,0,0-8.62-18.68l-56.13-55.67h1.67A103.91,103.91,0,0,0,529.29,252.92Z" transform="translate(-194.89 -96)"/></svg>