<?xml version="1.0" encoding="utf-8" standalone="no"?>
<!DOCTYPE svg PUBLIC "-//W3C//DTD SVG 1.1//EN"
  "http://www.w3.org/Graphics/SVG/1.1/DTD/svg11.dtd">
<svg xmlns:xlink="http://www.w3.org/1999/xlink" width="510.1325pt" height="315.04925pt" viewBox="0 0 510.1325 315.04925" xmlns="http://www.w3.org/2000/svg" version="1.1">
 <metadata>
  <rdf:RDF xmlns:dc="http://purl.org/dc/elements/1.1/" xmlns:cc="http://creativecommons.org/ns#" xmlns:rdf="http://www.w3.org/1999/02/22-rdf-syntax-ns#">
   <cc:Work>
    <dc:type rdf:resource="http://purl.org/dc/dcmitype/StillImage"/>
    <dc:date>2026-05-26T21:14:11.043923</dc:date>
    <dc:format>image/svg+xml</dc:format>
    <dc:creator>
     <cc:Agent>
      <dc:title>Matplotlib v3.10.8, https://matplotlib.org/</dc:title>
     </cc:Agent>
    </dc:creator>
   </cc:Work>
  </rdf:RDF>
 </metadata>
 <defs>
  <style type="text/css">*{stroke-linejoin: round; stroke-linecap: butt}</style>
 </defs>
 <g id="figure_1">
  <g id="patch_1">
   <path d="M 0 315.04925 
L 510.1325 315.04925 
L 510.1325 0 
L 0 0 
z
" style="fill: #ffffff"/>
  </g>
  <g id="axes_1">
   <g id="patch_2">
    <path d="M 56.5325 273.62175 
L 502.9325 273.62175 
L 502.9325 24.14175 
L 56.5325 24.14175 
z
" style="fill: #fbfbfd"/>
   </g>
   <g id="FillBetweenPolyCollection_1">
    <defs>
     <path id="m20fbae98e4" d="M 76.823409 -41.4275 
L 76.823409 -41.4275 
L 78.176136 -41.4275 
L 79.528864 -41.4275 
L 80.881591 -41.4275 
L 82.234318 -41.4275 
L 83.587045 -41.4275 
L 84.939773 -41.4275 
L 86.2925 -41.4275 
L 87.645227 -41.4275 
L 88.997955 -41.4275 
L 90.350682 -41.4275 
L 91.703409 -41.4275 
L 93.056136 -41.4275 
L 94.408864 -41.4275 
L 95.761591 -41.4275 
L 97.114318 -41.4275 
L 98.467045 -41.4275 
L 99.819773 -41.4275 
L 101.1725 -41.4275 
L 102.525227 -41.4275 
L 103.877955 -41.4275 
L 105.230682 -41.4275 
L 106.583409 -41.4275 
L 107.936136 -41.4275 
L 109.288864 -41.4275 
L 110.641591 -41.4275 
L 111.994318 -41.4275 
L 113.347045 -41.4275 
L 114.699773 -41.4275 
L 116.0525 -41.4275 
L 117.405227 -41.4275 
L 118.757955 -41.4275 
L 120.110682 -41.4275 
L 121.463409 -41.4275 
L 122.816136 -41.4275 
L 124.168864 -41.4275 
L 125.521591 -41.4275 
L 126.874318 -41.4275 
L 128.227045 -41.4275 
L 129.579773 -41.4275 
L 130.9325 -41.4275 
L 132.285227 -41.4275 
L 133.637955 -41.4275 
L 134.990682 -41.4275 
L 136.343409 -41.4275 
L 137.696136 -41.4275 
L 139.048864 -41.4275 
L 140.401591 -41.4275 
L 141.754318 -41.4275 
L 143.107045 -41.4275 
L 144.459773 -41.4275 
L 145.8125 -41.4275 
L 147.165227 -41.4275 
L 148.517955 -41.4275 
L 149.870682 -41.4275 
L 151.223409 -41.4275 
L 152.576136 -41.4275 
L 153.928864 -41.4275 
L 155.281591 -41.4275 
L 156.634318 -41.4275 
L 157.987045 -41.4275 
L 159.339773 -41.4275 
L 160.6925 -41.4275 
L 162.045227 -41.4275 
L 163.397955 -41.4275 
L 164.750682 -41.4275 
L 166.103409 -41.4275 
L 167.456136 -41.4275 
L 168.808864 -41.4275 
L 170.161591 -41.4275 
L 171.514318 -41.4275 
L 172.867045 -41.4275 
L 174.219773 -41.4275 
L 175.5725 -41.4275 
L 176.925227 -41.4275 
L 178.277955 -41.4275 
L 179.630682 -41.4275 
L 180.983409 -41.4275 
L 182.336136 -41.4275 
L 183.688864 -41.4275 
L 185.041591 -41.4275 
L 186.394318 -41.4275 
L 187.747045 -41.4275 
L 189.099773 -41.4275 
L 190.4525 -41.4275 
L 191.805227 -41.4275 
L 193.157955 -41.4275 
L 194.510682 -41.4275 
L 195.863409 -41.4275 
L 197.216136 -41.4275 
L 198.568864 -41.4275 
L 199.921591 -41.4275 
L 201.274318 -41.427501 
L 202.627045 -41.427501 
L 203.979773 -41.427501 
L 205.3325 -41.427501 
L 206.685227 -41.427501 
L 208.037955 -41.427501 
L 209.390682 -41.427502 
L 210.743409 -41.427502 
L 212.096136 -41.427503 
L 213.448864 -41.427503 
L 214.801591 -41.427504 
L 216.154318 -41.427504 
L 217.507045 -41.427505 
L 218.859773 -41.427506 
L 220.2125 -41.427507 
L 221.565227 -41.427508 
L 222.917955 -41.42751 
L 224.270682 -41.427511 
L 225.623409 -41.427513 
L 226.976136 -41.427516 
L 228.328864 -41.427518 
L 229.681591 -41.427521 
L 231.034318 -41.427525 
L 232.387045 -41.427529 
L 233.739773 -41.427533 
L 235.0925 -41.427539 
L 236.445227 -41.427545 
L 237.797955 -41.427552 
L 239.150682 -41.42756 
L 240.503409 -41.427569 
L 241.856136 -41.42758 
L 243.208864 -41.427592 
L 244.561591 -41.427605 
L 245.914318 -41.427621 
L 247.267045 -41.427639 
L 248.619773 -41.427659 
L 249.9725 -41.427682 
L 251.325227 -41.427708 
L 252.677955 -41.427738 
L 254.030682 -41.427771 
L 255.383409 -41.427809 
L 256.736136 -41.427852 
L 258.088864 -41.4279 
L 259.441591 -41.427954 
L 260.794318 -41.428016 
L 262.147045 -41.428085 
L 263.499773 -41.428162 
L 264.8525 -41.428249 
L 266.205227 -41.428347 
L 267.557955 -41.428457 
L 268.910682 -41.42858 
L 270.263409 -41.428717 
L 271.616136 -41.428871 
L 272.968864 -41.429043 
L 274.321591 -41.429234 
L 275.674318 -41.429448 
L 277.027045 -41.429687 
L 278.379773 -41.429953 
L 279.7325 -41.430248 
L 281.085227 -41.430577 
L 282.437955 -41.430942 
L 283.790682 -41.431348 
L 285.143409 -41.431798 
L 286.496136 -41.432297 
L 287.848864 -41.432849 
L 289.201591 -41.433461 
L 290.554318 -41.434137 
L 291.907045 -41.434885 
L 293.259773 -41.435712 
L 294.6125 -41.436624 
L 295.965227 -41.43763 
L 297.317955 -41.438738 
L 298.670682 -41.43996 
L 300.023409 -41.441305 
L 301.376136 -41.442784 
L 302.728864 -41.444411 
L 304.081591 -41.446198 
L 305.434318 -41.44816 
L 306.787045 -41.450314 
L 308.139773 -41.452675 
L 309.4925 -41.455263 
L 310.845227 -41.458098 
L 312.197955 -41.461201 
L 313.550682 -41.464596 
L 314.903409 -41.468308 
L 316.256136 -41.472363 
L 317.608864 -41.476793 
L 318.961591 -41.481627 
L 320.314318 -41.486901 
L 321.667045 -41.49265 
L 323.019773 -41.498915 
L 324.3725 -41.505738 
L 325.725227 -41.513164 
L 327.077955 -41.521242 
L 328.430682 -41.530026 
L 329.783409 -41.539571 
L 331.136136 -41.549939 
L 332.488864 -41.561193 
L 333.841591 -41.573405 
L 335.194318 -41.586647 
L 336.547045 -41.601001 
L 337.899773 -41.616552 
L 339.2525 -41.633392 
L 340.605227 -41.651617 
L 341.957955 -41.671333 
L 343.310682 -41.692651 
L 344.663409 -41.715691 
L 346.016136 -41.740579 
L 347.368864 -41.767452 
L 348.721591 -41.796453 
L 350.074318 -41.827738 
L 351.427045 -41.861471 
L 352.779773 -41.897827 
L 354.1325 -41.936991 
L 355.485227 -41.979163 
L 356.837955 -42.024553 
L 358.190682 -42.073385 
L 359.543409 -42.125897 
L 360.896136 -42.182342 
L 362.248864 -42.242989 
L 363.601591 -42.308123 
L 364.954318 -42.378046 
L 366.307045 -42.453079 
L 367.659773 -42.533562 
L 369.0125 -42.619855 
L 370.365227 -42.71234 
L 371.717955 -42.81142 
L 373.070682 -42.917523 
L 374.423409 -43.031101 
L 375.776136 -43.152632 
L 377.128864 -43.282622 
L 378.481591 -43.421605 
L 379.834318 -43.570145 
L 381.187045 -43.728837 
L 382.539773 -43.898311 
L 383.8925 -44.079228 
L 385.245227 -44.27229 
L 386.597955 -44.478232 
L 387.950682 -44.697832 
L 389.303409 -44.931909 
L 390.656136 -45.181324 
L 392.008864 -45.446983 
L 393.361591 -45.729843 
L 394.714318 -46.030905 
L 396.067045 -46.351227 
L 397.419773 -46.691916 
L 398.7725 -47.054139 
L 400.125227 -47.439119 
L 401.477955 -47.848142 
L 402.830682 -48.282554 
L 404.183409 -48.743772 
L 405.536136 -49.233279 
L 406.888864 -49.752628 
L 408.241591 -50.30345 
L 409.594318 -50.887452 
L 410.947045 -51.506419 
L 412.299773 -52.162223 
L 413.6525 -52.856821 
L 415.005227 -53.59226 
L 416.357955 -54.370679 
L 417.710682 -55.194316 
L 419.063409 -56.065508 
L 420.416136 -56.986695 
L 421.768864 -57.960425 
L 423.121591 -58.989358 
L 424.474318 -60.076266 
L 425.827045 -61.224042 
L 427.179773 -62.435702 
L 428.5325 -63.714387 
L 429.885227 -65.063371 
L 431.237955 -66.486061 
L 432.590682 -67.986002 
L 433.943409 -69.566887 
L 435.296136 -71.232551 
L 436.648864 -72.986986 
L 438.001591 -74.834338 
L 439.354318 -76.778914 
L 440.707045 -78.825186 
L 442.059773 -80.977798 
L 443.4125 -83.241567 
L 444.765227 -85.621489 
L 446.117955 -88.122745 
L 447.470682 -90.750702 
L 448.823409 -93.510923 
L 450.176136 -96.409164 
L 451.528864 -99.451387 
L 452.881591 -102.643759 
L 454.234318 -105.992657 
L 455.587045 -109.504673 
L 456.939773 -113.186621 
L 458.2925 -117.045537 
L 459.645227 -121.088685 
L 460.997955 -125.323561 
L 462.350682 -129.757898 
L 463.703409 -134.399668 
L 465.056136 -139.257086 
L 466.408864 -144.338615 
L 467.761591 -149.652968 
L 469.114318 -155.20911 
L 470.467045 -161.016264 
L 471.819773 -167.08391 
L 473.1725 -173.421791 
L 474.525227 -180.039912 
L 475.877955 -186.948543 
L 477.230682 -194.15822 
L 478.583409 -201.679748 
L 479.936136 -209.524199 
L 481.288864 -217.702913 
L 482.641591 -226.2275 
L 482.641591 -41.4275 
L 482.641591 -41.4275 
L 481.288864 -41.4275 
L 479.936136 -41.4275 
L 478.583409 -41.4275 
L 477.230682 -41.4275 
L 475.877955 -41.4275 
L 474.525227 -41.4275 
L 473.1725 -41.4275 
L 471.819773 -41.4275 
L 470.467045 -41.4275 
L 469.114318 -41.4275 
L 467.761591 -41.4275 
L 466.408864 -41.4275 
L 465.056136 -41.4275 
L 463.703409 -41.4275 
L 462.350682 -41.4275 
L 460.997955 -41.4275 
L 459.645227 -41.4275 
L 458.2925 -41.4275 
L 456.939773 -41.4275 
L 455.587045 -41.4275 
L 454.234318 -41.4275 
L 452.881591 -41.4275 
L 451.528864 -41.4275 
L 450.176136 -41.4275 
L 448.823409 -41.4275 
L 447.470682 -41.4275 
L 446.117955 -41.4275 
L 444.765227 -41.4275 
L 443.4125 -41.4275 
L 442.059773 -41.4275 
L 440.707045 -41.4275 
L 439.354318 -41.4275 
L 438.001591 -41.4275 
L 436.648864 -41.4275 
L 435.296136 -41.4275 
L 433.943409 -41.4275 
L 432.590682 -41.4275 
L 431.237955 -41.4275 
L 429.885227 -41.4275 
L 428.5325 -41.4275 
L 427.179773 -41.4275 
L 425.827045 -41.4275 
L 424.474318 -41.4275 
L 423.121591 -41.4275 
L 421.768864 -41.4275 
L 420.416136 -41.4275 
L 419.063409 -41.4275 
L 417.710682 -41.4275 
L 416.357955 -41.4275 
L 415.005227 -41.4275 
L 413.6525 -41.4275 
L 412.299773 -41.4275 
L 410.947045 -41.4275 
L 409.594318 -41.4275 
L 408.241591 -41.4275 
L 406.888864 -41.4275 
L 405.536136 -41.4275 
L 404.183409 -41.4275 
L 402.830682 -41.4275 
L 401.477955 -41.4275 
L 400.125227 -41.4275 
L 398.7725 -41.4275 
L 397.419773 -41.4275 
L 396.067045 -41.4275 
L 394.714318 -41.4275 
L 393.361591 -41.4275 
L 392.008864 -41.4275 
L 390.656136 -41.4275 
L 389.303409 -41.4275 
L 387.950682 -41.4275 
L 386.597955 -41.4275 
L 385.245227 -41.4275 
L 383.8925 -41.4275 
L 382.539773 -41.4275 
L 381.187045 -41.4275 
L 379.834318 -41.4275 
L 378.481591 -41.4275 
L 377.128864 -41.4275 
L 375.776136 -41.4275 
L 374.423409 -41.4275 
L 373.070682 -41.4275 
L 371.717955 -41.4275 
L 370.365227 -41.4275 
L 369.0125 -41.4275 
L 367.659773 -41.4275 
L 366.307045 -41.4275 
L 364.954318 -41.4275 
L 363.601591 -41.4275 
L 362.248864 -41.4275 
L 360.896136 -41.4275 
L 359.543409 -41.4275 
L 358.190682 -41.4275 
L 356.837955 -41.4275 
L 355.485227 -41.4275 
L 354.1325 -41.4275 
L 352.779773 -41.4275 
L 351.427045 -41.4275 
L 350.074318 -41.4275 
L 348.721591 -41.4275 
L 347.368864 -41.4275 
L 346.016136 -41.4275 
L 344.663409 -41.4275 
L 343.310682 -41.4275 
L 341.957955 -41.4275 
L 340.605227 -41.4275 
L 339.2525 -41.4275 
L 337.899773 -41.4275 
L 336.547045 -41.4275 
L 335.194318 -41.4275 
L 333.841591 -41.4275 
L 332.488864 -41.4275 
L 331.136136 -41.4275 
L 329.783409 -41.4275 
L 328.430682 -41.4275 
L 327.077955 -41.4275 
L 325.725227 -41.4275 
L 324.3725 -41.4275 
L 323.019773 -41.4275 
L 321.667045 -41.4275 
L 320.314318 -41.4275 
L 318.961591 -41.4275 
L 317.608864 -41.4275 
L 316.256136 -41.4275 
L 314.903409 -41.4275 
L 313.550682 -41.4275 
L 312.197955 -41.4275 
L 310.845227 -41.4275 
L 309.4925 -41.4275 
L 308.139773 -41.4275 
L 306.787045 -41.4275 
L 305.434318 -41.4275 
L 304.081591 -41.4275 
L 302.728864 -41.4275 
L 301.376136 -41.4275 
L 300.023409 -41.4275 
L 298.670682 -41.4275 
L 297.317955 -41.4275 
L 295.965227 -41.4275 
L 294.6125 -41.4275 
L 293.259773 -41.4275 
L 291.907045 -41.4275 
L 290.554318 -41.4275 
L 289.201591 -41.4275 
L 287.848864 -41.4275 
L 286.496136 -41.4275 
L 285.143409 -41.4275 
L 283.790682 -41.4275 
L 282.437955 -41.4275 
L 281.085227 -41.4275 
L 279.7325 -41.4275 
L 278.379773 -41.4275 
L 277.027045 -41.4275 
L 275.674318 -41.4275 
L 274.321591 -41.4275 
L 272.968864 -41.4275 
L 271.616136 -41.4275 
L 270.263409 -41.4275 
L 268.910682 -41.4275 
L 267.557955 -41.4275 
L 266.205227 -41.4275 
L 264.8525 -41.4275 
L 263.499773 -41.4275 
L 262.147045 -41.4275 
L 260.794318 -41.4275 
L 259.441591 -41.4275 
L 258.088864 -41.4275 
L 256.736136 -41.4275 
L 255.383409 -41.4275 
L 254.030682 -41.4275 
L 252.677955 -41.4275 
L 251.325227 -41.4275 
L 249.9725 -41.4275 
L 248.619773 -41.4275 
L 247.267045 -41.4275 
L 245.914318 -41.4275 
L 244.561591 -41.4275 
L 243.208864 -41.4275 
L 241.856136 -41.4275 
L 240.503409 -41.4275 
L 239.150682 -41.4275 
L 237.797955 -41.4275 
L 236.445227 -41.4275 
L 235.0925 -41.4275 
L 233.739773 -41.4275 
L 232.387045 -41.4275 
L 231.034318 -41.4275 
L 229.681591 -41.4275 
L 228.328864 -41.4275 
L 226.976136 -41.4275 
L 225.623409 -41.4275 
L 224.270682 -41.4275 
L 222.917955 -41.4275 
L 221.565227 -41.4275 
L 220.2125 -41.4275 
L 218.859773 -41.4275 
L 217.507045 -41.4275 
L 216.154318 -41.4275 
L 214.801591 -41.4275 
L 213.448864 -41.4275 
L 212.096136 -41.4275 
L 210.743409 -41.4275 
L 209.390682 -41.4275 
L 208.037955 -41.4275 
L 206.685227 -41.4275 
L 205.3325 -41.4275 
L 203.979773 -41.4275 
L 202.627045 -41.4275 
L 201.274318 -41.4275 
L 199.921591 -41.4275 
L 198.568864 -41.4275 
L 197.216136 -41.4275 
L 195.863409 -41.4275 
L 194.510682 -41.4275 
L 193.157955 -41.4275 
L 191.805227 -41.4275 
L 190.4525 -41.4275 
L 189.099773 -41.4275 
L 187.747045 -41.4275 
L 186.394318 -41.4275 
L 185.041591 -41.4275 
L 183.688864 -41.4275 
L 182.336136 -41.4275 
L 180.983409 -41.4275 
L 179.630682 -41.4275 
L 178.277955 -41.4275 
L 176.925227 -41.4275 
L 175.5725 -41.4275 
L 174.219773 -41.4275 
L 172.867045 -41.4275 
L 171.514318 -41.4275 
L 170.161591 -41.4275 
L 168.808864 -41.4275 
L 167.456136 -41.4275 
L 166.103409 -41.4275 
L 164.750682 -41.4275 
L 163.397955 -41.4275 
L 162.045227 -41.4275 
L 160.6925 -41.4275 
L 159.339773 -41.4275 
L 157.987045 -41.4275 
L 156.634318 -41.4275 
L 155.281591 -41.4275 
L 153.928864 -41.4275 
L 152.576136 -41.4275 
L 151.223409 -41.4275 
L 149.870682 -41.4275 
L 148.517955 -41.4275 
L 147.165227 -41.4275 
L 145.8125 -41.4275 
L 144.459773 -41.4275 
L 143.107045 -41.4275 
L 141.754318 -41.4275 
L 140.401591 -41.4275 
L 139.048864 -41.4275 
L 137.696136 -41.4275 
L 136.343409 -41.4275 
L 134.990682 -41.4275 
L 133.637955 -41.4275 
L 132.285227 -41.4275 
L 130.9325 -41.4275 
L 129.579773 -41.4275 
L 128.227045 -41.4275 
L 126.874318 -41.4275 
L 125.521591 -41.4275 
L 124.168864 -41.4275 
L 122.816136 -41.4275 
L 121.463409 -41.4275 
L 120.110682 -41.4275 
L 118.757955 -41.4275 
L 117.405227 -41.4275 
L 116.0525 -41.4275 
L 114.699773 -41.4275 
L 113.347045 -41.4275 
L 111.994318 -41.4275 
L 110.641591 -41.4275 
L 109.288864 -41.4275 
L 107.936136 -41.4275 
L 106.583409 -41.4275 
L 105.230682 -41.4275 
L 103.877955 -41.4275 
L 102.525227 -41.4275 
L 101.1725 -41.4275 
L 99.819773 -41.4275 
L 98.467045 -41.4275 
L 97.114318 -41.4275 
L 95.761591 -41.4275 
L 94.408864 -41.4275 
L 93.056136 -41.4275 
L 91.703409 -41.4275 
L 90.350682 -41.4275 
L 88.997955 -41.4275 
L 87.645227 -41.4275 
L 86.2925 -41.4275 
L 84.939773 -41.4275 
L 83.587045 -41.4275 
L 82.234318 -41.4275 
L 80.881591 -41.4275 
L 79.528864 -41.4275 
L 78.176136 -41.4275 
L 76.823409 -41.4275 
z
" style="stroke: #dbeafe"/>
    </defs>
    <g clip-path="url(#pc47dd74c9b)">
     <use xlink:href="#m20fbae98e4" x="0" y="315.04925" style="fill: #dbeafe; stroke: #dbeafe"/>
    </g>
   </g>
   <g id="matplotlib.axis_1">
    <g id="xtick_1">
     <g id="line2d_1">
      <defs>
       <path id="m82f7d065da" d="M 0 0 
L 0 3.5 
" style="stroke: #374151; stroke-width: 0.8"/>
      </defs>
      <g>
       <use xlink:href="#m82f7d065da" x="76.823409" y="273.62175" style="fill: #374151; stroke: #374151; stroke-width: 0.8"/>
      </g>
     </g>
     <g id="text_1">
      <!-- 0.0 -->
      <g style="fill: #374151" transform="translate(67.281534 289.739875) scale(0.12 -0.12)">
       <defs>
        <path id="DejaVuSans-30" d="M 2034 4250 
Q 1547 4250 1301 3770 
Q 1056 3291 1056 2328 
Q 1056 1369 1301 889 
Q 1547 409 2034 409 
Q 2525 409 2770 889 
Q 3016 1369 3016 2328 
Q 3016 3291 2770 3770 
Q 2525 4250 2034 4250 
z
M 2034 4750 
Q 2819 4750 3233 4129 
Q 3647 3509 3647 2328 
Q 3647 1150 3233 529 
Q 2819 -91 2034 -91 
Q 1250 -91 836 529 
Q 422 1150 422 2328 
Q 422 3509 836 4129 
Q 1250 4750 2034 4750 
z
" transform="scale(0.015625)"/>
        <path id="DejaVuSans-2e" d="M 684 794 
L 1344 794 
L 1344 0 
L 684 0 
L 684 794 
z
" transform="scale(0.015625)"/>
       </defs>
       <use xlink:href="#DejaVuSans-30"/>
       <use xlink:href="#DejaVuSans-2e" transform="translate(63.623047 0)"/>
       <use xlink:href="#DejaVuSans-30" transform="translate(95.410156 0)"/>
      </g>
     </g>
    </g>
    <g id="xtick_2">
     <g id="line2d_2">
      <g>
       <use xlink:href="#m82f7d065da" x="134.797435" y="273.62175" style="fill: #374151; stroke: #374151; stroke-width: 0.8"/>
      </g>
     </g>
     <g id="text_2">
      <!-- 0.1 -->
      <g style="fill: #374151" transform="translate(125.25556 289.739875) scale(0.12 -0.12)">
       <defs>
        <path id="DejaVuSans-31" d="M 794 531 
L 1825 531 
L 1825 4091 
L 703 3866 
L 703 4441 
L 1819 4666 
L 2450 4666 
L 2450 531 
L 3481 531 
L 3481 0 
L 794 0 
L 794 531 
z
" transform="scale(0.015625)"/>
       </defs>
       <use xlink:href="#DejaVuSans-30"/>
       <use xlink:href="#DejaVuSans-2e" transform="translate(63.623047 0)"/>
       <use xlink:href="#DejaVuSans-31" transform="translate(95.410156 0)"/>
      </g>
     </g>
    </g>
    <g id="xtick_3">
     <g id="line2d_3">
      <g>
       <use xlink:href="#m82f7d065da" x="192.771461" y="273.62175" style="fill: #374151; stroke: #374151; stroke-width: 0.8"/>
      </g>
     </g>
     <g id="text_3">
      <!-- 0.2 -->
      <g style="fill: #374151" transform="translate(183.229586 289.739875) scale(0.12 -0.12)">
       <defs>
        <path id="DejaVuSans-32" d="M 1228 531 
L 3431 531 
L 3431 0 
L 469 0 
L 469 531 
Q 828 903 1448 1529 
Q 2069 2156 2228 2338 
Q 2531 2678 2651 2914 
Q 2772 3150 2772 3378 
Q 2772 3750 2511 3984 
Q 2250 4219 1831 4219 
Q 1534 4219 1204 4116 
Q 875 4013 500 3803 
L 500 4441 
Q 881 4594 1212 4672 
Q 1544 4750 1819 4750 
Q 2544 4750 2975 4387 
Q 3406 4025 3406 3419 
Q 3406 3131 3298 2873 
Q 3191 2616 2906 2266 
Q 2828 2175 2409 1742 
Q 1991 1309 1228 531 
z
" transform="scale(0.015625)"/>
       </defs>
       <use xlink:href="#DejaVuSans-30"/>
       <use xlink:href="#DejaVuSans-2e" transform="translate(63.623047 0)"/>
       <use xlink:href="#DejaVuSans-32" transform="translate(95.410156 0)"/>
      </g>
     </g>
    </g>
    <g id="xtick_4">
     <g id="line2d_4">
      <g>
       <use xlink:href="#m82f7d065da" x="250.745487" y="273.62175" style="fill: #374151; stroke: #374151; stroke-width: 0.8"/>
      </g>
     </g>
     <g id="text_4">
      <!-- 0.3 -->
      <g style="fill: #374151" transform="translate(241.203612 289.739875) scale(0.12 -0.12)">
       <defs>
        <path id="DejaVuSans-33" d="M 2597 2516 
Q 3050 2419 3304 2112 
Q 3559 1806 3559 1356 
Q 3559 666 3084 287 
Q 2609 -91 1734 -91 
Q 1441 -91 1130 -33 
Q 819 25 488 141 
L 488 750 
Q 750 597 1062 519 
Q 1375 441 1716 441 
Q 2309 441 2620 675 
Q 2931 909 2931 1356 
Q 2931 1769 2642 2001 
Q 2353 2234 1838 2234 
L 1294 2234 
L 1294 2753 
L 1863 2753 
Q 2328 2753 2575 2939 
Q 2822 3125 2822 3475 
Q 2822 3834 2567 4026 
Q 2313 4219 1838 4219 
Q 1578 4219 1281 4162 
Q 984 4106 628 3988 
L 628 4550 
Q 988 4650 1302 4700 
Q 1616 4750 1894 4750 
Q 2613 4750 3031 4423 
Q 3450 4097 3450 3541 
Q 3450 3153 3228 2886 
Q 3006 2619 2597 2516 
z
" transform="scale(0.015625)"/>
       </defs>
       <use xlink:href="#DejaVuSans-30"/>
       <use xlink:href="#DejaVuSans-2e" transform="translate(63.623047 0)"/>
       <use xlink:href="#DejaVuSans-33" transform="translate(95.410156 0)"/>
      </g>
     </g>
    </g>
    <g id="xtick_5">
     <g id="line2d_5">
      <g>
       <use xlink:href="#m82f7d065da" x="308.719513" y="273.62175" style="fill: #374151; stroke: #374151; stroke-width: 0.8"/>
      </g>
     </g>
     <g id="text_5">
      <!-- 0.4 -->
      <g style="fill: #374151" transform="translate(299.177638 289.739875) scale(0.12 -0.12)">
       <defs>
        <path id="DejaVuSans-34" d="M 2419 4116 
L 825 1625 
L 2419 1625 
L 2419 4116 
z
M 2253 4666 
L 3047 4666 
L 3047 1625 
L 3713 1625 
L 3713 1100 
L 3047 1100 
L 3047 0 
L 2419 0 
L 2419 1100 
L 313 1100 
L 313 1709 
L 2253 4666 
z
" transform="scale(0.015625)"/>
       </defs>
       <use xlink:href="#DejaVuSans-30"/>
       <use xlink:href="#DejaVuSans-2e" transform="translate(63.623047 0)"/>
       <use xlink:href="#DejaVuSans-34" transform="translate(95.410156 0)"/>
      </g>
     </g>
    </g>
    <g id="xtick_6">
     <g id="line2d_6">
      <g>
       <use xlink:href="#m82f7d065da" x="366.693539" y="273.62175" style="fill: #374151; stroke: #374151; stroke-width: 0.8"/>
      </g>
     </g>
     <g id="text_6">
      <!-- 0.5 -->
      <g style="fill: #374151" transform="translate(357.151664 289.739875) scale(0.12 -0.12)">
       <defs>
        <path id="DejaVuSans-35" d="M 691 4666 
L 3169 4666 
L 3169 4134 
L 1269 4134 
L 1269 2991 
Q 1406 3038 1543 3061 
Q 1681 3084 1819 3084 
Q 2600 3084 3056 2656 
Q 3513 2228 3513 1497 
Q 3513 744 3044 326 
Q 2575 -91 1722 -91 
Q 1428 -91 1123 -41 
Q 819 9 494 109 
L 494 744 
Q 775 591 1075 516 
Q 1375 441 1709 441 
Q 2250 441 2565 725 
Q 2881 1009 2881 1497 
Q 2881 1984 2565 2268 
Q 2250 2553 1709 2553 
Q 1456 2553 1204 2497 
Q 953 2441 691 2322 
L 691 4666 
z
" transform="scale(0.015625)"/>
       </defs>
       <use xlink:href="#DejaVuSans-30"/>
       <use xlink:href="#DejaVuSans-2e" transform="translate(63.623047 0)"/>
       <use xlink:href="#DejaVuSans-35" transform="translate(95.410156 0)"/>
      </g>
     </g>
    </g>
    <g id="xtick_7">
     <g id="line2d_7">
      <g>
       <use xlink:href="#m82f7d065da" x="424.667565" y="273.62175" style="fill: #374151; stroke: #374151; stroke-width: 0.8"/>
      </g>
     </g>
     <g id="text_7">
      <!-- 0.6 -->
      <g style="fill: #374151" transform="translate(415.12569 289.739875) scale(0.12 -0.12)">
       <defs>
        <path id="DejaVuSans-36" d="M 2113 2584 
Q 1688 2584 1439 2293 
Q 1191 2003 1191 1497 
Q 1191 994 1439 701 
Q 1688 409 2113 409 
Q 2538 409 2786 701 
Q 3034 994 3034 1497 
Q 3034 2003 2786 2293 
Q 2538 2584 2113 2584 
z
M 3366 4563 
L 3366 3988 
Q 3128 4100 2886 4159 
Q 2644 4219 2406 4219 
Q 1781 4219 1451 3797 
Q 1122 3375 1075 2522 
Q 1259 2794 1537 2939 
Q 1816 3084 2150 3084 
Q 2853 3084 3261 2657 
Q 3669 2231 3669 1497 
Q 3669 778 3244 343 
Q 2819 -91 2113 -91 
Q 1303 -91 875 529 
Q 447 1150 447 2328 
Q 447 3434 972 4092 
Q 1497 4750 2381 4750 
Q 2619 4750 2861 4703 
Q 3103 4656 3366 4563 
z
" transform="scale(0.015625)"/>
       </defs>
       <use xlink:href="#DejaVuSans-30"/>
       <use xlink:href="#DejaVuSans-2e" transform="translate(63.623047 0)"/>
       <use xlink:href="#DejaVuSans-36" transform="translate(95.410156 0)"/>
      </g>
     </g>
    </g>
    <g id="xtick_8">
     <g id="line2d_8">
      <g>
       <use xlink:href="#m82f7d065da" x="482.641591" y="273.62175" style="fill: #374151; stroke: #374151; stroke-width: 0.8"/>
      </g>
     </g>
     <g id="text_8">
      <!-- 0.7 -->
      <g style="fill: #374151" transform="translate(473.099716 289.739875) scale(0.12 -0.12)">
       <defs>
        <path id="DejaVuSans-37" d="M 525 4666 
L 3525 4666 
L 3525 4397 
L 1831 0 
L 1172 0 
L 2766 4134 
L 525 4134 
L 525 4666 
z
" transform="scale(0.015625)"/>
       </defs>
       <use xlink:href="#DejaVuSans-30"/>
       <use xlink:href="#DejaVuSans-2e" transform="translate(63.623047 0)"/>
       <use xlink:href="#DejaVuSans-37" transform="translate(95.410156 0)"/>
      </g>
     </g>
    </g>
    <g id="text_9">
     <!-- Possible value of p under H0: p &lt;= 0.70 -->
     <g style="fill: #1f2937" transform="translate(159.190625 305.353625) scale(0.12 -0.12)">
      <defs>
       <path id="DejaVuSans-50" d="M 1259 4147 
L 1259 2394 
L 2053 2394 
Q 2494 2394 2734 2622 
Q 2975 2850 2975 3272 
Q 2975 3691 2734 3919 
Q 2494 4147 2053 4147 
L 1259 4147 
z
M 628 4666 
L 2053 4666 
Q 2838 4666 3239 4311 
Q 3641 3956 3641 3272 
Q 3641 2581 3239 2228 
Q 2838 1875 2053 1875 
L 1259 1875 
L 1259 0 
L 628 0 
L 628 4666 
z
" transform="scale(0.015625)"/>
       <path id="DejaVuSans-6f" d="M 1959 3097 
Q 1497 3097 1228 2736 
Q 959 2375 959 1747 
Q 959 1119 1226 758 
Q 1494 397 1959 397 
Q 2419 397 2687 759 
Q 2956 1122 2956 1747 
Q 2956 2369 2687 2733 
Q 2419 3097 1959 3097 
z
M 1959 3584 
Q 2709 3584 3137 3096 
Q 3566 2609 3566 1747 
Q 3566 888 3137 398 
Q 2709 -91 1959 -91 
Q 1206 -91 779 398 
Q 353 888 353 1747 
Q 353 2609 779 3096 
Q 1206 3584 1959 3584 
z
" transform="scale(0.015625)"/>
       <path id="DejaVuSans-73" d="M 2834 3397 
L 2834 2853 
Q 2591 2978 2328 3040 
Q 2066 3103 1784 3103 
Q 1356 3103 1142 2972 
Q 928 2841 928 2578 
Q 928 2378 1081 2264 
Q 1234 2150 1697 2047 
L 1894 2003 
Q 2506 1872 2764 1633 
Q 3022 1394 3022 966 
Q 3022 478 2636 193 
Q 2250 -91 1575 -91 
Q 1294 -91 989 -36 
Q 684 19 347 128 
L 347 722 
Q 666 556 975 473 
Q 1284 391 1588 391 
Q 1994 391 2212 530 
Q 2431 669 2431 922 
Q 2431 1156 2273 1281 
Q 2116 1406 1581 1522 
L 1381 1569 
Q 847 1681 609 1914 
Q 372 2147 372 2553 
Q 372 3047 722 3315 
Q 1072 3584 1716 3584 
Q 2034 3584 2315 3537 
Q 2597 3491 2834 3397 
z
" transform="scale(0.015625)"/>
       <path id="DejaVuSans-69" d="M 603 3500 
L 1178 3500 
L 1178 0 
L 603 0 
L 603 3500 
z
M 603 4863 
L 1178 4863 
L 1178 4134 
L 603 4134 
L 603 4863 
z
" transform="scale(0.015625)"/>
       <path id="DejaVuSans-62" d="M 3116 1747 
Q 3116 2381 2855 2742 
Q 2594 3103 2138 3103 
Q 1681 3103 1420 2742 
Q 1159 2381 1159 1747 
Q 1159 1113 1420 752 
Q 1681 391 2138 391 
Q 2594 391 2855 752 
Q 3116 1113 3116 1747 
z
M 1159 2969 
Q 1341 3281 1617 3432 
Q 1894 3584 2278 3584 
Q 2916 3584 3314 3078 
Q 3713 2572 3713 1747 
Q 3713 922 3314 415 
Q 2916 -91 2278 -91 
Q 1894 -91 1617 61 
Q 1341 213 1159 525 
L 1159 0 
L 581 0 
L 581 4863 
L 1159 4863 
L 1159 2969 
z
" transform="scale(0.015625)"/>
       <path id="DejaVuSans-6c" d="M 603 4863 
L 1178 4863 
L 1178 0 
L 603 0 
L 603 4863 
z
" transform="scale(0.015625)"/>
       <path id="DejaVuSans-65" d="M 3597 1894 
L 3597 1613 
L 953 1613 
Q 991 1019 1311 708 
Q 1631 397 2203 397 
Q 2534 397 2845 478 
Q 3156 559 3463 722 
L 3463 178 
Q 3153 47 2828 -22 
Q 2503 -91 2169 -91 
Q 1331 -91 842 396 
Q 353 884 353 1716 
Q 353 2575 817 3079 
Q 1281 3584 2069 3584 
Q 2775 3584 3186 3129 
Q 3597 2675 3597 1894 
z
M 3022 2063 
Q 3016 2534 2758 2815 
Q 2500 3097 2075 3097 
Q 1594 3097 1305 2825 
Q 1016 2553 972 2059 
L 3022 2063 
z
" transform="scale(0.015625)"/>
       <path id="DejaVuSans-20" transform="scale(0.015625)"/>
       <path id="DejaVuSans-76" d="M 191 3500 
L 800 3500 
L 1894 563 
L 2988 3500 
L 3597 3500 
L 2284 0 
L 1503 0 
L 191 3500 
z
" transform="scale(0.015625)"/>
       <path id="DejaVuSans-61" d="M 2194 1759 
Q 1497 1759 1228 1600 
Q 959 1441 959 1056 
Q 959 750 1161 570 
Q 1363 391 1709 391 
Q 2188 391 2477 730 
Q 2766 1069 2766 1631 
L 2766 1759 
L 2194 1759 
z
M 3341 1997 
L 3341 0 
L 2766 0 
L 2766 531 
Q 2569 213 2275 61 
Q 1981 -91 1556 -91 
Q 1019 -91 701 211 
Q 384 513 384 1019 
Q 384 1609 779 1909 
Q 1175 2209 1959 2209 
L 2766 2209 
L 2766 2266 
Q 2766 2663 2505 2880 
Q 2244 3097 1772 3097 
Q 1472 3097 1187 3025 
Q 903 2953 641 2809 
L 641 3341 
Q 956 3463 1253 3523 
Q 1550 3584 1831 3584 
Q 2591 3584 2966 3190 
Q 3341 2797 3341 1997 
z
" transform="scale(0.015625)"/>
       <path id="DejaVuSans-75" d="M 544 1381 
L 544 3500 
L 1119 3500 
L 1119 1403 
Q 1119 906 1312 657 
Q 1506 409 1894 409 
Q 2359 409 2629 706 
Q 2900 1003 2900 1516 
L 2900 3500 
L 3475 3500 
L 3475 0 
L 2900 0 
L 2900 538 
Q 2691 219 2414 64 
Q 2138 -91 1772 -91 
Q 1169 -91 856 284 
Q 544 659 544 1381 
z
M 1991 3584 
L 1991 3584 
z
" transform="scale(0.015625)"/>
       <path id="DejaVuSans-66" d="M 2375 4863 
L 2375 4384 
L 1825 4384 
Q 1516 4384 1395 4259 
Q 1275 4134 1275 3809 
L 1275 3500 
L 2222 3500 
L 2222 3053 
L 1275 3053 
L 1275 0 
L 697 0 
L 697 3053 
L 147 3053 
L 147 3500 
L 697 3500 
L 697 3744 
Q 697 4328 969 4595 
Q 1241 4863 1831 4863 
L 2375 4863 
z
" transform="scale(0.015625)"/>
       <path id="DejaVuSans-70" d="M 1159 525 
L 1159 -1331 
L 581 -1331 
L 581 3500 
L 1159 3500 
L 1159 2969 
Q 1341 3281 1617 3432 
Q 1894 3584 2278 3584 
Q 2916 3584 3314 3078 
Q 3713 2572 3713 1747 
Q 3713 922 3314 415 
Q 2916 -91 2278 -91 
Q 1894 -91 1617 61 
Q 1341 213 1159 525 
z
M 3116 1747 
Q 3116 2381 2855 2742 
Q 2594 3103 2138 3103 
Q 1681 3103 1420 2742 
Q 1159 2381 1159 1747 
Q 1159 1113 1420 752 
Q 1681 391 2138 391 
Q 2594 391 2855 752 
Q 3116 1113 3116 1747 
z
" transform="scale(0.015625)"/>
       <path id="DejaVuSans-6e" d="M 3513 2113 
L 3513 0 
L 2938 0 
L 2938 2094 
Q 2938 2591 2744 2837 
Q 2550 3084 2163 3084 
Q 1697 3084 1428 2787 
Q 1159 2491 1159 1978 
L 1159 0 
L 581 0 
L 581 3500 
L 1159 3500 
L 1159 2956 
Q 1366 3272 1645 3428 
Q 1925 3584 2291 3584 
Q 2894 3584 3203 3211 
Q 3513 2838 3513 2113 
z
" transform="scale(0.015625)"/>
       <path id="DejaVuSans-64" d="M 2906 2969 
L 2906 4863 
L 3481 4863 
L 3481 0 
L 2906 0 
L 2906 525 
Q 2725 213 2448 61 
Q 2172 -91 1784 -91 
Q 1150 -91 751 415 
Q 353 922 353 1747 
Q 353 2572 751 3078 
Q 1150 3584 1784 3584 
Q 2172 3584 2448 3432 
Q 2725 3281 2906 2969 
z
M 947 1747 
Q 947 1113 1208 752 
Q 1469 391 1925 391 
Q 2381 391 2643 752 
Q 2906 1113 2906 1747 
Q 2906 2381 2643 2742 
Q 2381 3103 1925 3103 
Q 1469 3103 1208 2742 
Q 947 2381 947 1747 
z
" transform="scale(0.015625)"/>
       <path id="DejaVuSans-72" d="M 2631 2963 
Q 2534 3019 2420 3045 
Q 2306 3072 2169 3072 
Q 1681 3072 1420 2755 
Q 1159 2438 1159 1844 
L 1159 0 
L 581 0 
L 581 3500 
L 1159 3500 
L 1159 2956 
Q 1341 3275 1631 3429 
Q 1922 3584 2338 3584 
Q 2397 3584 2469 3576 
Q 2541 3569 2628 3553 
L 2631 2963 
z
" transform="scale(0.015625)"/>
       <path id="DejaVuSans-48" d="M 628 4666 
L 1259 4666 
L 1259 2753 
L 3553 2753 
L 3553 4666 
L 4184 4666 
L 4184 0 
L 3553 0 
L 3553 2222 
L 1259 2222 
L 1259 0 
L 628 0 
L 628 4666 
z
" transform="scale(0.015625)"/>
       <path id="DejaVuSans-3a" d="M 750 794 
L 1409 794 
L 1409 0 
L 750 0 
L 750 794 
z
M 750 3309 
L 1409 3309 
L 1409 2516 
L 750 2516 
L 750 3309 
z
" transform="scale(0.015625)"/>
       <path id="DejaVuSans-3c" d="M 4684 3150 
L 1459 2003 
L 4684 863 
L 4684 294 
L 678 1747 
L 678 2266 
L 4684 3719 
L 4684 3150 
z
" transform="scale(0.015625)"/>
       <path id="DejaVuSans-3d" d="M 678 2906 
L 4684 2906 
L 4684 2381 
L 678 2381 
L 678 2906 
z
M 678 1631 
L 4684 1631 
L 4684 1100 
L 678 1100 
L 678 1631 
z
" transform="scale(0.015625)"/>
      </defs>
      <use xlink:href="#DejaVuSans-50"/>
      <use xlink:href="#DejaVuSans-6f" transform="translate(56.677734 0)"/>
      <use xlink:href="#DejaVuSans-73" transform="translate(117.859375 0)"/>
      <use xlink:href="#DejaVuSans-73" transform="translate(169.958984 0)"/>
      <use xlink:href="#DejaVuSans-69" transform="translate(222.058594 0)"/>
      <use xlink:href="#DejaVuSans-62" transform="translate(249.841797 0)"/>
      <use xlink:href="#DejaVuSans-6c" transform="translate(313.318359 0)"/>
      <use xlink:href="#DejaVuSans-65" transform="translate(341.101562 0)"/>
      <use xlink:href="#DejaVuSans-20" transform="translate(402.625 0)"/>
      <use xlink:href="#DejaVuSans-76" transform="translate(434.412109 0)"/>
      <use xlink:href="#DejaVuSans-61" transform="translate(493.591797 0)"/>
      <use xlink:href="#DejaVuSans-6c" transform="translate(554.871094 0)"/>
      <use xlink:href="#DejaVuSans-75" transform="translate(582.654297 0)"/>
      <use xlink:href="#DejaVuSans-65" transform="translate(646.033203 0)"/>
      <use xlink:href="#DejaVuSans-20" transform="translate(707.556641 0)"/>
      <use xlink:href="#DejaVuSans-6f" transform="translate(739.34375 0)"/>
      <use xlink:href="#DejaVuSans-66" transform="translate(800.525391 0)"/>
      <use xlink:href="#DejaVuSans-20" transform="translate(835.730469 0)"/>
      <use xlink:href="#DejaVuSans-70" transform="translate(867.517578 0)"/>
      <use xlink:href="#DejaVuSans-20" transform="translate(930.994141 0)"/>
      <use xlink:href="#DejaVuSans-75" transform="translate(962.78125 0)"/>
      <use xlink:href="#DejaVuSans-6e" transform="translate(1026.160156 0)"/>
      <use xlink:href="#DejaVuSans-64" transform="translate(1089.539062 0)"/>
      <use xlink:href="#DejaVuSans-65" transform="translate(1153.015625 0)"/>
      <use xlink:href="#DejaVuSans-72" transform="translate(1214.539062 0)"/>
      <use xlink:href="#DejaVuSans-20" transform="translate(1255.652344 0)"/>
      <use xlink:href="#DejaVuSans-48" transform="translate(1287.439453 0)"/>
      <use xlink:href="#DejaVuSans-30" transform="translate(1362.634766 0)"/>
      <use xlink:href="#DejaVuSans-3a" transform="translate(1426.257812 0)"/>
      <use xlink:href="#DejaVuSans-20" transform="translate(1459.949219 0)"/>
      <use xlink:href="#DejaVuSans-70" transform="translate(1491.736328 0)"/>
      <use xlink:href="#DejaVuSans-20" transform="translate(1555.212891 0)"/>
      <use xlink:href="#DejaVuSans-3c" transform="translate(1587 0)"/>
      <use xlink:href="#DejaVuSans-3d" transform="translate(1670.789062 0)"/>
      <use xlink:href="#DejaVuSans-20" transform="translate(1754.578125 0)"/>
      <use xlink:href="#DejaVuSans-30" transform="translate(1786.365234 0)"/>
      <use xlink:href="#DejaVuSans-2e" transform="translate(1849.988281 0)"/>
      <use xlink:href="#DejaVuSans-37" transform="translate(1881.775391 0)"/>
      <use xlink:href="#DejaVuSans-30" transform="translate(1945.398438 0)"/>
     </g>
    </g>
   </g>
   <g id="matplotlib.axis_2">
    <g id="ytick_1">
     <g id="line2d_9">
      <path d="M 56.5325 273.62175 
L 502.9325 273.62175 
" clip-path="url(#pc47dd74c9b)" style="fill: none; stroke: #b0b0b0; stroke-opacity: 0.25; stroke-width: 0.8; stroke-linecap: square"/>
     </g>
     <g id="line2d_10">
      <defs>
       <path id="m4f2ec35384" d="M 0 0 
L -3.5 0 
" style="stroke: #374151; stroke-width: 0.8"/>
      </defs>
      <g>
       <use xlink:href="#m4f2ec35384" x="56.5325" y="273.62175" style="fill: #374151; stroke: #374151; stroke-width: 0.8"/>
      </g>
     </g>
     <g id="text_10">
      <!-- 0.00 -->
      <g style="fill: #374151" transform="translate(22.81375 278.180813) scale(0.12 -0.12)">
       <use xlink:href="#DejaVuSans-30"/>
       <use xlink:href="#DejaVuSans-2e" transform="translate(63.623047 0)"/>
       <use xlink:href="#DejaVuSans-30" transform="translate(95.410156 0)"/>
       <use xlink:href="#DejaVuSans-30" transform="translate(159.033203 0)"/>
      </g>
     </g>
    </g>
    <g id="ytick_2">
     <g id="line2d_11">
      <path d="M 56.5325 221.540666 
L 502.9325 221.540666 
" clip-path="url(#pc47dd74c9b)" style="fill: none; stroke: #b0b0b0; stroke-opacity: 0.25; stroke-width: 0.8; stroke-linecap: square"/>
     </g>
     <g id="line2d_12">
      <g>
       <use xlink:href="#m4f2ec35384" x="56.5325" y="221.540666" style="fill: #374151; stroke: #374151; stroke-width: 0.8"/>
      </g>
     </g>
     <g id="text_11">
      <!-- 0.01 -->
      <g style="fill: #374151" transform="translate(22.81375 226.099728) scale(0.12 -0.12)">
       <use xlink:href="#DejaVuSans-30"/>
       <use xlink:href="#DejaVuSans-2e" transform="translate(63.623047 0)"/>
       <use xlink:href="#DejaVuSans-30" transform="translate(95.410156 0)"/>
       <use xlink:href="#DejaVuSans-31" transform="translate(159.033203 0)"/>
      </g>
     </g>
    </g>
    <g id="ytick_3">
     <g id="line2d_13">
      <path d="M 56.5325 169.459582 
L 502.9325 169.459582 
" clip-path="url(#pc47dd74c9b)" style="fill: none; stroke: #b0b0b0; stroke-opacity: 0.25; stroke-width: 0.8; stroke-linecap: square"/>
     </g>
     <g id="line2d_14">
      <g>
       <use xlink:href="#m4f2ec35384" x="56.5325" y="169.459582" style="fill: #374151; stroke: #374151; stroke-width: 0.8"/>
      </g>
     </g>
     <g id="text_12">
      <!-- 0.02 -->
      <g style="fill: #374151" transform="translate(22.81375 174.018644) scale(0.12 -0.12)">
       <use xlink:href="#DejaVuSans-30"/>
       <use xlink:href="#DejaVuSans-2e" transform="translate(63.623047 0)"/>
       <use xlink:href="#DejaVuSans-30" transform="translate(95.410156 0)"/>
       <use xlink:href="#DejaVuSans-32" transform="translate(159.033203 0)"/>
      </g>
     </g>
    </g>
    <g id="ytick_4">
     <g id="line2d_15">
      <path d="M 56.5325 117.378497 
L 502.9325 117.378497 
" clip-path="url(#pc47dd74c9b)" style="fill: none; stroke: #b0b0b0; stroke-opacity: 0.25; stroke-width: 0.8; stroke-linecap: square"/>
     </g>
     <g id="line2d_16">
      <g>
       <use xlink:href="#m4f2ec35384" x="56.5325" y="117.378497" style="fill: #374151; stroke: #374151; stroke-width: 0.8"/>
      </g>
     </g>
     <g id="text_13">
      <!-- 0.03 -->
      <g style="fill: #374151" transform="translate(22.81375 121.93756) scale(0.12 -0.12)">
       <use xlink:href="#DejaVuSans-30"/>
       <use xlink:href="#DejaVuSans-2e" transform="translate(63.623047 0)"/>
       <use xlink:href="#DejaVuSans-30" transform="translate(95.410156 0)"/>
       <use xlink:href="#DejaVuSans-33" transform="translate(159.033203 0)"/>
      </g>
     </g>
    </g>
    <g id="ytick_5">
     <g id="line2d_17">
      <path d="M 56.5325 65.297413 
L 502.9325 65.297413 
" clip-path="url(#pc47dd74c9b)" style="fill: none; stroke: #b0b0b0; stroke-opacity: 0.25; stroke-width: 0.8; stroke-linecap: square"/>
     </g>
     <g id="line2d_18">
      <g>
       <use xlink:href="#m4f2ec35384" x="56.5325" y="65.297413" style="fill: #374151; stroke: #374151; stroke-width: 0.8"/>
      </g>
     </g>
     <g id="text_14">
      <!-- 0.04 -->
      <g style="fill: #374151" transform="translate(22.81375 69.856476) scale(0.12 -0.12)">
       <use xlink:href="#DejaVuSans-30"/>
       <use xlink:href="#DejaVuSans-2e" transform="translate(63.623047 0)"/>
       <use xlink:href="#DejaVuSans-30" transform="translate(95.410156 0)"/>
       <use xlink:href="#DejaVuSans-34" transform="translate(159.033203 0)"/>
      </g>
     </g>
    </g>
    <g id="text_15">
     <!-- P(reject H0) for rule X &gt;= 18 -->
     <g style="fill: #1f2937" transform="translate(16.318125 235.66425) rotate(-90) scale(0.12 -0.12)">
      <defs>
       <path id="DejaVuSans-28" d="M 1984 4856 
Q 1566 4138 1362 3434 
Q 1159 2731 1159 2009 
Q 1159 1288 1364 580 
Q 1569 -128 1984 -844 
L 1484 -844 
Q 1016 -109 783 600 
Q 550 1309 550 2009 
Q 550 2706 781 3412 
Q 1013 4119 1484 4856 
L 1984 4856 
z
" transform="scale(0.015625)"/>
       <path id="DejaVuSans-6a" d="M 603 3500 
L 1178 3500 
L 1178 -63 
Q 1178 -731 923 -1031 
Q 669 -1331 103 -1331 
L -116 -1331 
L -116 -844 
L 38 -844 
Q 366 -844 484 -692 
Q 603 -541 603 -63 
L 603 3500 
z
M 603 4863 
L 1178 4863 
L 1178 4134 
L 603 4134 
L 603 4863 
z
" transform="scale(0.015625)"/>
       <path id="DejaVuSans-63" d="M 3122 3366 
L 3122 2828 
Q 2878 2963 2633 3030 
Q 2388 3097 2138 3097 
Q 1578 3097 1268 2742 
Q 959 2388 959 1747 
Q 959 1106 1268 751 
Q 1578 397 2138 397 
Q 2388 397 2633 464 
Q 2878 531 3122 666 
L 3122 134 
Q 2881 22 2623 -34 
Q 2366 -91 2075 -91 
Q 1284 -91 818 406 
Q 353 903 353 1747 
Q 353 2603 823 3093 
Q 1294 3584 2113 3584 
Q 2378 3584 2631 3529 
Q 2884 3475 3122 3366 
z
" transform="scale(0.015625)"/>
       <path id="DejaVuSans-74" d="M 1172 4494 
L 1172 3500 
L 2356 3500 
L 2356 3053 
L 1172 3053 
L 1172 1153 
Q 1172 725 1289 603 
Q 1406 481 1766 481 
L 2356 481 
L 2356 0 
L 1766 0 
Q 1100 0 847 248 
Q 594 497 594 1153 
L 594 3053 
L 172 3053 
L 172 3500 
L 594 3500 
L 594 4494 
L 1172 4494 
z
" transform="scale(0.015625)"/>
       <path id="DejaVuSans-29" d="M 513 4856 
L 1013 4856 
Q 1481 4119 1714 3412 
Q 1947 2706 1947 2009 
Q 1947 1309 1714 600 
Q 1481 -109 1013 -844 
L 513 -844 
Q 928 -128 1133 580 
Q 1338 1288 1338 2009 
Q 1338 2731 1133 3434 
Q 928 4138 513 4856 
z
" transform="scale(0.015625)"/>
       <path id="DejaVuSans-58" d="M 403 4666 
L 1081 4666 
L 2241 2931 
L 3406 4666 
L 4084 4666 
L 2584 2425 
L 4184 0 
L 3506 0 
L 2194 1984 
L 872 0 
L 191 0 
L 1856 2491 
L 403 4666 
z
" transform="scale(0.015625)"/>
       <path id="DejaVuSans-3e" d="M 678 3150 
L 678 3719 
L 4684 2266 
L 4684 1747 
L 678 294 
L 678 863 
L 3897 2003 
L 678 3150 
z
" transform="scale(0.015625)"/>
       <path id="DejaVuSans-38" d="M 2034 2216 
Q 1584 2216 1326 1975 
Q 1069 1734 1069 1313 
Q 1069 891 1326 650 
Q 1584 409 2034 409 
Q 2484 409 2743 651 
Q 3003 894 3003 1313 
Q 3003 1734 2745 1975 
Q 2488 2216 2034 2216 
z
M 1403 2484 
Q 997 2584 770 2862 
Q 544 3141 544 3541 
Q 544 4100 942 4425 
Q 1341 4750 2034 4750 
Q 2731 4750 3128 4425 
Q 3525 4100 3525 3541 
Q 3525 3141 3298 2862 
Q 3072 2584 2669 2484 
Q 3125 2378 3379 2068 
Q 3634 1759 3634 1313 
Q 3634 634 3220 271 
Q 2806 -91 2034 -91 
Q 1263 -91 848 271 
Q 434 634 434 1313 
Q 434 1759 690 2068 
Q 947 2378 1403 2484 
z
M 1172 3481 
Q 1172 3119 1398 2916 
Q 1625 2713 2034 2713 
Q 2441 2713 2670 2916 
Q 2900 3119 2900 3481 
Q 2900 3844 2670 4047 
Q 2441 4250 2034 4250 
Q 1625 4250 1398 4047 
Q 1172 3844 1172 3481 
z
" transform="scale(0.015625)"/>
      </defs>
      <use xlink:href="#DejaVuSans-50"/>
      <use xlink:href="#DejaVuSans-28" transform="translate(60.302734 0)"/>
      <use xlink:href="#DejaVuSans-72" transform="translate(99.316406 0)"/>
      <use xlink:href="#DejaVuSans-65" transform="translate(138.179688 0)"/>
      <use xlink:href="#DejaVuSans-6a" transform="translate(199.703125 0)"/>
      <use xlink:href="#DejaVuSans-65" transform="translate(227.486328 0)"/>
      <use xlink:href="#DejaVuSans-63" transform="translate(289.009766 0)"/>
      <use xlink:href="#DejaVuSans-74" transform="translate(343.990234 0)"/>
      <use xlink:href="#DejaVuSans-20" transform="translate(383.199219 0)"/>
      <use xlink:href="#DejaVuSans-48" transform="translate(414.986328 0)"/>
      <use xlink:href="#DejaVuSans-30" transform="translate(490.181641 0)"/>
      <use xlink:href="#DejaVuSans-29" transform="translate(553.804688 0)"/>
      <use xlink:href="#DejaVuSans-20" transform="translate(592.818359 0)"/>
      <use xlink:href="#DejaVuSans-66" transform="translate(624.605469 0)"/>
      <use xlink:href="#DejaVuSans-6f" transform="translate(659.810547 0)"/>
      <use xlink:href="#DejaVuSans-72" transform="translate(720.992188 0)"/>
      <use xlink:href="#DejaVuSans-20" transform="translate(762.105469 0)"/>
      <use xlink:href="#DejaVuSans-72" transform="translate(793.892578 0)"/>
      <use xlink:href="#DejaVuSans-75" transform="translate(835.005859 0)"/>
      <use xlink:href="#DejaVuSans-6c" transform="translate(898.384766 0)"/>
      <use xlink:href="#DejaVuSans-65" transform="translate(926.167969 0)"/>
      <use xlink:href="#DejaVuSans-20" transform="translate(987.691406 0)"/>
      <use xlink:href="#DejaVuSans-58" transform="translate(1019.478516 0)"/>
      <use xlink:href="#DejaVuSans-20" transform="translate(1087.984375 0)"/>
      <use xlink:href="#DejaVuSans-3e" transform="translate(1119.771484 0)"/>
      <use xlink:href="#DejaVuSans-3d" transform="translate(1203.560547 0)"/>
      <use xlink:href="#DejaVuSans-20" transform="translate(1287.349609 0)"/>
      <use xlink:href="#DejaVuSans-31" transform="translate(1319.136719 0)"/>
      <use xlink:href="#DejaVuSans-38" transform="translate(1382.759766 0)"/>
     </g>
    </g>
   </g>
   <g id="line2d_19">
    <path d="M 76.823409 273.62175 
L 328.430682 273.519224 
L 347.368864 273.281798 
L 359.543409 272.923353 
L 369.0125 272.429395 
L 377.128864 271.766628 
L 383.8925 270.970022 
L 389.303409 270.117341 
L 394.714318 269.018345 
L 398.7725 267.995111 
L 402.830682 266.766696 
L 406.888864 265.296622 
L 410.947045 263.542831 
L 415.005227 261.45699 
L 417.710682 259.854934 
L 420.416136 258.062555 
L 423.121591 256.059892 
L 425.827045 253.825208 
L 428.5325 251.334863 
L 431.237955 248.563189 
L 433.943409 245.482363 
L 436.648864 242.062264 
L 439.354318 238.270336 
L 442.059773 234.071452 
L 444.765227 229.427761 
L 447.470682 224.298548 
L 450.176136 218.640086 
L 452.881591 212.405491 
L 455.587045 205.544577 
L 458.2925 198.003713 
L 460.997955 189.725689 
L 463.703409 180.649582 
L 466.408864 170.710635 
L 469.114318 159.84014 
L 471.819773 147.96534 
L 474.525227 135.009338 
L 477.230682 120.89103 
L 479.936136 105.525051 
L 482.641591 88.82175 
L 482.641591 88.82175 
" clip-path="url(#pc47dd74c9b)" style="fill: none; stroke: #2563eb; stroke-width: 3; stroke-linecap: square"/>
   </g>
   <g id="line2d_20">
    <path d="M 482.641591 273.62175 
L 482.641591 24.14175 
" clip-path="url(#pc47dd74c9b)" style="fill: none; stroke: #dc2626; stroke-width: 2.5; stroke-linecap: square"/>
   </g>
   <g id="patch_3">
    <path d="M 56.5325 273.62175 
L 56.5325 24.14175 
" style="fill: none; stroke: #9aa4b2; stroke-width: 0.8; stroke-linejoin: miter; stroke-linecap: square"/>
   </g>
   <g id="patch_4">
    <path d="M 56.5325 273.62175 
L 502.9325 273.62175 
" style="fill: none; stroke: #9aa4b2; stroke-width: 0.8; stroke-linejoin: miter; stroke-linecap: square"/>
   </g>
   <g id="text_16">
    <!-- largest Type I error -->
    <g style="fill: #991b1b" transform="translate(379.100653 42.967849) scale(0.11 -0.11)">
     <defs>
      <path id="DejaVuSans-67" d="M 2906 1791 
Q 2906 2416 2648 2759 
Q 2391 3103 1925 3103 
Q 1463 3103 1205 2759 
Q 947 2416 947 1791 
Q 947 1169 1205 825 
Q 1463 481 1925 481 
Q 2391 481 2648 825 
Q 2906 1169 2906 1791 
z
M 3481 434 
Q 3481 -459 3084 -895 
Q 2688 -1331 1869 -1331 
Q 1566 -1331 1297 -1286 
Q 1028 -1241 775 -1147 
L 775 -588 
Q 1028 -725 1275 -790 
Q 1522 -856 1778 -856 
Q 2344 -856 2625 -561 
Q 2906 -266 2906 331 
L 2906 616 
Q 2728 306 2450 153 
Q 2172 0 1784 0 
Q 1141 0 747 490 
Q 353 981 353 1791 
Q 353 2603 747 3093 
Q 1141 3584 1784 3584 
Q 2172 3584 2450 3431 
Q 2728 3278 2906 2969 
L 2906 3500 
L 3481 3500 
L 3481 434 
z
" transform="scale(0.015625)"/>
      <path id="DejaVuSans-54" d="M -19 4666 
L 3928 4666 
L 3928 4134 
L 2272 4134 
L 2272 0 
L 1638 0 
L 1638 4134 
L -19 4134 
L -19 4666 
z
" transform="scale(0.015625)"/>
      <path id="DejaVuSans-79" d="M 2059 -325 
Q 1816 -950 1584 -1140 
Q 1353 -1331 966 -1331 
L 506 -1331 
L 506 -850 
L 844 -850 
Q 1081 -850 1212 -737 
Q 1344 -625 1503 -206 
L 1606 56 
L 191 3500 
L 800 3500 
L 1894 763 
L 2988 3500 
L 3597 3500 
L 2059 -325 
z
" transform="scale(0.015625)"/>
      <path id="DejaVuSans-49" d="M 628 4666 
L 1259 4666 
L 1259 0 
L 628 0 
L 628 4666 
z
" transform="scale(0.015625)"/>
     </defs>
     <use xlink:href="#DejaVuSans-6c"/>
     <use xlink:href="#DejaVuSans-61" transform="translate(27.783203 0)"/>
     <use xlink:href="#DejaVuSans-72" transform="translate(89.0625 0)"/>
     <use xlink:href="#DejaVuSans-67" transform="translate(128.425781 0)"/>
     <use xlink:href="#DejaVuSans-65" transform="translate(191.902344 0)"/>
     <use xlink:href="#DejaVuSans-73" transform="translate(253.425781 0)"/>
     <use xlink:href="#DejaVuSans-74" transform="translate(305.525391 0)"/>
     <use xlink:href="#DejaVuSans-20" transform="translate(344.734375 0)"/>
     <use xlink:href="#DejaVuSans-54" transform="translate(376.521484 0)"/>
     <use xlink:href="#DejaVuSans-79" transform="translate(421.980469 0)"/>
     <use xlink:href="#DejaVuSans-70" transform="translate(481.160156 0)"/>
     <use xlink:href="#DejaVuSans-65" transform="translate(544.636719 0)"/>
     <use xlink:href="#DejaVuSans-20" transform="translate(606.160156 0)"/>
     <use xlink:href="#DejaVuSans-49" transform="translate(637.947266 0)"/>
     <use xlink:href="#DejaVuSans-20" transform="translate(667.439453 0)"/>
     <use xlink:href="#DejaVuSans-65" transform="translate(699.226562 0)"/>
     <use xlink:href="#DejaVuSans-72" transform="translate(760.75 0)"/>
     <use xlink:href="#DejaVuSans-72" transform="translate(800.113281 0)"/>
     <use xlink:href="#DejaVuSans-6f" transform="translate(838.976562 0)"/>
     <use xlink:href="#DejaVuSans-72" transform="translate(900.158203 0)"/>
    </g>
    <!-- occurs at boundary -->
    <g style="fill: #991b1b" transform="translate(376.132372 55.285443) scale(0.11 -0.11)">
     <use xlink:href="#DejaVuSans-6f"/>
     <use xlink:href="#DejaVuSans-63" transform="translate(61.181641 0)"/>
     <use xlink:href="#DejaVuSans-63" transform="translate(116.162109 0)"/>
     <use xlink:href="#DejaVuSans-75" transform="translate(171.142578 0)"/>
     <use xlink:href="#DejaVuSans-72" transform="translate(234.521484 0)"/>
     <use xlink:href="#DejaVuSans-73" transform="translate(275.634766 0)"/>
     <use xlink:href="#DejaVuSans-20" transform="translate(327.734375 0)"/>
     <use xlink:href="#DejaVuSans-61" transform="translate(359.521484 0)"/>
     <use xlink:href="#DejaVuSans-74" transform="translate(420.800781 0)"/>
     <use xlink:href="#DejaVuSans-20" transform="translate(460.009766 0)"/>
     <use xlink:href="#DejaVuSans-62" transform="translate(491.796875 0)"/>
     <use xlink:href="#DejaVuSans-6f" transform="translate(555.273438 0)"/>
     <use xlink:href="#DejaVuSans-75" transform="translate(616.455078 0)"/>
     <use xlink:href="#DejaVuSans-6e" transform="translate(679.833984 0)"/>
     <use xlink:href="#DejaVuSans-64" transform="translate(743.212891 0)"/>
     <use xlink:href="#DejaVuSans-61" transform="translate(806.689453 0)"/>
     <use xlink:href="#DejaVuSans-72" transform="translate(867.96875 0)"/>
     <use xlink:href="#DejaVuSans-79" transform="translate(909.082031 0)"/>
    </g>
   </g>
   <g id="text_17">
    <!-- Why the Boundary Value Matters -->
    <g transform="translate(160.960625 18.14175) scale(0.144 -0.144)">
     <defs>
      <path id="DejaVuSans-57" d="M 213 4666 
L 850 4666 
L 1831 722 
L 2809 4666 
L 3519 4666 
L 4500 722 
L 5478 4666 
L 6119 4666 
L 4947 0 
L 4153 0 
L 3169 4050 
L 2175 0 
L 1381 0 
L 213 4666 
z
" transform="scale(0.015625)"/>
      <path id="DejaVuSans-68" d="M 3513 2113 
L 3513 0 
L 2938 0 
L 2938 2094 
Q 2938 2591 2744 2837 
Q 2550 3084 2163 3084 
Q 1697 3084 1428 2787 
Q 1159 2491 1159 1978 
L 1159 0 
L 581 0 
L 581 4863 
L 1159 4863 
L 1159 2956 
Q 1366 3272 1645 3428 
Q 1925 3584 2291 3584 
Q 2894 3584 3203 3211 
Q 3513 2838 3513 2113 
z
" transform="scale(0.015625)"/>
      <path id="DejaVuSans-42" d="M 1259 2228 
L 1259 519 
L 2272 519 
Q 2781 519 3026 730 
Q 3272 941 3272 1375 
Q 3272 1813 3026 2020 
Q 2781 2228 2272 2228 
L 1259 2228 
z
M 1259 4147 
L 1259 2741 
L 2194 2741 
Q 2656 2741 2882 2914 
Q 3109 3088 3109 3444 
Q 3109 3797 2882 3972 
Q 2656 4147 2194 4147 
L 1259 4147 
z
M 628 4666 
L 2241 4666 
Q 2963 4666 3353 4366 
Q 3744 4066 3744 3513 
Q 3744 3084 3544 2831 
Q 3344 2578 2956 2516 
Q 3422 2416 3680 2098 
Q 3938 1781 3938 1306 
Q 3938 681 3513 340 
Q 3088 0 2303 0 
L 628 0 
L 628 4666 
z
" transform="scale(0.015625)"/>
      <path id="DejaVuSans-56" d="M 1831 0 
L 50 4666 
L 709 4666 
L 2188 738 
L 3669 4666 
L 4325 4666 
L 2547 0 
L 1831 0 
z
" transform="scale(0.015625)"/>
      <path id="DejaVuSans-4d" d="M 628 4666 
L 1569 4666 
L 2759 1491 
L 3956 4666 
L 4897 4666 
L 4897 0 
L 4281 0 
L 4281 4097 
L 3078 897 
L 2444 897 
L 1241 4097 
L 1241 0 
L 628 0 
L 628 4666 
z
" transform="scale(0.015625)"/>
     </defs>
     <use xlink:href="#DejaVuSans-57"/>
     <use xlink:href="#DejaVuSans-68" transform="translate(98.876953 0)"/>
     <use xlink:href="#DejaVuSans-79" transform="translate(162.255859 0)"/>
     <use xlink:href="#DejaVuSans-20" transform="translate(221.435547 0)"/>
     <use xlink:href="#DejaVuSans-74" transform="translate(253.222656 0)"/>
     <use xlink:href="#DejaVuSans-68" transform="translate(292.431641 0)"/>
     <use xlink:href="#DejaVuSans-65" transform="translate(355.810547 0)"/>
     <use xlink:href="#DejaVuSans-20" transform="translate(417.333984 0)"/>
     <use xlink:href="#DejaVuSans-42" transform="translate(449.121094 0)"/>
     <use xlink:href="#DejaVuSans-6f" transform="translate(517.724609 0)"/>
     <use xlink:href="#DejaVuSans-75" transform="translate(578.90625 0)"/>
     <use xlink:href="#DejaVuSans-6e" transform="translate(642.285156 0)"/>
     <use xlink:href="#DejaVuSans-64" transform="translate(705.664062 0)"/>
     <use xlink:href="#DejaVuSans-61" transform="translate(769.140625 0)"/>
     <use xlink:href="#DejaVuSans-72" transform="translate(830.419922 0)"/>
     <use xlink:href="#DejaVuSans-79" transform="translate(871.533203 0)"/>
     <use xlink:href="#DejaVuSans-20" transform="translate(930.712891 0)"/>
     <use xlink:href="#DejaVuSans-56" transform="translate(962.5 0)"/>
     <use xlink:href="#DejaVuSans-61" transform="translate(1023.158203 0)"/>
     <use xlink:href="#DejaVuSans-6c" transform="translate(1084.4375 0)"/>
     <use xlink:href="#DejaVuSans-75" transform="translate(1112.220703 0)"/>
     <use xlink:href="#DejaVuSans-65" transform="translate(1175.599609 0)"/>
     <use xlink:href="#DejaVuSans-20" transform="translate(1237.123047 0)"/>
     <use xlink:href="#DejaVuSans-4d" transform="translate(1268.910156 0)"/>
     <use xlink:href="#DejaVuSans-61" transform="translate(1355.189453 0)"/>
     <use xlink:href="#DejaVuSans-74" transform="translate(1416.46875 0)"/>
     <use xlink:href="#DejaVuSans-74" transform="translate(1455.677734 0)"/>
     <use xlink:href="#DejaVuSans-65" transform="translate(1494.886719 0)"/>
     <use xlink:href="#DejaVuSans-72" transform="translate(1556.410156 0)"/>
     <use xlink:href="#DejaVuSans-73" transform="translate(1597.523438 0)"/>
    </g>
   </g>
   <g id="PathCollection_1">
    <defs>
     <path id="m436ea0dbed" d="M 0 4.743416 
C 1.257969 4.743416 2.464584 4.24362 3.354102 3.354102 
C 4.24362 2.464584 4.743416 1.257969 4.743416 0 
C 4.743416 -1.257969 4.24362 -2.464584 3.354102 -3.354102 
C 2.464584 -4.24362 1.257969 -4.743416 0 -4.743416 
C -1.257969 -4.743416 -2.464584 -4.24362 -3.354102 -3.354102 
C -4.24362 -2.464584 -4.743416 -1.257969 -4.743416 0 
C -4.743416 1.257969 -4.24362 2.464584 -3.354102 3.354102 
C -2.464584 4.24362 -1.257969 4.743416 0 4.743416 
z
" style="stroke: #dc2626"/>
    </defs>
    <g clip-path="url(#pc47dd74c9b)">
     <use xlink:href="#m436ea0dbed" x="482.641591" y="88.82175" style="fill: #dc2626; stroke: #dc2626"/>
    </g>
   </g>
  </g>
 </g>
 <defs>
  <clipPath id="pc47dd74c9b">
   <rect x="56.5325" y="24.14175" width="446.4" height="249.48"/>
  </clipPath>
 </defs>
</svg>
