<?xml version="1.0" encoding="utf-8" standalone="no"?>
<!DOCTYPE svg PUBLIC "-//W3C//DTD SVG 1.1//EN"
  "http://www.w3.org/Graphics/SVG/1.1/DTD/svg11.dtd">
<svg xmlns:xlink="http://www.w3.org/1999/xlink" width="550.08pt" height="226.014125pt" viewBox="0 0 550.08 226.014125" xmlns="http://www.w3.org/2000/svg" version="1.1">
 <metadata>
  <rdf:RDF xmlns:dc="http://purl.org/dc/elements/1.1/" xmlns:cc="http://creativecommons.org/ns#" xmlns:rdf="http://www.w3.org/1999/02/22-rdf-syntax-ns#">
   <cc:Work>
    <dc:type rdf:resource="http://purl.org/dc/dcmitype/StillImage"/>
    <dc:date>2026-05-27T00:47:59.689544</dc:date>
    <dc:format>image/svg+xml</dc:format>
    <dc:creator>
     <cc:Agent>
      <dc:title>Matplotlib v3.10.8, https://matplotlib.org/</dc:title>
     </cc:Agent>
    </dc:creator>
   </cc:Work>
  </rdf:RDF>
 </metadata>
 <defs>
  <style type="text/css">*{stroke-linejoin: round; stroke-linecap: butt}</style>
 </defs>
 <g id="figure_1">
  <g id="patch_1">
   <path d="M 0 226.014125 
L 550.08 226.014125 
L 550.08 0 
L 0 0 
z
" style="fill: #ffffff"/>
  </g>
  <g id="axes_1">
   <g id="FillBetweenPolyCollection_1">
    <defs>
     <path id="m86b77ad50b" d="M 39.3408 -62.49216 
L 39.3408 -52.43904 
L 200.0448 -52.43904 
L 200.0448 -62.49216 
L 200.0448 -62.49216 
L 39.3408 -62.49216 
z
" style="stroke: #ef4444; stroke-opacity: 0.3"/>
    </defs>
    <g clip-path="url(#p90c25de397)">
     <use xlink:href="#m86b77ad50b" x="0" y="226.014125" style="fill: #ef4444; fill-opacity: 0.3; stroke: #ef4444; stroke-opacity: 0.3"/>
    </g>
   </g>
   <g id="FillBetweenPolyCollection_2">
    <defs>
     <path id="mea76a4c1c2" d="M 350.0352 -62.49216 
L 350.0352 -52.43904 
L 516.096 -52.43904 
L 516.096 -62.49216 
L 516.096 -62.49216 
L 350.0352 -62.49216 
z
" style="stroke: #ef4444; stroke-opacity: 0.3"/>
    </defs>
    <g clip-path="url(#p90c25de397)">
     <use xlink:href="#mea76a4c1c2" x="0" y="226.014125" style="fill: #ef4444; fill-opacity: 0.3; stroke: #ef4444; stroke-opacity: 0.3"/>
    </g>
   </g>
   <g id="FillBetweenPolyCollection_3">
    <defs>
     <path id="m0f55070355" d="M 200.0448 -63.7488 
L 200.0448 -51.1824 
L 350.0352 -51.1824 
L 350.0352 -63.7488 
L 350.0352 -63.7488 
L 200.0448 -63.7488 
z
" style="stroke: #dceadd; stroke-opacity: 0.95"/>
    </defs>
    <g clip-path="url(#p90c25de397)">
     <use xlink:href="#m0f55070355" x="0" y="226.014125" style="fill: #dceadd; fill-opacity: 0.95; stroke: #dceadd; stroke-opacity: 0.95"/>
    </g>
   </g>
   <g id="line2d_1">
    <path d="M 200.0448 178.601645 
L 200.0448 158.495405 
" clip-path="url(#p90c25de397)" style="fill: none; stroke: #4a7c59; stroke-width: 2.4; stroke-linecap: square"/>
   </g>
   <g id="line2d_2">
    <path d="M 350.0352 178.601645 
L 350.0352 158.495405 
" clip-path="url(#p90c25de397)" style="fill: none; stroke: #4a7c59; stroke-width: 2.4; stroke-linecap: square"/>
   </g>
   <g id="line2d_3">
    <path d="M 200.0448 168.548525 
L 350.0352 168.548525 
" clip-path="url(#p90c25de397)" style="fill: none; stroke: #4a7c59; stroke-width: 3; stroke-linecap: square"/>
   </g>
   <g id="line2d_4">
    <defs>
     <path id="m72102fce32" d="M -0 5.5 
L 5.5 -5.5 
L -5.5 -5.5 
z
" style="stroke: #166534; stroke-linejoin: miter"/>
    </defs>
    <g clip-path="url(#p90c25de397)">
     <use xlink:href="#m72102fce32" x="275.04" y="168.548525" style="fill: #166534; stroke: #166534; stroke-linejoin: miter"/>
    </g>
   </g>
   <g id="patch_2">
    <path d="M 25.269923 168.548525 
Q 277.718461 168.548525 528.378145 168.548525 
" style="fill: none; stroke: #374151; stroke-width: 1.6; stroke-linecap: round"/>
    <path d="M 523.978145 166.348525 
L 528.378145 168.548525 
L 523.978145 170.748525 
z
" style="fill: #374151; stroke: #374151; stroke-width: 1.6; stroke-linecap: round"/>
   </g>
   <g id="text_1">
    <!-- candidate values of the parameter -->
    <g style="fill: #374151" transform="translate(192.522109 192.424685) scale(0.095 -0.095)">
     <defs>
      <path id="DejaVuSans-Oblique-63" d="M 3431 3366 
L 3316 2797 
Q 3109 2947 2876 3022 
Q 2644 3097 2394 3097 
Q 2119 3097 1870 3000 
Q 1622 2903 1453 2725 
Q 1184 2453 1037 2087 
Q 891 1722 891 1331 
Q 891 859 1127 628 
Q 1363 397 1844 397 
Q 2081 397 2348 469 
Q 2616 541 2906 684 
L 2797 116 
Q 2547 13 2283 -39 
Q 2019 -91 1741 -91 
Q 1044 -91 669 257 
Q 294 606 294 1253 
Q 294 1797 489 2255 
Q 684 2713 1069 3078 
Q 1331 3328 1684 3456 
Q 2038 3584 2456 3584 
Q 2700 3584 2940 3529 
Q 3181 3475 3431 3366 
z
" transform="scale(0.015625)"/>
      <path id="DejaVuSans-Oblique-61" d="M 3438 1997 
L 3047 0 
L 2472 0 
L 2578 531 
Q 2325 219 2001 64 
Q 1678 -91 1281 -91 
Q 834 -91 548 182 
Q 263 456 263 884 
Q 263 1497 752 1853 
Q 1241 2209 2100 2209 
L 2900 2209 
L 2931 2363 
Q 2938 2388 2941 2417 
Q 2944 2447 2944 2509 
Q 2944 2788 2717 2942 
Q 2491 3097 2081 3097 
Q 1800 3097 1504 3025 
Q 1209 2953 897 2809 
L 997 3341 
Q 1322 3463 1633 3523 
Q 1944 3584 2234 3584 
Q 2853 3584 3176 3315 
Q 3500 3047 3500 2534 
Q 3500 2431 3484 2292 
Q 3469 2153 3438 1997 
z
M 2816 1759 
L 2241 1759 
Q 1534 1759 1195 1570 
Q 856 1381 856 984 
Q 856 709 1029 553 
Q 1203 397 1509 397 
Q 1978 397 2328 733 
Q 2678 1069 2791 1631 
L 2816 1759 
z
" transform="scale(0.015625)"/>
      <path id="DejaVuSans-Oblique-6e" d="M 3566 2113 
L 3156 0 
L 2578 0 
L 2988 2091 
Q 3016 2238 3031 2350 
Q 3047 2463 3047 2528 
Q 3047 2791 2881 2937 
Q 2716 3084 2419 3084 
Q 1956 3084 1622 2776 
Q 1288 2469 1184 1941 
L 800 0 
L 225 0 
L 903 3500 
L 1478 3500 
L 1363 2950 
Q 1603 3253 1940 3418 
Q 2278 3584 2650 3584 
Q 3113 3584 3367 3334 
Q 3622 3084 3622 2631 
Q 3622 2519 3608 2391 
Q 3594 2263 3566 2113 
z
" transform="scale(0.015625)"/>
      <path id="DejaVuSans-Oblique-64" d="M 2675 525 
Q 2444 222 2128 65 
Q 1813 -91 1428 -91 
Q 903 -91 598 267 
Q 294 625 294 1247 
Q 294 1766 478 2236 
Q 663 2706 1013 3078 
Q 1244 3325 1534 3454 
Q 1825 3584 2144 3584 
Q 2481 3584 2739 3421 
Q 2997 3259 3138 2956 
L 3513 4863 
L 4091 4863 
L 3144 0 
L 2566 0 
L 2675 525 
z
M 891 1350 
Q 891 897 1095 644 
Q 1300 391 1663 391 
Q 1931 391 2161 520 
Q 2391 650 2566 903 
Q 2750 1166 2856 1509 
Q 2963 1853 2963 2188 
Q 2963 2622 2758 2865 
Q 2553 3109 2194 3109 
Q 1922 3109 1687 2981 
Q 1453 2853 1288 2613 
Q 1106 2353 998 2009 
Q 891 1666 891 1350 
z
" transform="scale(0.015625)"/>
      <path id="DejaVuSans-Oblique-69" d="M 1172 4863 
L 1747 4863 
L 1606 4134 
L 1031 4134 
L 1172 4863 
z
M 909 3500 
L 1484 3500 
L 800 0 
L 225 0 
L 909 3500 
z
" transform="scale(0.015625)"/>
      <path id="DejaVuSans-Oblique-74" d="M 2706 3500 
L 2619 3053 
L 1472 3053 
L 1100 1153 
Q 1081 1047 1072 975 
Q 1063 903 1063 863 
Q 1063 663 1183 572 
Q 1303 481 1569 481 
L 2150 481 
L 2053 0 
L 1503 0 
Q 991 0 739 200 
Q 488 400 488 806 
Q 488 878 497 964 
Q 506 1050 525 1153 
L 897 3053 
L 409 3053 
L 500 3500 
L 978 3500 
L 1172 4494 
L 1747 4494 
L 1556 3500 
L 2706 3500 
z
" transform="scale(0.015625)"/>
      <path id="DejaVuSans-Oblique-65" d="M 3078 2063 
Q 3088 2113 3092 2166 
Q 3097 2219 3097 2272 
Q 3097 2653 2873 2875 
Q 2650 3097 2266 3097 
Q 1838 3097 1509 2826 
Q 1181 2556 1013 2059 
L 3078 2063 
z
M 3578 1613 
L 903 1613 
Q 884 1494 878 1425 
Q 872 1356 872 1306 
Q 872 872 1139 634 
Q 1406 397 1894 397 
Q 2269 397 2603 481 
Q 2938 566 3225 728 
L 3116 159 
Q 2806 34 2476 -28 
Q 2147 -91 1806 -91 
Q 1078 -91 686 257 
Q 294 606 294 1247 
Q 294 1794 489 2264 
Q 684 2734 1063 3103 
Q 1306 3334 1642 3459 
Q 1978 3584 2356 3584 
Q 2950 3584 3301 3228 
Q 3653 2872 3653 2272 
Q 3653 2128 3634 1964 
Q 3616 1800 3578 1613 
z
" transform="scale(0.015625)"/>
      <path id="DejaVuSans-Oblique-20" transform="scale(0.015625)"/>
      <path id="DejaVuSans-Oblique-76" d="M 459 3500 
L 1069 3500 
L 1581 525 
L 3256 3500 
L 3866 3500 
L 1875 0 
L 1100 0 
L 459 3500 
z
" transform="scale(0.015625)"/>
      <path id="DejaVuSans-Oblique-6c" d="M 1172 4863 
L 1747 4863 
L 800 0 
L 225 0 
L 1172 4863 
z
" transform="scale(0.015625)"/>
      <path id="DejaVuSans-Oblique-75" d="M 428 1388 
L 838 3500 
L 1416 3500 
L 1006 1409 
Q 975 1256 961 1147 
Q 947 1038 947 966 
Q 947 700 1109 554 
Q 1272 409 1569 409 
Q 2031 409 2368 721 
Q 2706 1034 2809 1563 
L 3194 3500 
L 3769 3500 
L 3091 0 
L 2516 0 
L 2631 550 
Q 2388 244 2052 76 
Q 1716 -91 1338 -91 
Q 878 -91 622 161 
Q 366 413 366 863 
Q 366 956 381 1097 
Q 397 1238 428 1388 
z
" transform="scale(0.015625)"/>
      <path id="DejaVuSans-Oblique-73" d="M 3200 3397 
L 3091 2853 
Q 2863 2978 2609 3040 
Q 2356 3103 2088 3103 
Q 1634 3103 1373 2948 
Q 1113 2794 1113 2528 
Q 1113 2219 1719 2053 
Q 1766 2041 1788 2034 
L 1972 1978 
Q 2547 1819 2739 1644 
Q 2931 1469 2931 1166 
Q 2931 609 2489 259 
Q 2047 -91 1331 -91 
Q 1053 -91 747 -37 
Q 441 16 72 128 
L 184 722 
Q 500 559 806 475 
Q 1113 391 1394 391 
Q 1816 391 2080 572 
Q 2344 753 2344 1031 
Q 2344 1331 1650 1516 
L 1591 1531 
L 1394 1581 
Q 956 1697 753 1886 
Q 550 2075 550 2369 
Q 550 2928 970 3256 
Q 1391 3584 2113 3584 
Q 2397 3584 2667 3537 
Q 2938 3491 3200 3397 
z
" transform="scale(0.015625)"/>
      <path id="DejaVuSans-Oblique-6f" d="M 1625 -91 
Q 1009 -91 651 289 
Q 294 669 294 1325 
Q 294 1706 417 2101 
Q 541 2497 738 2766 
Q 1047 3184 1428 3384 
Q 1809 3584 2291 3584 
Q 2888 3584 3255 3212 
Q 3622 2841 3622 2241 
Q 3622 1825 3500 1412 
Q 3378 1000 3181 728 
Q 2875 309 2494 109 
Q 2113 -91 1625 -91 
z
M 891 1344 
Q 891 869 1089 633 
Q 1288 397 1691 397 
Q 2269 397 2648 901 
Q 3028 1406 3028 2181 
Q 3028 2634 2825 2865 
Q 2622 3097 2228 3097 
Q 1903 3097 1650 2945 
Q 1397 2794 1197 2484 
Q 1050 2253 970 1956 
Q 891 1659 891 1344 
z
" transform="scale(0.015625)"/>
      <path id="DejaVuSans-Oblique-66" d="M 3059 4863 
L 2969 4384 
L 2419 4384 
Q 2106 4384 1964 4261 
Q 1822 4138 1753 3809 
L 1691 3500 
L 2638 3500 
L 2553 3053 
L 1606 3053 
L 1013 0 
L 434 0 
L 1031 3053 
L 481 3053 
L 563 3500 
L 1113 3500 
L 1159 3744 
Q 1278 4363 1576 4613 
Q 1875 4863 2516 4863 
L 3059 4863 
z
" transform="scale(0.015625)"/>
      <path id="DejaVuSans-Oblique-68" d="M 3566 2113 
L 3156 0 
L 2578 0 
L 2988 2091 
Q 3016 2238 3031 2350 
Q 3047 2463 3047 2528 
Q 3047 2791 2881 2937 
Q 2716 3084 2419 3084 
Q 1956 3084 1617 2771 
Q 1278 2459 1178 1941 
L 800 0 
L 225 0 
L 1172 4863 
L 1747 4863 
L 1375 2950 
Q 1594 3244 1934 3414 
Q 2275 3584 2650 3584 
Q 3113 3584 3367 3334 
Q 3622 3084 3622 2631 
Q 3622 2519 3608 2391 
Q 3594 2263 3566 2113 
z
" transform="scale(0.015625)"/>
      <path id="DejaVuSans-Oblique-70" d="M 3175 2156 
Q 3175 2616 2975 2859 
Q 2775 3103 2400 3103 
Q 2144 3103 1911 2972 
Q 1678 2841 1497 2591 
Q 1319 2344 1212 1994 
Q 1106 1644 1106 1300 
Q 1106 863 1306 627 
Q 1506 391 1875 391 
Q 2147 391 2380 519 
Q 2613 647 2778 891 
Q 2956 1147 3065 1494 
Q 3175 1841 3175 2156 
z
M 1394 2969 
Q 1625 3272 1939 3428 
Q 2253 3584 2638 3584 
Q 3175 3584 3472 3232 
Q 3769 2881 3769 2247 
Q 3769 1728 3584 1258 
Q 3400 788 3053 416 
Q 2822 169 2531 39 
Q 2241 -91 1919 -91 
Q 1547 -91 1294 64 
Q 1041 219 916 525 
L 556 -1331 
L -19 -1331 
L 922 3500 
L 1497 3500 
L 1394 2969 
z
" transform="scale(0.015625)"/>
      <path id="DejaVuSans-Oblique-72" d="M 2853 2969 
Q 2766 3016 2653 3041 
Q 2541 3066 2413 3066 
Q 1953 3066 1609 2717 
Q 1266 2369 1153 1784 
L 800 0 
L 225 0 
L 909 3500 
L 1484 3500 
L 1375 2956 
Q 1603 3259 1920 3421 
Q 2238 3584 2597 3584 
Q 2691 3584 2781 3573 
Q 2872 3563 2963 3538 
L 2853 2969 
z
" transform="scale(0.015625)"/>
      <path id="DejaVuSans-Oblique-6d" d="M 5747 2113 
L 5338 0 
L 4763 0 
L 5166 2094 
Q 5191 2228 5203 2325 
Q 5216 2422 5216 2491 
Q 5216 2772 5059 2928 
Q 4903 3084 4622 3084 
Q 4203 3084 3875 2770 
Q 3547 2456 3450 1953 
L 3066 0 
L 2491 0 
L 2900 2094 
Q 2925 2209 2937 2307 
Q 2950 2406 2950 2484 
Q 2950 2769 2794 2926 
Q 2638 3084 2363 3084 
Q 1938 3084 1609 2770 
Q 1281 2456 1184 1953 
L 800 0 
L 225 0 
L 909 3500 
L 1484 3500 
L 1375 2956 
Q 1609 3263 1923 3423 
Q 2238 3584 2597 3584 
Q 2978 3584 3223 3384 
Q 3469 3184 3519 2828 
Q 3781 3197 4126 3390 
Q 4472 3584 4856 3584 
Q 5306 3584 5551 3325 
Q 5797 3066 5797 2591 
Q 5797 2488 5784 2364 
Q 5772 2241 5747 2113 
z
" transform="scale(0.015625)"/>
     </defs>
     <use xlink:href="#DejaVuSans-Oblique-63"/>
     <use xlink:href="#DejaVuSans-Oblique-61" transform="translate(54.980469 0)"/>
     <use xlink:href="#DejaVuSans-Oblique-6e" transform="translate(116.259766 0)"/>
     <use xlink:href="#DejaVuSans-Oblique-64" transform="translate(179.638672 0)"/>
     <use xlink:href="#DejaVuSans-Oblique-69" transform="translate(243.115234 0)"/>
     <use xlink:href="#DejaVuSans-Oblique-64" transform="translate(270.898438 0)"/>
     <use xlink:href="#DejaVuSans-Oblique-61" transform="translate(334.375 0)"/>
     <use xlink:href="#DejaVuSans-Oblique-74" transform="translate(395.654297 0)"/>
     <use xlink:href="#DejaVuSans-Oblique-65" transform="translate(434.863281 0)"/>
     <use xlink:href="#DejaVuSans-Oblique-20" transform="translate(496.386719 0)"/>
     <use xlink:href="#DejaVuSans-Oblique-76" transform="translate(528.173828 0)"/>
     <use xlink:href="#DejaVuSans-Oblique-61" transform="translate(587.353516 0)"/>
     <use xlink:href="#DejaVuSans-Oblique-6c" transform="translate(648.632812 0)"/>
     <use xlink:href="#DejaVuSans-Oblique-75" transform="translate(676.416016 0)"/>
     <use xlink:href="#DejaVuSans-Oblique-65" transform="translate(739.794922 0)"/>
     <use xlink:href="#DejaVuSans-Oblique-73" transform="translate(801.318359 0)"/>
     <use xlink:href="#DejaVuSans-Oblique-20" transform="translate(853.417969 0)"/>
     <use xlink:href="#DejaVuSans-Oblique-6f" transform="translate(885.205078 0)"/>
     <use xlink:href="#DejaVuSans-Oblique-66" transform="translate(946.386719 0)"/>
     <use xlink:href="#DejaVuSans-Oblique-20" transform="translate(981.591797 0)"/>
     <use xlink:href="#DejaVuSans-Oblique-74" transform="translate(1013.378906 0)"/>
     <use xlink:href="#DejaVuSans-Oblique-68" transform="translate(1052.587891 0)"/>
     <use xlink:href="#DejaVuSans-Oblique-65" transform="translate(1115.966797 0)"/>
     <use xlink:href="#DejaVuSans-Oblique-20" transform="translate(1177.490234 0)"/>
     <use xlink:href="#DejaVuSans-Oblique-70" transform="translate(1209.277344 0)"/>
     <use xlink:href="#DejaVuSans-Oblique-61" transform="translate(1272.753906 0)"/>
     <use xlink:href="#DejaVuSans-Oblique-72" transform="translate(1334.033203 0)"/>
     <use xlink:href="#DejaVuSans-Oblique-61" transform="translate(1375.146484 0)"/>
     <use xlink:href="#DejaVuSans-Oblique-6d" transform="translate(1436.425781 0)"/>
     <use xlink:href="#DejaVuSans-Oblique-65" transform="translate(1533.837891 0)"/>
     <use xlink:href="#DejaVuSans-Oblique-74" transform="translate(1595.361328 0)"/>
     <use xlink:href="#DejaVuSans-Oblique-65" transform="translate(1634.570312 0)"/>
     <use xlink:href="#DejaVuSans-Oblique-72" transform="translate(1696.09375 0)"/>
    </g>
   </g>
   <g id="text_2">
    <!-- observed -->
    <g style="fill: #166534" transform="translate(254.177578 138.364254) scale(0.09 -0.09)">
     <defs>
      <path id="DejaVuSans-6f" d="M 1959 3097 
Q 1497 3097 1228 2736 
Q 959 2375 959 1747 
Q 959 1119 1226 758 
Q 1494 397 1959 397 
Q 2419 397 2687 759 
Q 2956 1122 2956 1747 
Q 2956 2369 2687 2733 
Q 2419 3097 1959 3097 
z
M 1959 3584 
Q 2709 3584 3137 3096 
Q 3566 2609 3566 1747 
Q 3566 888 3137 398 
Q 2709 -91 1959 -91 
Q 1206 -91 779 398 
Q 353 888 353 1747 
Q 353 2609 779 3096 
Q 1206 3584 1959 3584 
z
" transform="scale(0.015625)"/>
      <path id="DejaVuSans-62" d="M 3116 1747 
Q 3116 2381 2855 2742 
Q 2594 3103 2138 3103 
Q 1681 3103 1420 2742 
Q 1159 2381 1159 1747 
Q 1159 1113 1420 752 
Q 1681 391 2138 391 
Q 2594 391 2855 752 
Q 3116 1113 3116 1747 
z
M 1159 2969 
Q 1341 3281 1617 3432 
Q 1894 3584 2278 3584 
Q 2916 3584 3314 3078 
Q 3713 2572 3713 1747 
Q 3713 922 3314 415 
Q 2916 -91 2278 -91 
Q 1894 -91 1617 61 
Q 1341 213 1159 525 
L 1159 0 
L 581 0 
L 581 4863 
L 1159 4863 
L 1159 2969 
z
" transform="scale(0.015625)"/>
      <path id="DejaVuSans-73" d="M 2834 3397 
L 2834 2853 
Q 2591 2978 2328 3040 
Q 2066 3103 1784 3103 
Q 1356 3103 1142 2972 
Q 928 2841 928 2578 
Q 928 2378 1081 2264 
Q 1234 2150 1697 2047 
L 1894 2003 
Q 2506 1872 2764 1633 
Q 3022 1394 3022 966 
Q 3022 478 2636 193 
Q 2250 -91 1575 -91 
Q 1294 -91 989 -36 
Q 684 19 347 128 
L 347 722 
Q 666 556 975 473 
Q 1284 391 1588 391 
Q 1994 391 2212 530 
Q 2431 669 2431 922 
Q 2431 1156 2273 1281 
Q 2116 1406 1581 1522 
L 1381 1569 
Q 847 1681 609 1914 
Q 372 2147 372 2553 
Q 372 3047 722 3315 
Q 1072 3584 1716 3584 
Q 2034 3584 2315 3537 
Q 2597 3491 2834 3397 
z
" transform="scale(0.015625)"/>
      <path id="DejaVuSans-65" d="M 3597 1894 
L 3597 1613 
L 953 1613 
Q 991 1019 1311 708 
Q 1631 397 2203 397 
Q 2534 397 2845 478 
Q 3156 559 3463 722 
L 3463 178 
Q 3153 47 2828 -22 
Q 2503 -91 2169 -91 
Q 1331 -91 842 396 
Q 353 884 353 1716 
Q 353 2575 817 3079 
Q 1281 3584 2069 3584 
Q 2775 3584 3186 3129 
Q 3597 2675 3597 1894 
z
M 3022 2063 
Q 3016 2534 2758 2815 
Q 2500 3097 2075 3097 
Q 1594 3097 1305 2825 
Q 1016 2553 972 2059 
L 3022 2063 
z
" transform="scale(0.015625)"/>
      <path id="DejaVuSans-72" d="M 2631 2963 
Q 2534 3019 2420 3045 
Q 2306 3072 2169 3072 
Q 1681 3072 1420 2755 
Q 1159 2438 1159 1844 
L 1159 0 
L 581 0 
L 581 3500 
L 1159 3500 
L 1159 2956 
Q 1341 3275 1631 3429 
Q 1922 3584 2338 3584 
Q 2397 3584 2469 3576 
Q 2541 3569 2628 3553 
L 2631 2963 
z
" transform="scale(0.015625)"/>
      <path id="DejaVuSans-76" d="M 191 3500 
L 800 3500 
L 1894 563 
L 2988 3500 
L 3597 3500 
L 2284 0 
L 1503 0 
L 191 3500 
z
" transform="scale(0.015625)"/>
      <path id="DejaVuSans-64" d="M 2906 2969 
L 2906 4863 
L 3481 4863 
L 3481 0 
L 2906 0 
L 2906 525 
Q 2725 213 2448 61 
Q 2172 -91 1784 -91 
Q 1150 -91 751 415 
Q 353 922 353 1747 
Q 353 2572 751 3078 
Q 1150 3584 1784 3584 
Q 2172 3584 2448 3432 
Q 2725 3281 2906 2969 
z
M 947 1747 
Q 947 1113 1208 752 
Q 1469 391 1925 391 
Q 2381 391 2643 752 
Q 2906 1113 2906 1747 
Q 2906 2381 2643 2742 
Q 2381 3103 1925 3103 
Q 1469 3103 1208 2742 
Q 947 2381 947 1747 
z
" transform="scale(0.015625)"/>
     </defs>
     <use xlink:href="#DejaVuSans-6f"/>
     <use xlink:href="#DejaVuSans-62" transform="translate(61.181641 0)"/>
     <use xlink:href="#DejaVuSans-73" transform="translate(124.658203 0)"/>
     <use xlink:href="#DejaVuSans-65" transform="translate(176.757812 0)"/>
     <use xlink:href="#DejaVuSans-72" transform="translate(238.28125 0)"/>
     <use xlink:href="#DejaVuSans-76" transform="translate(279.394531 0)"/>
     <use xlink:href="#DejaVuSans-65" transform="translate(338.574219 0)"/>
     <use xlink:href="#DejaVuSans-64" transform="translate(400.097656 0)"/>
    </g>
    <!-- statistic -->
    <g style="fill: #166534" transform="translate(257.326875 148.442285) scale(0.09 -0.09)">
     <defs>
      <path id="DejaVuSans-74" d="M 1172 4494 
L 1172 3500 
L 2356 3500 
L 2356 3053 
L 1172 3053 
L 1172 1153 
Q 1172 725 1289 603 
Q 1406 481 1766 481 
L 2356 481 
L 2356 0 
L 1766 0 
Q 1100 0 847 248 
Q 594 497 594 1153 
L 594 3053 
L 172 3053 
L 172 3500 
L 594 3500 
L 594 4494 
L 1172 4494 
z
" transform="scale(0.015625)"/>
      <path id="DejaVuSans-61" d="M 2194 1759 
Q 1497 1759 1228 1600 
Q 959 1441 959 1056 
Q 959 750 1161 570 
Q 1363 391 1709 391 
Q 2188 391 2477 730 
Q 2766 1069 2766 1631 
L 2766 1759 
L 2194 1759 
z
M 3341 1997 
L 3341 0 
L 2766 0 
L 2766 531 
Q 2569 213 2275 61 
Q 1981 -91 1556 -91 
Q 1019 -91 701 211 
Q 384 513 384 1019 
Q 384 1609 779 1909 
Q 1175 2209 1959 2209 
L 2766 2209 
L 2766 2266 
Q 2766 2663 2505 2880 
Q 2244 3097 1772 3097 
Q 1472 3097 1187 3025 
Q 903 2953 641 2809 
L 641 3341 
Q 956 3463 1253 3523 
Q 1550 3584 1831 3584 
Q 2591 3584 2966 3190 
Q 3341 2797 3341 1997 
z
" transform="scale(0.015625)"/>
      <path id="DejaVuSans-69" d="M 603 3500 
L 1178 3500 
L 1178 0 
L 603 0 
L 603 3500 
z
M 603 4863 
L 1178 4863 
L 1178 4134 
L 603 4134 
L 603 4863 
z
" transform="scale(0.015625)"/>
      <path id="DejaVuSans-63" d="M 3122 3366 
L 3122 2828 
Q 2878 2963 2633 3030 
Q 2388 3097 2138 3097 
Q 1578 3097 1268 2742 
Q 959 2388 959 1747 
Q 959 1106 1268 751 
Q 1578 397 2138 397 
Q 2388 397 2633 464 
Q 2878 531 3122 666 
L 3122 134 
Q 2881 22 2623 -34 
Q 2366 -91 2075 -91 
Q 1284 -91 818 406 
Q 353 903 353 1747 
Q 353 2603 823 3093 
Q 1294 3584 2113 3584 
Q 2378 3584 2631 3529 
Q 2884 3475 3122 3366 
z
" transform="scale(0.015625)"/>
     </defs>
     <use xlink:href="#DejaVuSans-73"/>
     <use xlink:href="#DejaVuSans-74" transform="translate(52.099609 0)"/>
     <use xlink:href="#DejaVuSans-61" transform="translate(91.308594 0)"/>
     <use xlink:href="#DejaVuSans-74" transform="translate(152.587891 0)"/>
     <use xlink:href="#DejaVuSans-69" transform="translate(191.796875 0)"/>
     <use xlink:href="#DejaVuSans-73" transform="translate(219.580078 0)"/>
     <use xlink:href="#DejaVuSans-74" transform="translate(271.679688 0)"/>
     <use xlink:href="#DejaVuSans-69" transform="translate(310.888672 0)"/>
     <use xlink:href="#DejaVuSans-63" transform="translate(338.671875 0)"/>
    </g>
   </g>
   <g id="text_3">
    <!-- values we -->
    <g style="fill: #991b1b" transform="translate(93.068308 125.237963) scale(0.095 -0.095)">
     <defs>
      <path id="DejaVuSans-Bold-76" d="M 97 3500 
L 1216 3500 
L 2088 1081 
L 2956 3500 
L 4078 3500 
L 2700 0 
L 1472 0 
L 97 3500 
z
" transform="scale(0.015625)"/>
      <path id="DejaVuSans-Bold-61" d="M 2106 1575 
Q 1756 1575 1579 1456 
Q 1403 1338 1403 1106 
Q 1403 894 1545 773 
Q 1688 653 1941 653 
Q 2256 653 2472 879 
Q 2688 1106 2688 1447 
L 2688 1575 
L 2106 1575 
z
M 3816 1997 
L 3816 0 
L 2688 0 
L 2688 519 
Q 2463 200 2181 54 
Q 1900 -91 1497 -91 
Q 953 -91 614 226 
Q 275 544 275 1050 
Q 275 1666 698 1953 
Q 1122 2241 2028 2241 
L 2688 2241 
L 2688 2328 
Q 2688 2594 2478 2717 
Q 2269 2841 1825 2841 
Q 1466 2841 1156 2769 
Q 847 2697 581 2553 
L 581 3406 
Q 941 3494 1303 3539 
Q 1666 3584 2028 3584 
Q 2975 3584 3395 3211 
Q 3816 2838 3816 1997 
z
" transform="scale(0.015625)"/>
      <path id="DejaVuSans-Bold-6c" d="M 538 4863 
L 1656 4863 
L 1656 0 
L 538 0 
L 538 4863 
z
" transform="scale(0.015625)"/>
      <path id="DejaVuSans-Bold-75" d="M 500 1363 
L 500 3500 
L 1625 3500 
L 1625 3150 
Q 1625 2866 1622 2436 
Q 1619 2006 1619 1863 
Q 1619 1441 1641 1255 
Q 1663 1069 1716 984 
Q 1784 875 1895 815 
Q 2006 756 2150 756 
Q 2500 756 2700 1025 
Q 2900 1294 2900 1772 
L 2900 3500 
L 4019 3500 
L 4019 0 
L 2900 0 
L 2900 506 
Q 2647 200 2364 54 
Q 2081 -91 1741 -91 
Q 1134 -91 817 281 
Q 500 653 500 1363 
z
" transform="scale(0.015625)"/>
      <path id="DejaVuSans-Bold-65" d="M 4031 1759 
L 4031 1441 
L 1416 1441 
Q 1456 1047 1700 850 
Q 1944 653 2381 653 
Q 2734 653 3104 758 
Q 3475 863 3866 1075 
L 3866 213 
Q 3469 63 3072 -14 
Q 2675 -91 2278 -91 
Q 1328 -91 801 392 
Q 275 875 275 1747 
Q 275 2603 792 3093 
Q 1309 3584 2216 3584 
Q 3041 3584 3536 3087 
Q 4031 2591 4031 1759 
z
M 2881 2131 
Q 2881 2450 2695 2645 
Q 2509 2841 2209 2841 
Q 1884 2841 1681 2658 
Q 1478 2475 1428 2131 
L 2881 2131 
z
" transform="scale(0.015625)"/>
      <path id="DejaVuSans-Bold-73" d="M 3272 3391 
L 3272 2541 
Q 2913 2691 2578 2766 
Q 2244 2841 1947 2841 
Q 1628 2841 1473 2761 
Q 1319 2681 1319 2516 
Q 1319 2381 1436 2309 
Q 1553 2238 1856 2203 
L 2053 2175 
Q 2913 2066 3209 1816 
Q 3506 1566 3506 1031 
Q 3506 472 3093 190 
Q 2681 -91 1863 -91 
Q 1516 -91 1145 -36 
Q 775 19 384 128 
L 384 978 
Q 719 816 1070 734 
Q 1422 653 1784 653 
Q 2113 653 2278 743 
Q 2444 834 2444 1013 
Q 2444 1163 2330 1236 
Q 2216 1309 1875 1350 
L 1678 1375 
Q 931 1469 631 1722 
Q 331 1975 331 2491 
Q 331 3047 712 3315 
Q 1094 3584 1881 3584 
Q 2191 3584 2531 3537 
Q 2872 3491 3272 3391 
z
" transform="scale(0.015625)"/>
      <path id="DejaVuSans-Bold-20" transform="scale(0.015625)"/>
      <path id="DejaVuSans-Bold-77" d="M 225 3500 
L 1313 3500 
L 1900 1088 
L 2491 3500 
L 3425 3500 
L 4013 1113 
L 4603 3500 
L 5691 3500 
L 4769 0 
L 3547 0 
L 2956 2406 
L 2369 0 
L 1147 0 
L 225 3500 
z
" transform="scale(0.015625)"/>
     </defs>
     <use xlink:href="#DejaVuSans-Bold-76"/>
     <use xlink:href="#DejaVuSans-Bold-61" transform="translate(65.185547 0)"/>
     <use xlink:href="#DejaVuSans-Bold-6c" transform="translate(132.666016 0)"/>
     <use xlink:href="#DejaVuSans-Bold-75" transform="translate(166.943359 0)"/>
     <use xlink:href="#DejaVuSans-Bold-65" transform="translate(238.134766 0)"/>
     <use xlink:href="#DejaVuSans-Bold-73" transform="translate(305.957031 0)"/>
     <use xlink:href="#DejaVuSans-Bold-20" transform="translate(365.478516 0)"/>
     <use xlink:href="#DejaVuSans-Bold-77" transform="translate(400.292969 0)"/>
     <use xlink:href="#DejaVuSans-Bold-65" transform="translate(492.675781 0)"/>
    </g>
    <!-- REJECT -->
    <g style="fill: #991b1b" transform="translate(101.052019 135.875885) scale(0.095 -0.095)">
     <defs>
      <path id="DejaVuSans-Bold-52" d="M 2297 2597 
Q 2675 2597 2839 2737 
Q 3003 2878 3003 3200 
Q 3003 3519 2839 3656 
Q 2675 3794 2297 3794 
L 1791 3794 
L 1791 2597 
L 2297 2597 
z
M 1791 1766 
L 1791 0 
L 588 0 
L 588 4666 
L 2425 4666 
Q 3347 4666 3776 4356 
Q 4206 4047 4206 3378 
Q 4206 2916 3982 2619 
Q 3759 2322 3309 2181 
Q 3556 2125 3751 1926 
Q 3947 1728 4147 1325 
L 4800 0 
L 3519 0 
L 2950 1159 
Q 2778 1509 2601 1637 
Q 2425 1766 2131 1766 
L 1791 1766 
z
" transform="scale(0.015625)"/>
      <path id="DejaVuSans-Bold-45" d="M 588 4666 
L 3834 4666 
L 3834 3756 
L 1791 3756 
L 1791 2888 
L 3713 2888 
L 3713 1978 
L 1791 1978 
L 1791 909 
L 3903 909 
L 3903 0 
L 588 0 
L 588 4666 
z
" transform="scale(0.015625)"/>
      <path id="DejaVuSans-Bold-4a" d="M 588 4666 
L 1791 4666 
L 1791 453 
Q 1791 -419 1317 -850 
Q 844 -1281 -116 -1281 
L -359 -1281 
L -359 -372 
L -172 -372 
Q 203 -372 395 -162 
Q 588 47 588 453 
L 588 4666 
z
" transform="scale(0.015625)"/>
      <path id="DejaVuSans-Bold-43" d="M 4288 256 
Q 3956 84 3597 -3 
Q 3238 -91 2847 -91 
Q 1681 -91 1000 561 
Q 319 1213 319 2328 
Q 319 3447 1000 4098 
Q 1681 4750 2847 4750 
Q 3238 4750 3597 4662 
Q 3956 4575 4288 4403 
L 4288 3438 
Q 3953 3666 3628 3772 
Q 3303 3878 2944 3878 
Q 2300 3878 1931 3465 
Q 1563 3053 1563 2328 
Q 1563 1606 1931 1193 
Q 2300 781 2944 781 
Q 3303 781 3628 887 
Q 3953 994 4288 1222 
L 4288 256 
z
" transform="scale(0.015625)"/>
      <path id="DejaVuSans-Bold-54" d="M 31 4666 
L 4331 4666 
L 4331 3756 
L 2784 3756 
L 2784 0 
L 1581 0 
L 1581 3756 
L 31 3756 
L 31 4666 
z
" transform="scale(0.015625)"/>
     </defs>
     <use xlink:href="#DejaVuSans-Bold-52"/>
     <use xlink:href="#DejaVuSans-Bold-45" transform="translate(77.001953 0)"/>
     <use xlink:href="#DejaVuSans-Bold-4a" transform="translate(145.3125 0)"/>
     <use xlink:href="#DejaVuSans-Bold-45" transform="translate(182.519531 0)"/>
     <use xlink:href="#DejaVuSans-Bold-43" transform="translate(250.830078 0)"/>
     <use xlink:href="#DejaVuSans-Bold-54" transform="translate(324.21875 0)"/>
    </g>
   </g>
   <g id="text_4">
    <!-- values we -->
    <g style="fill: #991b1b" transform="translate(406.441108 125.237963) scale(0.095 -0.095)">
     <use xlink:href="#DejaVuSans-Bold-76"/>
     <use xlink:href="#DejaVuSans-Bold-61" transform="translate(65.185547 0)"/>
     <use xlink:href="#DejaVuSans-Bold-6c" transform="translate(132.666016 0)"/>
     <use xlink:href="#DejaVuSans-Bold-75" transform="translate(166.943359 0)"/>
     <use xlink:href="#DejaVuSans-Bold-65" transform="translate(238.134766 0)"/>
     <use xlink:href="#DejaVuSans-Bold-73" transform="translate(305.957031 0)"/>
     <use xlink:href="#DejaVuSans-Bold-20" transform="translate(365.478516 0)"/>
     <use xlink:href="#DejaVuSans-Bold-77" transform="translate(400.292969 0)"/>
     <use xlink:href="#DejaVuSans-Bold-65" transform="translate(492.675781 0)"/>
    </g>
    <!-- REJECT -->
    <g style="fill: #991b1b" transform="translate(414.424819 135.875885) scale(0.095 -0.095)">
     <use xlink:href="#DejaVuSans-Bold-52"/>
     <use xlink:href="#DejaVuSans-Bold-45" transform="translate(77.001953 0)"/>
     <use xlink:href="#DejaVuSans-Bold-4a" transform="translate(145.3125 0)"/>
     <use xlink:href="#DejaVuSans-Bold-45" transform="translate(182.519531 0)"/>
     <use xlink:href="#DejaVuSans-Bold-43" transform="translate(250.830078 0)"/>
     <use xlink:href="#DejaVuSans-Bold-54" transform="translate(324.21875 0)"/>
    </g>
   </g>
   <g id="text_5">
    <!-- values we FAIL TO REJECT -->
    <g style="fill: #2f5d3a" transform="translate(199.138125 108.229805) scale(0.105 -0.105)">
     <defs>
      <path id="DejaVuSans-Bold-46" d="M 588 4666 
L 3834 4666 
L 3834 3756 
L 1791 3756 
L 1791 2888 
L 3713 2888 
L 3713 1978 
L 1791 1978 
L 1791 0 
L 588 0 
L 588 4666 
z
" transform="scale(0.015625)"/>
      <path id="DejaVuSans-Bold-41" d="M 3419 850 
L 1538 850 
L 1241 0 
L 31 0 
L 1759 4666 
L 3194 4666 
L 4922 0 
L 3713 0 
L 3419 850 
z
M 1838 1716 
L 3116 1716 
L 2478 3572 
L 1838 1716 
z
" transform="scale(0.015625)"/>
      <path id="DejaVuSans-Bold-49" d="M 588 4666 
L 1791 4666 
L 1791 0 
L 588 0 
L 588 4666 
z
" transform="scale(0.015625)"/>
      <path id="DejaVuSans-Bold-4c" d="M 588 4666 
L 1791 4666 
L 1791 909 
L 3903 909 
L 3903 0 
L 588 0 
L 588 4666 
z
" transform="scale(0.015625)"/>
      <path id="DejaVuSans-Bold-4f" d="M 2719 3878 
Q 2169 3878 1866 3472 
Q 1563 3066 1563 2328 
Q 1563 1594 1866 1187 
Q 2169 781 2719 781 
Q 3272 781 3575 1187 
Q 3878 1594 3878 2328 
Q 3878 3066 3575 3472 
Q 3272 3878 2719 3878 
z
M 2719 4750 
Q 3844 4750 4481 4106 
Q 5119 3463 5119 2328 
Q 5119 1197 4481 553 
Q 3844 -91 2719 -91 
Q 1597 -91 958 553 
Q 319 1197 319 2328 
Q 319 3463 958 4106 
Q 1597 4750 2719 4750 
z
" transform="scale(0.015625)"/>
     </defs>
     <use xlink:href="#DejaVuSans-Bold-76"/>
     <use xlink:href="#DejaVuSans-Bold-61" transform="translate(65.185547 0)"/>
     <use xlink:href="#DejaVuSans-Bold-6c" transform="translate(132.666016 0)"/>
     <use xlink:href="#DejaVuSans-Bold-75" transform="translate(166.943359 0)"/>
     <use xlink:href="#DejaVuSans-Bold-65" transform="translate(238.134766 0)"/>
     <use xlink:href="#DejaVuSans-Bold-73" transform="translate(305.957031 0)"/>
     <use xlink:href="#DejaVuSans-Bold-20" transform="translate(365.478516 0)"/>
     <use xlink:href="#DejaVuSans-Bold-77" transform="translate(400.292969 0)"/>
     <use xlink:href="#DejaVuSans-Bold-65" transform="translate(492.675781 0)"/>
     <use xlink:href="#DejaVuSans-Bold-20" transform="translate(560.498047 0)"/>
     <use xlink:href="#DejaVuSans-Bold-46" transform="translate(595.3125 0)"/>
     <use xlink:href="#DejaVuSans-Bold-41" transform="translate(652.123047 0)"/>
     <use xlink:href="#DejaVuSans-Bold-49" transform="translate(729.515625 0)"/>
     <use xlink:href="#DejaVuSans-Bold-4c" transform="translate(766.722656 0)"/>
     <use xlink:href="#DejaVuSans-Bold-20" transform="translate(830.443359 0)"/>
     <use xlink:href="#DejaVuSans-Bold-54" transform="translate(865.257812 0)"/>
     <use xlink:href="#DejaVuSans-Bold-4f" transform="translate(933.470703 0)"/>
     <use xlink:href="#DejaVuSans-Bold-20" transform="translate(1018.480469 0)"/>
     <use xlink:href="#DejaVuSans-Bold-52" transform="translate(1053.294922 0)"/>
     <use xlink:href="#DejaVuSans-Bold-45" transform="translate(1130.296875 0)"/>
     <use xlink:href="#DejaVuSans-Bold-4a" transform="translate(1198.607422 0)"/>
     <use xlink:href="#DejaVuSans-Bold-45" transform="translate(1235.814453 0)"/>
     <use xlink:href="#DejaVuSans-Bold-43" transform="translate(1304.125 0)"/>
     <use xlink:href="#DejaVuSans-Bold-54" transform="translate(1377.513672 0)"/>
    </g>
   </g>
   <g id="patch_3">
    <path d="M 346.246046 90.636845 
Q 275.040211 90.636845 203.834375 90.636845 
" style="fill: none; stroke: #2f5d3a; stroke-width: 1.6; stroke-linecap: round"/>
    <path d="M 341.846046 88.436845 
L 346.246046 90.636845 
L 341.846046 92.836845 
" style="fill: none; stroke: #2f5d3a; stroke-width: 1.6; stroke-linecap: round"/>
    <path d="M 208.234375 92.836845 
L 203.834375 90.636845 
L 208.234375 88.436845 
" style="fill: none; stroke: #2f5d3a; stroke-width: 1.6; stroke-linecap: round"/>
   </g>
   <g id="text_6">
    <!-- $(1-\alpha)\times100\%$ confidence interval -->
    <g style="fill: #2f5d3a" transform="translate(172.685 80.583725) scale(0.11 -0.11)">
     <defs>
      <path id="DejaVuSans-28" d="M 1984 4856 
Q 1566 4138 1362 3434 
Q 1159 2731 1159 2009 
Q 1159 1288 1364 580 
Q 1569 -128 1984 -844 
L 1484 -844 
Q 1016 -109 783 600 
Q 550 1309 550 2009 
Q 550 2706 781 3412 
Q 1013 4119 1484 4856 
L 1984 4856 
z
" transform="scale(0.015625)"/>
      <path id="DejaVuSans-31" d="M 794 531 
L 1825 531 
L 1825 4091 
L 703 3866 
L 703 4441 
L 1819 4666 
L 2450 4666 
L 2450 531 
L 3481 531 
L 3481 0 
L 794 0 
L 794 531 
z
" transform="scale(0.015625)"/>
      <path id="DejaVuSans-2212" d="M 678 2272 
L 4684 2272 
L 4684 1741 
L 678 1741 
L 678 2272 
z
" transform="scale(0.015625)"/>
      <path id="DejaVuSans-Oblique-3b1" d="M 2619 1628 
L 2622 2350 
Q 2625 3088 2069 3091 
Q 1653 3094 1394 2747 
Q 1069 2319 959 1747 
Q 825 1059 994 731 
Q 1169 397 1547 397 
Q 1966 397 2319 1063 
L 2619 1628 
z
M 2166 3578 
Q 3141 3594 3128 2584 
Q 3128 2584 3616 3500 
L 4128 3500 
L 3119 1603 
L 3109 919 
Q 3109 766 3194 638 
Q 3291 488 3391 488 
L 3669 488 
L 3575 0 
L 3228 0 
Q 2934 0 2722 263 
Q 2622 394 2619 669 
Q 2416 334 2066 50 
Q 1900 -81 1453 -78 
Q 722 -72 456 397 
Q 184 884 353 1747 
Q 534 2675 1009 3097 
Q 1544 3569 2166 3578 
z
" transform="scale(0.015625)"/>
      <path id="DejaVuSans-29" d="M 513 4856 
L 1013 4856 
Q 1481 4119 1714 3412 
Q 1947 2706 1947 2009 
Q 1947 1309 1714 600 
Q 1481 -109 1013 -844 
L 513 -844 
Q 928 -128 1133 580 
Q 1338 1288 1338 2009 
Q 1338 2731 1133 3434 
Q 928 4138 513 4856 
z
" transform="scale(0.015625)"/>
      <path id="DejaVuSans-d7" d="M 4488 3438 
L 3059 2003 
L 4488 575 
L 4116 197 
L 2681 1631 
L 1247 197 
L 878 575 
L 2303 2003 
L 878 3438 
L 1247 3816 
L 2681 2381 
L 4116 3816 
L 4488 3438 
z
" transform="scale(0.015625)"/>
      <path id="DejaVuSans-30" d="M 2034 4250 
Q 1547 4250 1301 3770 
Q 1056 3291 1056 2328 
Q 1056 1369 1301 889 
Q 1547 409 2034 409 
Q 2525 409 2770 889 
Q 3016 1369 3016 2328 
Q 3016 3291 2770 3770 
Q 2525 4250 2034 4250 
z
M 2034 4750 
Q 2819 4750 3233 4129 
Q 3647 3509 3647 2328 
Q 3647 1150 3233 529 
Q 2819 -91 2034 -91 
Q 1250 -91 836 529 
Q 422 1150 422 2328 
Q 422 3509 836 4129 
Q 1250 4750 2034 4750 
z
" transform="scale(0.015625)"/>
      <path id="DejaVuSans-25" d="M 4653 2053 
Q 4381 2053 4226 1822 
Q 4072 1591 4072 1178 
Q 4072 772 4226 539 
Q 4381 306 4653 306 
Q 4919 306 5073 539 
Q 5228 772 5228 1178 
Q 5228 1588 5073 1820 
Q 4919 2053 4653 2053 
z
M 4653 2450 
Q 5147 2450 5437 2106 
Q 5728 1763 5728 1178 
Q 5728 594 5436 251 
Q 5144 -91 4653 -91 
Q 4153 -91 3862 251 
Q 3572 594 3572 1178 
Q 3572 1766 3864 2108 
Q 4156 2450 4653 2450 
z
M 1428 4353 
Q 1159 4353 1004 4120 
Q 850 3888 850 3481 
Q 850 3069 1003 2837 
Q 1156 2606 1428 2606 
Q 1700 2606 1854 2837 
Q 2009 3069 2009 3481 
Q 2009 3884 1853 4118 
Q 1697 4353 1428 4353 
z
M 4250 4750 
L 4750 4750 
L 1831 -91 
L 1331 -91 
L 4250 4750 
z
M 1428 4750 
Q 1922 4750 2215 4408 
Q 2509 4066 2509 3481 
Q 2509 2891 2217 2550 
Q 1925 2209 1428 2209 
Q 931 2209 642 2551 
Q 353 2894 353 3481 
Q 353 4063 643 4406 
Q 934 4750 1428 4750 
z
" transform="scale(0.015625)"/>
      <path id="DejaVuSans-Bold-63" d="M 3366 3391 
L 3366 2478 
Q 3138 2634 2908 2709 
Q 2678 2784 2431 2784 
Q 1963 2784 1702 2511 
Q 1441 2238 1441 1747 
Q 1441 1256 1702 982 
Q 1963 709 2431 709 
Q 2694 709 2930 787 
Q 3166 866 3366 1019 
L 3366 103 
Q 3103 6 2833 -42 
Q 2563 -91 2291 -91 
Q 1344 -91 809 395 
Q 275 881 275 1747 
Q 275 2613 809 3098 
Q 1344 3584 2291 3584 
Q 2566 3584 2833 3536 
Q 3100 3488 3366 3391 
z
" transform="scale(0.015625)"/>
      <path id="DejaVuSans-Bold-6f" d="M 2203 2784 
Q 1831 2784 1636 2517 
Q 1441 2250 1441 1747 
Q 1441 1244 1636 976 
Q 1831 709 2203 709 
Q 2569 709 2762 976 
Q 2956 1244 2956 1747 
Q 2956 2250 2762 2517 
Q 2569 2784 2203 2784 
z
M 2203 3584 
Q 3106 3584 3614 3096 
Q 4122 2609 4122 1747 
Q 4122 884 3614 396 
Q 3106 -91 2203 -91 
Q 1297 -91 786 396 
Q 275 884 275 1747 
Q 275 2609 786 3096 
Q 1297 3584 2203 3584 
z
" transform="scale(0.015625)"/>
      <path id="DejaVuSans-Bold-6e" d="M 4056 2131 
L 4056 0 
L 2931 0 
L 2931 347 
L 2931 1631 
Q 2931 2084 2911 2256 
Q 2891 2428 2841 2509 
Q 2775 2619 2662 2680 
Q 2550 2741 2406 2741 
Q 2056 2741 1856 2470 
Q 1656 2200 1656 1722 
L 1656 0 
L 538 0 
L 538 3500 
L 1656 3500 
L 1656 2988 
Q 1909 3294 2193 3439 
Q 2478 3584 2822 3584 
Q 3428 3584 3742 3212 
Q 4056 2841 4056 2131 
z
" transform="scale(0.015625)"/>
      <path id="DejaVuSans-Bold-66" d="M 2841 4863 
L 2841 4128 
L 2222 4128 
Q 1984 4128 1890 4042 
Q 1797 3956 1797 3744 
L 1797 3500 
L 2753 3500 
L 2753 2700 
L 1797 2700 
L 1797 0 
L 678 0 
L 678 2700 
L 122 2700 
L 122 3500 
L 678 3500 
L 678 3744 
Q 678 4316 997 4589 
Q 1316 4863 1984 4863 
L 2841 4863 
z
" transform="scale(0.015625)"/>
      <path id="DejaVuSans-Bold-69" d="M 538 3500 
L 1656 3500 
L 1656 0 
L 538 0 
L 538 3500 
z
M 538 4863 
L 1656 4863 
L 1656 3950 
L 538 3950 
L 538 4863 
z
" transform="scale(0.015625)"/>
      <path id="DejaVuSans-Bold-64" d="M 2919 2988 
L 2919 4863 
L 4044 4863 
L 4044 0 
L 2919 0 
L 2919 506 
Q 2688 197 2409 53 
Q 2131 -91 1766 -91 
Q 1119 -91 703 423 
Q 288 938 288 1747 
Q 288 2556 703 3070 
Q 1119 3584 1766 3584 
Q 2128 3584 2408 3439 
Q 2688 3294 2919 2988 
z
M 2181 722 
Q 2541 722 2730 984 
Q 2919 1247 2919 1747 
Q 2919 2247 2730 2509 
Q 2541 2772 2181 2772 
Q 1825 2772 1636 2509 
Q 1447 2247 1447 1747 
Q 1447 1247 1636 984 
Q 1825 722 2181 722 
z
" transform="scale(0.015625)"/>
      <path id="DejaVuSans-Bold-74" d="M 1759 4494 
L 1759 3500 
L 2913 3500 
L 2913 2700 
L 1759 2700 
L 1759 1216 
Q 1759 972 1856 886 
Q 1953 800 2241 800 
L 2816 800 
L 2816 0 
L 1856 0 
Q 1194 0 917 276 
Q 641 553 641 1216 
L 641 2700 
L 84 2700 
L 84 3500 
L 641 3500 
L 641 4494 
L 1759 4494 
z
" transform="scale(0.015625)"/>
      <path id="DejaVuSans-Bold-72" d="M 3138 2547 
Q 2991 2616 2845 2648 
Q 2700 2681 2553 2681 
Q 2122 2681 1889 2404 
Q 1656 2128 1656 1613 
L 1656 0 
L 538 0 
L 538 3500 
L 1656 3500 
L 1656 2925 
Q 1872 3269 2151 3426 
Q 2431 3584 2822 3584 
Q 2878 3584 2943 3579 
Q 3009 3575 3134 3559 
L 3138 2547 
z
" transform="scale(0.015625)"/>
     </defs>
     <use xlink:href="#DejaVuSans-28" transform="translate(0 0.015625)"/>
     <use xlink:href="#DejaVuSans-31" transform="translate(39.013672 0.015625)"/>
     <use xlink:href="#DejaVuSans-2212" transform="translate(122.119141 0.015625)"/>
     <use xlink:href="#DejaVuSans-Oblique-3b1" transform="translate(225.390625 0.015625)"/>
     <use xlink:href="#DejaVuSans-29" transform="translate(291.308594 0.015625)"/>
     <use xlink:href="#DejaVuSans-d7" transform="translate(349.804688 0.015625)"/>
     <use xlink:href="#DejaVuSans-31" transform="translate(453.076172 0.015625)"/>
     <use xlink:href="#DejaVuSans-30" transform="translate(516.699219 0.015625)"/>
     <use xlink:href="#DejaVuSans-30" transform="translate(580.322266 0.015625)"/>
     <use xlink:href="#DejaVuSans-25" transform="translate(643.945312 0.015625)"/>
     <use xlink:href="#DejaVuSans-Bold-20" transform="translate(738.964844 0.015625)"/>
     <use xlink:href="#DejaVuSans-Bold-63" transform="translate(773.779297 0.015625)"/>
     <use xlink:href="#DejaVuSans-Bold-6f" transform="translate(833.056641 0.015625)"/>
     <use xlink:href="#DejaVuSans-Bold-6e" transform="translate(901.757812 0.015625)"/>
     <use xlink:href="#DejaVuSans-Bold-66" transform="translate(972.949219 0.015625)"/>
     <use xlink:href="#DejaVuSans-Bold-69" transform="translate(1016.455078 0.015625)"/>
     <use xlink:href="#DejaVuSans-Bold-64" transform="translate(1050.732422 0.015625)"/>
     <use xlink:href="#DejaVuSans-Bold-65" transform="translate(1122.314453 0.015625)"/>
     <use xlink:href="#DejaVuSans-Bold-6e" transform="translate(1190.136719 0.015625)"/>
     <use xlink:href="#DejaVuSans-Bold-63" transform="translate(1261.328125 0.015625)"/>
     <use xlink:href="#DejaVuSans-Bold-65" transform="translate(1320.605469 0.015625)"/>
     <use xlink:href="#DejaVuSans-Bold-20" transform="translate(1388.427734 0.015625)"/>
     <use xlink:href="#DejaVuSans-Bold-69" transform="translate(1423.242188 0.015625)"/>
     <use xlink:href="#DejaVuSans-Bold-6e" transform="translate(1457.519531 0.015625)"/>
     <use xlink:href="#DejaVuSans-Bold-74" transform="translate(1528.710938 0.015625)"/>
     <use xlink:href="#DejaVuSans-Bold-65" transform="translate(1576.513672 0.015625)"/>
     <use xlink:href="#DejaVuSans-Bold-72" transform="translate(1644.335938 0.015625)"/>
     <use xlink:href="#DejaVuSans-Bold-76" transform="translate(1693.652344 0.015625)"/>
     <use xlink:href="#DejaVuSans-Bold-61" transform="translate(1758.837891 0.015625)"/>
     <use xlink:href="#DejaVuSans-Bold-6c" transform="translate(1826.318359 0.015625)"/>
    </g>
   </g>
   <g id="patch_4">
    <path d="M 174.103642 192.359157 
Q 186.19231 185.948109 197.293251 180.060889 
" style="fill: none; stroke: #4a7c59; stroke-linecap: round"/>
    <path d="M 193.493028 180.152008 
L 197.293251 180.060889 
L 195.086012 183.155739 
" style="fill: none; stroke: #4a7c59; stroke-linecap: round"/>
   </g>
   <g id="text_7">
    <!-- decision flips -->
    <g style="fill: #4a7c59" transform="translate(124.193991 201.756144) scale(0.085 -0.085)">
     <defs>
      <path id="DejaVuSans-6e" d="M 3513 2113 
L 3513 0 
L 2938 0 
L 2938 2094 
Q 2938 2591 2744 2837 
Q 2550 3084 2163 3084 
Q 1697 3084 1428 2787 
Q 1159 2491 1159 1978 
L 1159 0 
L 581 0 
L 581 3500 
L 1159 3500 
L 1159 2956 
Q 1366 3272 1645 3428 
Q 1925 3584 2291 3584 
Q 2894 3584 3203 3211 
Q 3513 2838 3513 2113 
z
" transform="scale(0.015625)"/>
      <path id="DejaVuSans-20" transform="scale(0.015625)"/>
      <path id="DejaVuSans-66" d="M 2375 4863 
L 2375 4384 
L 1825 4384 
Q 1516 4384 1395 4259 
Q 1275 4134 1275 3809 
L 1275 3500 
L 2222 3500 
L 2222 3053 
L 1275 3053 
L 1275 0 
L 697 0 
L 697 3053 
L 147 3053 
L 147 3500 
L 697 3500 
L 697 3744 
Q 697 4328 969 4595 
Q 1241 4863 1831 4863 
L 2375 4863 
z
" transform="scale(0.015625)"/>
      <path id="DejaVuSans-6c" d="M 603 4863 
L 1178 4863 
L 1178 0 
L 603 0 
L 603 4863 
z
" transform="scale(0.015625)"/>
      <path id="DejaVuSans-70" d="M 1159 525 
L 1159 -1331 
L 581 -1331 
L 581 3500 
L 1159 3500 
L 1159 2969 
Q 1341 3281 1617 3432 
Q 1894 3584 2278 3584 
Q 2916 3584 3314 3078 
Q 3713 2572 3713 1747 
Q 3713 922 3314 415 
Q 2916 -91 2278 -91 
Q 1894 -91 1617 61 
Q 1341 213 1159 525 
z
M 3116 1747 
Q 3116 2381 2855 2742 
Q 2594 3103 2138 3103 
Q 1681 3103 1420 2742 
Q 1159 2381 1159 1747 
Q 1159 1113 1420 752 
Q 1681 391 2138 391 
Q 2594 391 2855 752 
Q 3116 1113 3116 1747 
z
" transform="scale(0.015625)"/>
     </defs>
     <use xlink:href="#DejaVuSans-64"/>
     <use xlink:href="#DejaVuSans-65" transform="translate(63.476562 0)"/>
     <use xlink:href="#DejaVuSans-63" transform="translate(125 0)"/>
     <use xlink:href="#DejaVuSans-69" transform="translate(179.980469 0)"/>
     <use xlink:href="#DejaVuSans-73" transform="translate(207.763672 0)"/>
     <use xlink:href="#DejaVuSans-69" transform="translate(259.863281 0)"/>
     <use xlink:href="#DejaVuSans-6f" transform="translate(287.646484 0)"/>
     <use xlink:href="#DejaVuSans-6e" transform="translate(348.828125 0)"/>
     <use xlink:href="#DejaVuSans-20" transform="translate(412.207031 0)"/>
     <use xlink:href="#DejaVuSans-66" transform="translate(443.994141 0)"/>
     <use xlink:href="#DejaVuSans-6c" transform="translate(479.199219 0)"/>
     <use xlink:href="#DejaVuSans-69" transform="translate(506.982422 0)"/>
     <use xlink:href="#DejaVuSans-70" transform="translate(534.765625 0)"/>
     <use xlink:href="#DejaVuSans-73" transform="translate(598.242188 0)"/>
    </g>
    <!-- here -->
    <g style="fill: #4a7c59" transform="translate(142.258483 211.274285) scale(0.085 -0.085)">
     <defs>
      <path id="DejaVuSans-68" d="M 3513 2113 
L 3513 0 
L 2938 0 
L 2938 2094 
Q 2938 2591 2744 2837 
Q 2550 3084 2163 3084 
Q 1697 3084 1428 2787 
Q 1159 2491 1159 1978 
L 1159 0 
L 581 0 
L 581 4863 
L 1159 4863 
L 1159 2956 
Q 1366 3272 1645 3428 
Q 1925 3584 2291 3584 
Q 2894 3584 3203 3211 
Q 3513 2838 3513 2113 
z
" transform="scale(0.015625)"/>
     </defs>
     <use xlink:href="#DejaVuSans-68"/>
     <use xlink:href="#DejaVuSans-65" transform="translate(63.378906 0)"/>
     <use xlink:href="#DejaVuSans-72" transform="translate(124.902344 0)"/>
     <use xlink:href="#DejaVuSans-65" transform="translate(163.765625 0)"/>
    </g>
   </g>
   <g id="patch_5">
    <path d="M 381.996323 196.106052 
Q 366.891649 187.833553 352.767574 180.098107 
" style="fill: none; stroke: #4a7c59; stroke-linecap: round"/>
    <path d="M 354.933025 183.222338 
L 352.767574 180.098107 
L 356.56623 180.240285 
" style="fill: none; stroke: #4a7c59; stroke-linecap: round"/>
   </g>
   <g id="text_8">
    <!-- decision flips -->
    <g style="fill: #4a7c59" transform="translate(375.963591 205.526064) scale(0.085 -0.085)">
     <use xlink:href="#DejaVuSans-64"/>
     <use xlink:href="#DejaVuSans-65" transform="translate(63.476562 0)"/>
     <use xlink:href="#DejaVuSans-63" transform="translate(125 0)"/>
     <use xlink:href="#DejaVuSans-69" transform="translate(179.980469 0)"/>
     <use xlink:href="#DejaVuSans-73" transform="translate(207.763672 0)"/>
     <use xlink:href="#DejaVuSans-69" transform="translate(259.863281 0)"/>
     <use xlink:href="#DejaVuSans-6f" transform="translate(287.646484 0)"/>
     <use xlink:href="#DejaVuSans-6e" transform="translate(348.828125 0)"/>
     <use xlink:href="#DejaVuSans-20" transform="translate(412.207031 0)"/>
     <use xlink:href="#DejaVuSans-66" transform="translate(443.994141 0)"/>
     <use xlink:href="#DejaVuSans-6c" transform="translate(479.199219 0)"/>
     <use xlink:href="#DejaVuSans-69" transform="translate(506.982422 0)"/>
     <use xlink:href="#DejaVuSans-70" transform="translate(534.765625 0)"/>
     <use xlink:href="#DejaVuSans-73" transform="translate(598.242188 0)"/>
    </g>
    <!-- here -->
    <g style="fill: #4a7c59" transform="translate(394.028083 215.044205) scale(0.085 -0.085)">
     <use xlink:href="#DejaVuSans-68"/>
     <use xlink:href="#DejaVuSans-65" transform="translate(63.378906 0)"/>
     <use xlink:href="#DejaVuSans-72" transform="translate(124.902344 0)"/>
     <use xlink:href="#DejaVuSans-65" transform="translate(163.765625 0)"/>
    </g>
   </g>
   <g id="text_9">
    <!-- A confidence interval is the set of values a two-sided test does not reject -->
    <g style="fill: #374151" transform="translate(55.651875 16.318125) scale(0.12 -0.12)">
     <defs>
      <path id="DejaVuSans-41" d="M 2188 4044 
L 1331 1722 
L 3047 1722 
L 2188 4044 
z
M 1831 4666 
L 2547 4666 
L 4325 0 
L 3669 0 
L 3244 1197 
L 1141 1197 
L 716 0 
L 50 0 
L 1831 4666 
z
" transform="scale(0.015625)"/>
      <path id="DejaVuSans-75" d="M 544 1381 
L 544 3500 
L 1119 3500 
L 1119 1403 
Q 1119 906 1312 657 
Q 1506 409 1894 409 
Q 2359 409 2629 706 
Q 2900 1003 2900 1516 
L 2900 3500 
L 3475 3500 
L 3475 0 
L 2900 0 
L 2900 538 
Q 2691 219 2414 64 
Q 2138 -91 1772 -91 
Q 1169 -91 856 284 
Q 544 659 544 1381 
z
M 1991 3584 
L 1991 3584 
z
" transform="scale(0.015625)"/>
      <path id="DejaVuSans-77" d="M 269 3500 
L 844 3500 
L 1563 769 
L 2278 3500 
L 2956 3500 
L 3675 769 
L 4391 3500 
L 4966 3500 
L 4050 0 
L 3372 0 
L 2619 2869 
L 1863 0 
L 1184 0 
L 269 3500 
z
" transform="scale(0.015625)"/>
      <path id="DejaVuSans-2d" d="M 313 2009 
L 1997 2009 
L 1997 1497 
L 313 1497 
L 313 2009 
z
" transform="scale(0.015625)"/>
      <path id="DejaVuSans-6a" d="M 603 3500 
L 1178 3500 
L 1178 -63 
Q 1178 -731 923 -1031 
Q 669 -1331 103 -1331 
L -116 -1331 
L -116 -844 
L 38 -844 
Q 366 -844 484 -692 
Q 603 -541 603 -63 
L 603 3500 
z
M 603 4863 
L 1178 4863 
L 1178 4134 
L 603 4134 
L 603 4863 
z
" transform="scale(0.015625)"/>
     </defs>
     <use xlink:href="#DejaVuSans-41"/>
     <use xlink:href="#DejaVuSans-20" transform="translate(68.408203 0)"/>
     <use xlink:href="#DejaVuSans-63" transform="translate(100.195312 0)"/>
     <use xlink:href="#DejaVuSans-6f" transform="translate(155.175781 0)"/>
     <use xlink:href="#DejaVuSans-6e" transform="translate(216.357422 0)"/>
     <use xlink:href="#DejaVuSans-66" transform="translate(279.736328 0)"/>
     <use xlink:href="#DejaVuSans-69" transform="translate(314.941406 0)"/>
     <use xlink:href="#DejaVuSans-64" transform="translate(342.724609 0)"/>
     <use xlink:href="#DejaVuSans-65" transform="translate(406.201172 0)"/>
     <use xlink:href="#DejaVuSans-6e" transform="translate(467.724609 0)"/>
     <use xlink:href="#DejaVuSans-63" transform="translate(531.103516 0)"/>
     <use xlink:href="#DejaVuSans-65" transform="translate(586.083984 0)"/>
     <use xlink:href="#DejaVuSans-20" transform="translate(647.607422 0)"/>
     <use xlink:href="#DejaVuSans-69" transform="translate(679.394531 0)"/>
     <use xlink:href="#DejaVuSans-6e" transform="translate(707.177734 0)"/>
     <use xlink:href="#DejaVuSans-74" transform="translate(770.556641 0)"/>
     <use xlink:href="#DejaVuSans-65" transform="translate(809.765625 0)"/>
     <use xlink:href="#DejaVuSans-72" transform="translate(871.289062 0)"/>
     <use xlink:href="#DejaVuSans-76" transform="translate(912.402344 0)"/>
     <use xlink:href="#DejaVuSans-61" transform="translate(971.582031 0)"/>
     <use xlink:href="#DejaVuSans-6c" transform="translate(1032.861328 0)"/>
     <use xlink:href="#DejaVuSans-20" transform="translate(1060.644531 0)"/>
     <use xlink:href="#DejaVuSans-69" transform="translate(1092.431641 0)"/>
     <use xlink:href="#DejaVuSans-73" transform="translate(1120.214844 0)"/>
     <use xlink:href="#DejaVuSans-20" transform="translate(1172.314453 0)"/>
     <use xlink:href="#DejaVuSans-74" transform="translate(1204.101562 0)"/>
     <use xlink:href="#DejaVuSans-68" transform="translate(1243.310547 0)"/>
     <use xlink:href="#DejaVuSans-65" transform="translate(1306.689453 0)"/>
     <use xlink:href="#DejaVuSans-20" transform="translate(1368.212891 0)"/>
     <use xlink:href="#DejaVuSans-73" transform="translate(1400 0)"/>
     <use xlink:href="#DejaVuSans-65" transform="translate(1452.099609 0)"/>
     <use xlink:href="#DejaVuSans-74" transform="translate(1513.623047 0)"/>
     <use xlink:href="#DejaVuSans-20" transform="translate(1552.832031 0)"/>
     <use xlink:href="#DejaVuSans-6f" transform="translate(1584.619141 0)"/>
     <use xlink:href="#DejaVuSans-66" transform="translate(1645.800781 0)"/>
     <use xlink:href="#DejaVuSans-20" transform="translate(1681.005859 0)"/>
     <use xlink:href="#DejaVuSans-76" transform="translate(1712.792969 0)"/>
     <use xlink:href="#DejaVuSans-61" transform="translate(1771.972656 0)"/>
     <use xlink:href="#DejaVuSans-6c" transform="translate(1833.251953 0)"/>
     <use xlink:href="#DejaVuSans-75" transform="translate(1861.035156 0)"/>
     <use xlink:href="#DejaVuSans-65" transform="translate(1924.414062 0)"/>
     <use xlink:href="#DejaVuSans-73" transform="translate(1985.9375 0)"/>
     <use xlink:href="#DejaVuSans-20" transform="translate(2038.037109 0)"/>
     <use xlink:href="#DejaVuSans-61" transform="translate(2069.824219 0)"/>
     <use xlink:href="#DejaVuSans-20" transform="translate(2131.103516 0)"/>
     <use xlink:href="#DejaVuSans-74" transform="translate(2162.890625 0)"/>
     <use xlink:href="#DejaVuSans-77" transform="translate(2202.099609 0)"/>
     <use xlink:href="#DejaVuSans-6f" transform="translate(2283.886719 0)"/>
     <use xlink:href="#DejaVuSans-2d" transform="translate(2346.943359 0)"/>
     <use xlink:href="#DejaVuSans-73" transform="translate(2383.027344 0)"/>
     <use xlink:href="#DejaVuSans-69" transform="translate(2435.126953 0)"/>
     <use xlink:href="#DejaVuSans-64" transform="translate(2462.910156 0)"/>
     <use xlink:href="#DejaVuSans-65" transform="translate(2526.386719 0)"/>
     <use xlink:href="#DejaVuSans-64" transform="translate(2587.910156 0)"/>
     <use xlink:href="#DejaVuSans-20" transform="translate(2651.386719 0)"/>
     <use xlink:href="#DejaVuSans-74" transform="translate(2683.173828 0)"/>
     <use xlink:href="#DejaVuSans-65" transform="translate(2722.382812 0)"/>
     <use xlink:href="#DejaVuSans-73" transform="translate(2783.90625 0)"/>
     <use xlink:href="#DejaVuSans-74" transform="translate(2836.005859 0)"/>
     <use xlink:href="#DejaVuSans-20" transform="translate(2875.214844 0)"/>
     <use xlink:href="#DejaVuSans-64" transform="translate(2907.001953 0)"/>
     <use xlink:href="#DejaVuSans-6f" transform="translate(2970.478516 0)"/>
     <use xlink:href="#DejaVuSans-65" transform="translate(3031.660156 0)"/>
     <use xlink:href="#DejaVuSans-73" transform="translate(3093.183594 0)"/>
     <use xlink:href="#DejaVuSans-20" transform="translate(3145.283203 0)"/>
     <use xlink:href="#DejaVuSans-6e" transform="translate(3177.070312 0)"/>
     <use xlink:href="#DejaVuSans-6f" transform="translate(3240.449219 0)"/>
     <use xlink:href="#DejaVuSans-74" transform="translate(3301.630859 0)"/>
     <use xlink:href="#DejaVuSans-20" transform="translate(3340.839844 0)"/>
     <use xlink:href="#DejaVuSans-72" transform="translate(3372.626953 0)"/>
     <use xlink:href="#DejaVuSans-65" transform="translate(3411.490234 0)"/>
     <use xlink:href="#DejaVuSans-6a" transform="translate(3473.013672 0)"/>
     <use xlink:href="#DejaVuSans-65" transform="translate(3500.796875 0)"/>
     <use xlink:href="#DejaVuSans-63" transform="translate(3562.320312 0)"/>
     <use xlink:href="#DejaVuSans-74" transform="translate(3617.300781 0)"/>
    </g>
   </g>
  </g>
 </g>
 <defs>
  <clipPath id="p90c25de397">
   <rect x="7.2" y="30.318125" width="535.68" height="188.496"/>
  </clipPath>
 </defs>
</svg>
